<svg width="1400" height="900" viewBox="0 0 1400 900" fill="none" xmlns="http://www.w3.org/2000/svg">
  <!-- Background -->
  <rect width="1400" height="900" fill="#ffffff"/>
  
  <!-- Header -->
  <rect x="0" y="0" width="1400" height="70" fill="#f8f9fa"/>
  <text x="24" y="40" font-family="Arial, sans-serif" font-size="18" font-weight="600" fill="#1f2937">배포관리 - 배포현황 (배포 요청)</text>
  
  <!-- Search and Filter Section -->
  <g transform="translate(24, 90)">
    <rect x="0" y="0" width="1352" height="120" rx="12" fill="#f8f9fa" stroke="#e5e7eb"/>
    
    <!-- First Row -->
    <text x="20" y="30" font-family="Arial, sans-serif" font-size="14" font-weight="600" fill="#374151">검색 및 필터</text>
    
    <!-- Model Type -->
    <text x="20" y="55" font-family="Arial, sans-serif" font-size="12" font-weight="500" fill="#374151">모델타입</text>
    <rect x="20" y="60" width="120" height="32" rx="6" fill="#ffffff" stroke="#d1d5db"/>
    <text x="30" y="80" font-family="Arial, sans-serif" font-size="12" fill="#6b7280">전체</text>
    
    <!-- Service Model -->
    <text x="160" y="55" font-family="Arial, sans-serif" font-size="12" font-weight="500" fill="#374151">서비스 모델</text>
    <rect x="160" y="60" width="120" height="32" rx="6" fill="#ffffff" stroke="#d1d5db"/>
    <text x="170" y="80" font-family="Arial, sans-serif" font-size="12" fill="#6b7280">전체</text>
    
    <!-- Model Name -->
    <text x="300" y="55" font-family="Arial, sans-serif" font-size="12" font-weight="500" fill="#374151">모델명</text>
    <rect x="300" y="60" width="180" height="32" rx="6" fill="#ffffff" stroke="#d1d5db"/>
    <text x="310" y="80" font-family="Arial, sans-serif" font-size="12" fill="#9ca3af">모델명 검색...</text>
    
    <!-- Deployment Status -->
    <text x="500" y="55" font-family="Arial, sans-serif" font-size="12" font-weight="500" fill="#374151">배포상태</text>
    <rect x="500" y="60" width="120" height="32" rx="6" fill="#ffffff" stroke="#d1d5db"/>
    <text x="510" y="80" font-family="Arial, sans-serif" font-size="12" fill="#6b7280">전체</text>
    
    <!-- Deployment Environment -->
    <text x="640" y="55" font-family="Arial, sans-serif" font-size="12" font-weight="500" fill="#374151">배포환경</text>
    <rect x="640" y="60" width="120" height="32" rx="6" fill="#ffffff" stroke="#d1d5db"/>
    <text x="650" y="80" font-family="Arial, sans-serif" font-size="12" fill="#6b7280">전체</text>
    
    <!-- Buttons -->
    <rect x="780" y="60" width="60" height="32" rx="6" fill="#4b5563"/>
    <text x="800" y="80" font-family="Arial, sans-serif" font-size="12" fill="#ffffff">검색</text>
    
    <rect x="850" y="60" width="60" height="32" rx="6" fill="#e5e7eb"/>
    <text x="870" y="80" font-family="Arial, sans-serif" font-size="12" fill="#374151">초기화</text>
  </g>
  
  <!-- Action Buttons -->
  <g transform="translate(24, 230)">
    <rect x="0" y="0" width="80" height="36" rx="6" fill="#ef4444"/>
    <text x="25" y="22" font-family="Arial, sans-serif" font-size="14" fill="#ffffff">선택 중지</text>
    
    <rect x="100" y="0" width="80" height="36" rx="6" fill="#22c55e"/>
    <text x="125" y="22" font-family="Arial, sans-serif" font-size="14" fill="#ffffff">다운로드</text>
  </g>
  
  <!-- Results Info -->
  <g transform="translate(24, 280)">
    <text x="0" y="0" font-family="Arial, sans-serif" font-size="14" fill="#6b7280">총 <tspan font-weight="600">156</tspan>개 중 <tspan font-weight="600">156</tspan>개 표시</text>
  </g>
  
  <!-- Data Table -->
  <g transform="translate(24, 310)">
    <rect x="0" y="0" width="1352" height="550" rx="12" fill="#ffffff" stroke="#e5e7eb"/>
    
    <!-- Table Header -->
    <rect x="0" y="0" width="1352" height="45" rx="12" fill="#f9fafb"/>
    <line x1="0" y1="45" x2="1352" y2="45" stroke="#e5e7eb"/>
    
    <!-- Header Cells -->
    <text x="20" y="28" font-family="Arial, sans-serif" font-size="14" font-weight="600" fill="#374151">□</text>
    <text x="60" y="28" font-family="Arial, sans-serif" font-size="14" font-weight="600" fill="#374151">번호</text>
    <text x="120" y="28" font-family="Arial, sans-serif" font-size="14" font-weight="600" fill="#374151">요청번호</text>
    <text x="240" y="28" font-family="Arial, sans-serif" font-size="14" font-weight="600" fill="#374151">모델명</text>
    <text x="380" y="28" font-family="Arial, sans-serif" font-size="14" font-weight="600" fill="#374151">모델버전</text>
    <text x="480" y="28" font-family="Arial, sans-serif" font-size="14" font-weight="600" fill="#374151">배포환경</text>
    <text x="580" y="28" font-family="Arial, sans-serif" font-size="14" font-weight="600" fill="#374151">서비스포트</text>
    <text x="680" y="28" font-family="Arial, sans-serif" font-size="14" font-weight="600" fill="#374151">요청상태</text>
    <text x="780" y="28" font-family="Arial, sans-serif" font-size="14" font-weight="600" fill="#374151">요청일시</text>
    <text x="920" y="28" font-family="Arial, sans-serif" font-size="14" font-weight="600" fill="#374151">요청자</text>
    <text x="1020" y="28" font-family="Arial, sans-serif" font-size="14" font-weight="600" fill="#374151">상태조회</text>
    <text x="1120" y="28" font-family="Arial, sans-serif" font-size="14" font-weight="600" fill="#374151">액션</text>
    
    <!-- Table Rows -->
    <g transform="translate(0, 45)">
      <!-- Row 1 -->
      <rect x="0" y="0" width="1352" height="40" fill="#ffffff"/>
      <text x="20" y="25" font-family="Arial, sans-serif" font-size="12" fill="#374151">☑</text>
      <text x="60" y="25" font-family="Arial, sans-serif" font-size="12" fill="#1f2937">1</text>
      <text x="120" y="25" font-family="Arial, sans-serif" font-size="12" fill="#1f2937">DR-2024-0156</text>
      <text x="240" y="25" font-family="Arial, sans-serif" font-size="12" fill="#1f2937">STT_음성인식_v2.1</text>
      <text x="380" y="25" font-family="Arial, sans-serif" font-size="12" fill="#1f2937">v.2.1.3</text>
      <text x="480" y="25" font-family="Arial, sans-serif" font-size="12" fill="#1f2937">운영환경</text>
      <text x="580" y="25" font-family="Arial, sans-serif" font-size="12" fill="#1f2937">8080</text>
      <rect x="680" y="10" width="60" height="20" rx="10" fill="#dcfce7"/>
      <text x="695" y="23" font-family="Arial, sans-serif" font-size="10" fill="#166534">배포완료</text>
      <text x="780" y="25" font-family="Arial, sans-serif" font-size="12" fill="#1f2937">2024-01-18 09:30</text>
      <text x="920" y="25" font-family="Arial, sans-serif" font-size="12" fill="#1f2937">김영희</text>
      <circle cx="1050" cy="20" r="8" fill="none" stroke="#6b7280" stroke-width="1"/>
      <path d="M1046 16 L1050 20 L1054 16" stroke="#6b7280" stroke-width="1.5" fill="none"/>
      <rect x="1120" y="10" width="40" height="20" rx="4" fill="#3b82f6"/>
      <text x="1135" y="23" font-family="Arial, sans-serif" font-size="10" fill="#ffffff">관리</text>
      <rect x="1170" y="10" width="40" height="20" rx="4" fill="#6b7280"/>
      <text x="1185" y="23" font-family="Arial, sans-serif" font-size="10" fill="#ffffff">로그</text>
      
      <!-- Row 2 -->
      <rect x="0" y="40" width="1352" height="40" fill="#f9fafb"/>
      <text x="20" y="65" font-family="Arial, sans-serif" font-size="12" fill="#374151">☐</text>
      <text x="60" y="65" font-family="Arial, sans-serif" font-size="12" fill="#1f2937">2</text>
      <text x="120" y="65" font-family="Arial, sans-serif" font-size="12" fill="#1f2937">DR-2024-0155</text>
      <text x="240" y="65" font-family="Arial, sans-serif" font-size="12" fill="#1f2937">챗봇_금융_v1.8</text>
      <text x="380" y="65" font-family="Arial, sans-serif" font-size="12" fill="#1f2937">v.1.8.2</text>
      <text x="480" y="65" font-family="Arial, sans-serif" font-size="12" fill="#1f2937">스테이징환경</text>
      <text x="580" y="65" font-family="Arial, sans-serif" font-size="12" fill="#1f2937">8081</text>
      <rect x="680" y="50" width="60" height="20" rx="10" fill="#fef3c7"/>
      <text x="700" y="63" font-family="Arial, sans-serif" font-size="10" fill="#92400e">배포중</text>
      <text x="780" y="65" font-family="Arial, sans-serif" font-size="12" fill="#1f2937">2024-01-17 14:22</text>
      <text x="920" y="65" font-family="Arial, sans-serif" font-size="12" fill="#1f2937">박민수</text>
      <circle cx="1050" cy="60" r="8" fill="none" stroke="#6b7280" stroke-width="1"/>
      <path d="M1046 56 L1050 60 L1054 56" stroke="#6b7280" stroke-width="1.5" fill="none"/>
      <rect x="1120" y="50" width="40" height="20" rx="4" fill="#3b82f6"/>
      <text x="1135" y="63" font-family="Arial, sans-serif" font-size="10" fill="#ffffff">관리</text>
      <rect x="1170" y="50" width="40" height="20" rx="4" fill="#6b7280"/>
      <text x="1185" y="63" font-family="Arial, sans-serif" font-size="10" fill="#ffffff">로그</text>
      
      <!-- Row 3 -->
      <rect x="0" y="80" width="1352" height="40" fill="#ffffff"/>
      <text x="20" y="105" font-family="Arial, sans-serif" font-size="12" fill="#374151">☐</text>
      <text x="60" y="105" font-family="Arial, sans-serif" font-size="12" fill="#1f2937">3</text>
      <text x="120" y="105" font-family="Arial, sans-serif" font-size="12" fill="#1f2937">DR-2024-0154</text>
      <text x="240" y="105" font-family="Arial, sans-serif" font-size="12" fill="#1f2937">의료_음성인식_v3.2</text>
      <text x="380" y="105" font-family="Arial, sans-serif" font-size="12" fill="#1f2937">v.3.2.1</text>
      <text x="480" y="105" font-family="Arial, sans-serif" font-size="12" fill="#1f2937">개발환경</text>
      <text x="580" y="105" font-family="Arial, sans-serif" font-size="12" fill="#1f2937">8082</text>
      <rect x="680" y="90" width="60" height="20" rx="10" fill="#dbeafe"/>
      <text x="690" y="103" font-family="Arial, sans-serif" font-size="10" fill="#1e40af">요청대기</text>
      <text x="780" y="105" font-family="Arial, sans-serif" font-size="12" fill="#1f2937">2024-01-16 11:15</text>
      <text x="920" y="105" font-family="Arial, sans-serif" font-size="12" fill="#1f2937">이상철</text>
      <circle cx="1050" cy="100" r="8" fill="none" stroke="#6b7280" stroke-width="1"/>
      <path d="M1046 96 L1050 100 L1054 96" stroke="#6b7280" stroke-width="1.5" fill="none"/>
      <rect x="1120" y="90" width="40" height="20" rx="4" fill="#3b82f6"/>
      <text x="1135" y="103" font-family="Arial, sans-serif" font-size="10" fill="#ffffff">관리</text>
      <rect x="1170" y="90" width="40" height="20" rx="4" fill="#6b7280"/>
      <text x="1185" y="103" font-family="Arial, sans-serif" font-size="10" fill="#ffffff">로그</text>
      
      <!-- Row 4 -->
      <rect x="0" y="120" width="1352" height="40" fill="#f9fafb"/>
      <text x="20" y="145" font-family="Arial, sans-serif" font-size="12" fill="#374151">☐</text>
      <text x="60" y="145" font-family="Arial, sans-serif" font-size="12" fill="#1f2937">4</text>
      <text x="120" y="145" font-family="Arial, sans-serif" font-size="12" fill="#1f2937">DR-2024-0153</text>
      <text x="240" y="145" font-family="Arial, sans-serif" font-size="12" fill="#1f2937">교육_TTS_v1.5</text>
      <text x="380" y="145" font-family="Arial, sans-serif" font-size="12" fill="#1f2937">v.1.5.0</text>
      <text x="480" y="145" font-family="Arial, sans-serif" font-size="12" fill="#1f2937">운영환경</text>
      <text x="580" y="145" font-family="Arial, sans-serif" font-size="12" fill="#1f2937">8083</text>
      <rect x="680" y="130" width="60" height="20" rx="10" fill="#fee2e2"/>
      <text x="690" y="143" font-family="Arial, sans-serif" font-size="10" fill="#991b1b">배포실패</text>
      <text x="780" y="145" font-family="Arial, sans-serif" font-size="12" fill="#1f2937">2024-01-15 16:45</text>
      <text x="920" y="145" font-family="Arial, sans-serif" font-size="12" fill="#1f2937">최지영</text>
      <circle cx="1050" cy="140" r="8" fill="none" stroke="#6b7280" stroke-width="1"/>
      <path d="M1046 136 L1050 140 L1054 136" stroke="#6b7280" stroke-width="1.5" fill="none"/>
      <rect x="1120" y="130" width="40" height="20" rx="4" fill="#3b82f6"/>
      <text x="1135" y="143" font-family="Arial, sans-serif" font-size="10" fill="#ffffff">관리</text>
      <rect x="1170" y="130" width="40" height="20" rx="4" fill="#6b7280"/>
      <text x="1185" y="143" font-family="Arial, sans-serif" font-size="10" fill="#ffffff">로그</text>
      
      <!-- Row 5 -->
      <rect x="0" y="160" width="1352" height="40" fill="#ffffff"/>
      <text x="20" y="185" font-family="Arial, sans-serif" font-size="12" fill="#374151">☐</text>
      <text x="60" y="185" font-family="Arial, sans-serif" font-size="12" fill="#1f2937">5</text>
      <text x="120" y="185" font-family="Arial, sans-serif" font-size="12" fill="#1f2937">DR-2024-0152</text>
      <text x="240" y="185" font-family="Arial, sans-serif" font-size="12" fill="#1f2937">쇼핑몰_챗봇_v2.3</text>
      <text x="380" y="185" font-family="Arial, sans-serif" font-size="12" fill="#1f2937">v.2.3.1</text>
      <text x="480" y="185" font-family="Arial, sans-serif" font-size="12" fill="#1f2937">스테이징환경</text>
      <text x="580" y="185" font-family="Arial, sans-serif" font-size="12" fill="#1f2937">8084</text>
      <rect x="680" y="170" width="60" height="20" rx="10" fill="#dcfce7"/>
      <text x="695" y="183" font-family="Arial, sans-serif" font-size="10" fill="#166534">배포완료</text>
      <text x="780" y="185" font-family="Arial, sans-serif" font-size="12" fill="#1f2937">2024-01-14 13:20</text>
      <text x="920" y="185" font-family="Arial, sans-serif" font-size="12" fill="#1f2937">정수진</text>
      <circle cx="1050" cy="180" r="8" fill="none" stroke="#6b7280" stroke-width="1"/>
      <path d="M1046 176 L1050 180 L1054 176" stroke="#6b7280" stroke-width="1.5" fill="none"/>
      <rect x="1120" y="170" width="40" height="20" rx="4" fill="#3b82f6"/>
      <text x="1135" y="183" font-family="Arial, sans-serif" font-size="10" fill="#ffffff">관리</text>
      <rect x="1170" y="170" width="40" height="20" rx="4" fill="#6b7280"/>
      <text x="1185" y="183" font-family="Arial, sans-serif" font-size="10" fill="#ffffff">로그</text>
      
      <!-- Row 6 -->
      <rect x="0" y="200" width="1352" height="40" fill="#f9fafb"/>
      <text x="20" y="225" font-family="Arial, sans-serif" font-size="12" fill="#374151">☐</text>
      <text x="60" y="225" font-family="Arial, sans-serif" font-size="12" fill="#1f2937">6</text>
      <text x="120" y="225" font-family="Arial, sans-serif" font-size="12" fill="#1f2937">DR-2024-0151</text>
      <text x="240" y="225" font-family="Arial, sans-serif" font-size="12" fill="#1f2937">법률_상담_v1.9</text>
      <text x="380" y="225" font-family="Arial, sans-serif" font-size="12" fill="#1f2937">v.1.9.2</text>
      <text x="480" y="225" font-family="Arial, sans-serif" font-size="12" fill="#1f2937">개발환경</text>
      <text x="580" y="225" font-family="Arial, sans-serif" font-size="12" fill="#1f2937">8085</text>
      <rect x="680" y="210" width="60" height="20" rx="10" fill="#fef3c7"/>
      <text x="700" y="223" font-family="Arial, sans-serif" font-size="10" fill="#92400e">배포중</text>
      <text x="780" y="225" font-family="Arial, sans-serif" font-size="12" fill="#1f2937">2024-01-13 10:30</text>
      <text x="920" y="225" font-family="Arial, sans-serif" font-size="12" fill="#1f2937">한승우</text>
      <circle cx="1050" cy="220" r="8" fill="none" stroke="#6b7280" stroke-width="1"/>
      <path d="M1046 216 L1050 220 L1054 216" stroke="#6b7280" stroke-width="1.5" fill="none"/>
      <rect x="1120" y="210" width="40" height="20" rx="4" fill="#3b82f6"/>
      <text x="1135" y="223" font-family="Arial, sans-serif" font-size="10" fill="#ffffff">관리</text>
      <rect x="1170" y="210" width="40" height="20" rx="4" fill="#6b7280"/>
      <text x="1185" y="223" font-family="Arial, sans-serif" font-size="10" fill="#ffffff">로그</text>
      
      <!-- Row 7 -->
      <rect x="0" y="240" width="1352" height="40" fill="#ffffff"/>
      <text x="20" y="265" font-family="Arial, sans-serif" font-size="12" fill="#374151">☐</text>
      <text x="60" y="265" font-family="Arial, sans-serif" font-size="12" fill="#1f2937">7</text>
      <text x="120" y="265" font-family="Arial, sans-serif" font-size="12" fill="#1f2937">DR-2024-0150</text>
      <text x="240" y="265" font-family="Arial, sans-serif" font-size="12" fill="#1f2937">회의록_STT_v2.7</text>
      <text x="380" y="265" font-family="Arial, sans-serif" font-size="12" fill="#1f2937">v.2.7.0</text>
      <text x="480" y="265" font-family="Arial, sans-serif" font-size="12" fill="#1f2937">운영환경</text>
      <text x="580" y="265" font-family="Arial, sans-serif" font-size="12" fill="#1f2937">8086</text>
      <rect x="680" y="250" width="60" height="20" rx="10" fill="#dcfce7"/>
      <text x="695" y="263" font-family="Arial, sans-serif" font-size="10" fill="#166534">배포완료</text>
      <text x="780" y="265" font-family="Arial, sans-serif" font-size="12" fill="#1f2937">2024-01-12 15:20</text>
      <text x="920" y="265" font-family="Arial, sans-serif" font-size="12" fill="#1f2937">오민정</text>
      <circle cx="1050" cy="260" r="8" fill="none" stroke="#6b7280" stroke-width="1"/>
      <path d="M1046 256 L1050 260 L1054 256" stroke="#6b7280" stroke-width="1.5" fill="none"/>
      <rect x="1120" y="250" width="40" height="20" rx="4" fill="#3b82f6"/>
      <text x="1135" y="263" font-family="Arial, sans-serif" font-size="10" fill="#ffffff">관리</text>
      <rect x="1170" y="250" width="40" height="20" rx="4" fill="#6b7280"/>
      <text x="1185" y="263" font-family="Arial, sans-serif" font-size="10" fill="#ffffff">로그</text>
      
      <!-- Row 8 -->
      <rect x="0" y="280" width="1352" height="40" fill="#f9fafb"/>
      <text x="20" y="305" font-family="Arial, sans-serif" font-size="12" fill="#374151">☐</text>
      <text x="60" y="305" font-family="Arial, sans-serif" font-size="12" fill="#1f2937">8</text>
      <text x="120" y="305" font-family="Arial, sans-serif" font-size="12" fill="#1f2937">DR-2024-0149</text>
      <text x="240" y="305" font-family="Arial, sans-serif" font-size="12" fill="#1f2937">뉴스_읽기_v3.1</text>
      <text x="380" y="305" font-family="Arial, sans-serif" font-size="12" fill="#1f2937">v.3.1.2</text>
      <text x="480" y="305" font-family="Arial, sans-serif" font-size="12" fill="#1f2937">스테이징환경</text>
      <text x="580" y="305" font-family="Arial, sans-serif" font-size="12" fill="#1f2937">8087</text>
      <rect x="680" y="290" width="60" height="20" rx="10" fill="#dbeafe"/>
      <text x="690" y="303" font-family="Arial, sans-serif" font-size="10" fill="#1e40af">요청대기</text>
      <text x="780" y="305" font-family="Arial, sans-serif" font-size="12" fill="#1f2937">2024-01-11 09:45</text>
      <text x="920" y="305" font-family="Arial, sans-serif" font-size="12" fill="#1f2937">장민호</text>
      <circle cx="1050" cy="300" r="8" fill="none" stroke="#6b7280" stroke-width="1"/>
      <path d="M1046 296 L1050 300 L1054 296" stroke="#6b7280" stroke-width="1.5" fill="none"/>
      <rect x="1120" y="290" width="40" height="20" rx="4" fill="#3b82f6"/>
      <text x="1135" y="303" font-family="Arial, sans-serif" font-size="10" fill="#ffffff">관리</text>
      <rect x="1170" y="290" width="40" height="20" rx="4" fill="#6b7280"/>
      <text x="1185" y="303" font-family="Arial, sans-serif" font-size="10" fill="#ffffff">로그</text>
      
      <!-- Row 9 -->
      <rect x="0" y="320" width="1352" height="40" fill="#ffffff"/>
      <text x="20" y="345" font-family="Arial, sans-serif" font-size="12" fill="#374151">☐</text>
      <text x="60" y="345" font-family="Arial, sans-serif" font-size="12" fill="#1f2937">9</text>
      <text x="120" y="345" font-family="Arial, sans-serif" font-size="12" fill="#1f2937">DR-2024-0148</text>
      <text x="240" y="345" font-family="Arial, sans-serif" font-size="12" fill="#1f2937">여행_추천_v1.4</text>
      <text x="380" y="345" font-family="Arial, sans-serif" font-size="12" fill="#1f2937">v.1.4.1</text>
      <text x="480" y="345" font-family="Arial, sans-serif" font-size="12" fill="#1f2937">개발환경</text>
      <text x="580" y="345" font-family="Arial, sans-serif" font-size="12" fill="#1f2937">8088</text>
      <rect x="680" y="330" width="60" height="20" rx="10" fill="#fee2e2"/>
      <text x="690" y="343" font-family="Arial, sans-serif" font-size="10" fill="#991b1b">배포실패</text>
      <text x="780" y="345" font-family="Arial, sans-serif" font-size="12" fill="#1f2937">2024-01-10 14:15</text>
      <text x="920" y="345" font-family="Arial, sans-serif" font-size="12" fill="#1f2937">신예은</text>
      <circle cx="1050" cy="340" r="8" fill="none" stroke="#6b7280" stroke-width="1"/>
      <path d="M1046 336 L1050 340 L1054 336" stroke="#6b7280" stroke-width="1.5" fill="none"/>
      <rect x="1120" y="330" width="40" height="20" rx="4" fill="#3b82f6"/>
      <text x="1135" y="343" font-family="Arial, sans-serif" font-size="10" fill="#ffffff">관리</text>
      <rect x="1170" y="330" width="40" height="20" rx="4" fill="#6b7280"/>
      <text x="1185" y="343" font-family="Arial, sans-serif" font-size="10" fill="#ffffff">로그</text>
      
      <!-- Row 10 -->
      <rect x="0" y="360" width="1352" height="40" fill="#f9fafb"/>
      <text x="20" y="385" font-family="Arial, sans-serif" font-size="12" fill="#374151">☐</text>
      <text x="60" y="385" font-family="Arial, sans-serif" font-size="12" fill="#1f2937">10</text>
      <text x="120" y="385" font-family="Arial, sans-serif" font-size="12" fill="#1f2937">DR-2024-0147</text>
      <text x="240" y="385" font-family="Arial, sans-serif" font-size="12" fill="#1f2937">보험_상담_v2.0</text>
      <text x="380" y="385" font-family="Arial, sans-serif" font-size="12" fill="#1f2937">v.2.0.0</text>
      <text x="480" y="385" font-family="Arial, sans-serif" font-size="12" fill="#1f2937">운영환경</text>
      <text x="580" y="385" font-family="Arial, sans-serif" font-size="12" fill="#1f2937">8089</text>
      <rect x="680" y="370" width="60" height="20" rx="10" fill="#dcfce7"/>
      <text x="695" y="383" font-family="Arial, sans-serif" font-size="10" fill="#166534">배포완료</text>
      <text x="780" y="385" font-family="Arial, sans-serif" font-size="12" fill="#1f2937">2024-01-09 11:30</text>
      <text x="920" y="385" font-family="Arial, sans-serif" font-size="12" fill="#1f2937">윤태현</text>
      <circle cx="1050" cy="380" r="8" fill="none" stroke="#6b7280" stroke-width="1"/>
      <path d="M1046 376 L1050 380 L1054 376" stroke="#6b7280" stroke-width="1.5" fill="none"/>
      <rect x="1120" y="370" width="40" height="20" rx="4" fill="#3b82f6"/>
      <text x="1135" y="383" font-family="Arial, sans-serif" font-size="10" fill="#ffffff">관리</text>
      <rect x="1170" y="370" width="40" height="20" rx="4" fill="#6b7280"/>
      <text x="1185" y="383" font-family="Arial, sans-serif" font-size="10" fill="#ffffff">로그</text>
    </g>
  </g>
  
  <!-- Pagination -->
  <g transform="translate(24, 870)">
    <text x="0" y="15" font-family="Arial, sans-serif" font-size="12" fill="#6b7280">1-10 of 156 결과</text>
    
    <!-- Items per page -->
    <text x="200" y="15" font-family="Arial, sans-serif" font-size="12" fill="#6b7280">페이지당</text>
    <rect x="260" y="0" width="60" height="20" rx="4" fill="#ffffff" stroke="#d1d5db"/>
    <text x="280" y="13" font-family="Arial, sans-serif" font-size="12" fill="#1f2937">10</text>
    <text x="330" y="15" font-family="Arial, sans-serif" font-size="12" fill="#6b7280">개</text>
    
    <!-- Page numbers -->
    <rect x="1200" y="0" width="30" height="20" rx="4" fill="#f3f4f6"/>
    <text x="1210" y="13" font-family="Arial, sans-serif" font-size="12" fill="#6b7280">‹</text>
    <rect x="1240" y="0" width="30" height="20" rx="4" fill="#3b82f6"/>
    <text x="1252" y="13" font-family="Arial, sans-serif" font-size="12" fill="#ffffff">1</text>
    <rect x="1280" y="0" width="30" height="20" rx="4" fill="#f3f4f6"/>
    <text x="1292" y="13" font-family="Arial, sans-serif" font-size="12" fill="#6b7280">2</text>
    <rect x="1320" y="0" width="30" height="20" rx="4" fill="#f3f4f6"/>
    <text x="1330" y="13" font-family="Arial, sans-serif" font-size="12" fill="#6b7280">›</text>
  </g>
</svg>
