<svg width="1200" height="900" viewBox="0 0 1200 900" fill="none" xmlns="http://www.w3.org/2000/svg">
  <!-- Background -->
  <rect width="1200" height="900" fill="#f5f5f5"/>
  
  <!-- Top Red Alert Banner -->
  <rect x="0" y="0" width="1200" height="45" fill="#e74c3c"/>
  <text x="960" y="25" font-family="Arial, sans-serif" font-size="12" fill="#ffffff">시스템 오류가 발생했습니다. 페이지를 새로고침해주세요.</text>
  <text x="1150" y="25" font-family="Arial, sans-serif" font-size="16" fill="#ffffff">×</text>
  
  <!-- Left Sidebar -->
  <rect x="0" y="45" width="200" height="855" fill="#ffffff" stroke="#e0e0e0"/>
  
  <!-- Sidebar Header -->
  <g transform="translate(15, 60)">
    <circle cx="12" cy="12" r="12" fill="#2196f3"/>
    <text x="15" y="8" font-family="Arial, sans-serif" font-size="8" font-weight="600" fill="#ffffff">AMP</text>
    <text x="30" y="10" font-family="Arial, sans-serif" font-size="11" font-weight="600" fill="#333">AI Model</text>
    <text x="30" y="22" font-family="Arial, sans-serif" font-size="11" fill="#333">Platform</text>
  </g>
  
  <!-- Sidebar Menu -->
  <g transform="translate(0, 110)">
    <!-- 대시보드 -->
    <text x="15" y="15" font-family="Arial, sans-serif" font-size="11" font-weight="500" fill="#666">대시보드</text>
    
    <g transform="translate(0, 25)">
      <text x="30" y="15" font-family="Arial, sans-serif" font-size="11" fill="#333">🏠 통계대시보드</text>
    </g>
    
    <g transform="translate(0, 45)">
      <text x="30" y="15" font-family="Arial, sans-serif" font-size="11" fill="#333">📊 통계 관리</text>
    </g>
    
    <g transform="translate(0, 65)">
      <text x="30" y="15" font-family="Arial, sans-serif" font-size="11" fill="#333">🔧 작업 설정</text>
    </g>
    
    <!-- STT 서비스 -->
    <text x="15" y="105" font-family="Arial, sans-serif" font-size="11" font-weight="500" fill="#666">STT 서비스</text>
    
    <g transform="translate(0, 120)">
      <rect x="10" y="3" width="180" height="25" rx="4" fill="#4a5568"/>
      <text x="30" y="18" font-family="Arial, sans-serif" font-size="11" fill="#ffffff">📚 학습 관리</text>
    </g>
    
    <g transform="translate(0, 150)">
      <text x="30" y="15" font-family="Arial, sans-serif" font-size="11" fill="#333">🚀 배포 관리</text>
    </g>
    
    <g transform="translate(0, 170)">
      <text x="30" y="15" font-family="Arial, sans-serif" font-size="11" fill="#333">✅ 검증 관리</text>
    </g>
    
    <g transform="translate(0, 190)">
      <text x="30" y="15" font-family="Arial, sans-serif" font-size="11" fill="#333">🧪 테스트 관리</text>
    </g>
    
    <!-- AI 서비스 -->
    <text x="15" y="230" font-family="Arial, sans-serif" font-size="11" font-weight="500" fill="#666">AI 서비스</text>
    
    <g transform="translate(0, 245)">
      <text x="30" y="15" font-family="Arial, sans-serif" font-size="11" fill="#333">🎙️ TTS 관리</text>
    </g>
    
    <g transform="translate(0, 265)">
      <text x="30" y="15" font-family="Arial, sans-serif" font-size="11" fill="#333">👥 챗봇 관리</text>
    </g>
    
    <g transform="translate(0, 285)">
      <text x="30" y="15" font-family="Arial, sans-serif" font-size="11" fill="#333">📄 다국어 자원</text>
    </g>
    
    <!-- 시스템 관리 -->
    <text x="15" y="325" font-family="Arial, sans-serif" font-size="11" font-weight="500" fill="#666">시스템 관리</text>
    
    <g transform="translate(0, 340)">
      <text x="30" y="15" font-family="Arial, sans-serif" font-size="11" fill="#333">👥 사용자 관리</text>
    </g>
    
    <g transform="translate(0, 360)">
      <text x="30" y="15" font-family="Arial, sans-serif" font-size="11" fill="#333">🏷️ 라이선스 관리</text>
      <circle cx="165" cy="12" r="4" fill="#e74c3c"/>
    </g>
    
    <g transform="translate(0, 380)">
      <text x="30" y="15" font-family="Arial, sans-serif" font-size="11" fill="#333">📊 프로젝트 관리</text>
    </g>
    
    <g transform="translate(0, 400)">
      <text x="30" y="15" font-family="Arial, sans-serif" font-size="11" fill="#333">🔗 권한 관리</text>
    </g>
    
    <!-- 설정 -->
    <text x="15" y="440" font-family="Arial, sans-serif" font-size="11" font-weight="500" fill="#666">설정</text>
    
    <g transform="translate(0, 455)">
      <text x="30" y="15" font-family="Arial, sans-serif" font-size="11" fill="#333">⚙️ 시스템 설정</text>
    </g>
    
    <g transform="translate(0, 475)">
      <text x="30" y="15" font-family="Arial, sans-serif" font-size="11" fill="#333">🔔 알림 설정</text>
    </g>
    
    <g transform="translate(0, 495)">
      <text x="30" y="15" font-family="Arial, sans-serif" font-size="11" fill="#333">📊 모니터</text>
    </g>
  </g>
  
  <!-- Top Navigation Bar -->
  <g transform="translate(200, 45)">
    <rect x="0" y="0" width="1000" height="50" fill="#ffffff" stroke="#e0e0e0"/>
    
    <!-- Hamburger Menu -->
    <g transform="translate(15, 15)">
      <rect x="0" y="5" width="20" height="2" fill="#666"/>
      <rect x="0" y="10" width="20" height="2" fill="#666"/>
      <rect x="0" y="15" width="20" height="2" fill="#666"/>
    </g>
    
    <!-- Breadcrumb -->
    <text x="50" y="30" font-family="Arial, sans-serif" font-size="12" fill="#666">/ STT 통합 워크플로우</text>
    
    <!-- Search and Controls -->
    <g transform="translate(650, 10)">
      <!-- Search -->
      <rect x="0" y="0" width="200" height="30" rx="15" fill="#f5f5f5" stroke="#e0e0e0"/>
      <text x="15" y="20" font-family="Arial, sans-serif" font-size="11" fill="#999">🔍 검색어를</text>
      
      <!-- User Menu -->
      <circle cx="230" cy="15" r="15" fill="#2196f3"/>
      <text x="225" y="19" font-family="Arial, sans-serif" font-size="10" font-weight="600" fill="#ffffff">사용자</text>
    </g>
  </g>
  
  <!-- Main Content Area -->
  <g transform="translate(200, 95)">
    <!-- Main Title -->
    <rect x="0" y="0" width="1000" height="180" fill="#ffffff" stroke="#e0e0e0"/>
    
    <!-- Title and Buttons -->
    <g transform="translate(30, 30)">
      <text x="0" y="25" font-family="Arial, sans-serif" font-size="18" font-weight="600" fill="#333">STT 통합 워크플로우</text>
      <text x="0" y="45" font-family="Arial, sans-serif" font-size="12" fill="#666">학습부터 테스트까지 모든 과정을 한 곳에서 관리하세요</text>
      
      <!-- Action Buttons -->
      <g transform="translate(750, 10)">
        <rect x="0" y="0" width="70" height="30" rx="5" fill="#ffffff" stroke="#ddd"/>
        <text x="25" y="20" font-family="Arial, sans-serif" font-size="11" fill="#333">📥 내보내기</text>
        
        <rect x="80" y="0" width="50" height="30" rx="5" fill="#2196f3"/>
        <text x="95" y="20" font-family="Arial, sans-serif" font-size="11" fill="#ffffff">📊 현황</text>
        
        <rect x="140" y="0" width="70" height="30" rx="5" fill="#4caf50"/>
        <text x="165" y="20" font-family="Arial, sans-serif" font-size="11" fill="#ffffff">🚀 복제 시작</text>
      </g>
    </g>
    
    <!-- Workflow Steps -->
    <g transform="translate(50, 85)">
      <!-- Step 1: 학습 관리 -->
      <g>
        <circle cx="25" cy="25" r="20" fill="#cbd5e0"/>
        <text x="20" y="30" font-family="Arial, sans-serif" font-size="12" fill="#666">📚</text>
        <text x="0" y="55" font-family="Arial, sans-serif" font-size="12" font-weight="500" fill="#333">학습 관리</text>
        <text x="12" y="70" font-family="Arial, sans-serif" font-size="10" fill="#666">대기중</text>
        
        <!-- Arrow -->
        <path d="M 50 25 L 100 25" stroke="#ddd" stroke-width="2" marker-end="url(#arrowhead)"/>
      </g>
      
      <!-- Step 2: 배포 관리 -->
      <g transform="translate(150, 0)">
        <circle cx="25" cy="25" r="20" fill="#cbd5e0"/>
        <text x="20" y="30" font-family="Arial, sans-serif" font-size="12" fill="#666">🚀</text>
        <text x="0" y="55" font-family="Arial, sans-serif" font-size="12" font-weight="500" fill="#333">배포 관리</text>
        <text x="12" y="70" font-family="Arial, sans-serif" font-size="10" fill="#666">대기중</text>
        
        <!-- Arrow -->
        <path d="M 50 25 L 100 25" stroke="#ddd" stroke-width="2" marker-end="url(#arrowhead)"/>
      </g>
      
      <!-- Step 3: 검증 관리 -->
      <g transform="translate(300, 0)">
        <circle cx="25" cy="25" r="20" fill="#cbd5e0"/>
        <text x="20" y="30" font-family="Arial, sans-serif" font-size="12" fill="#666">✅</text>
        <text x="0" y="55" font-family="Arial, sans-serif" font-size="12" font-weight="500" fill="#333">검증 관리</text>
        <text x="12" y="70" font-family="Arial, sans-serif" font-size="10" fill="#666">대기중</text>
        
        <!-- Arrow -->
        <path d="M 50 25 L 100 25" stroke="#ddd" stroke-width="2" marker-end="url(#arrowhead)"/>
      </g>
      
      <!-- Step 4: 테스트 관리 -->
      <g transform="translate(450, 0)">
        <circle cx="25" cy="25" r="20" fill="#cbd5e0"/>
        <text x="18" y="30" font-family="Arial, sans-serif" font-size="12" fill="#666">🧪</text>
        <text x="0" y="55" font-family="Arial, sans-serif" font-size="12" font-weight="500" fill="#333">테스트 관리</text>
        <text x="12" y="70" font-family="Arial, sans-serif" font-size="10" fill="#666">대기중</text>
      </g>
    </g>
  </g>
  
  <!-- Main Content Card -->
  <g transform="translate(230, 295)">
    <rect x="0" y="0" width="940" height="580" rx="8" fill="#ffffff" stroke="#e0e0e0"/>
    
    <!-- Card Header -->
    <g transform="translate(30, 30)">
      <circle cx="10" cy="10" r="8" fill="#e91e63"/>
      <text x="25" y="8" font-family="Arial, sans-serif" font-size="14" font-weight="600" fill="#333">학습 관리</text>
      <text x="25" y="22" font-family="Arial, sans-serif" font-size="11" fill="#666">Fine Tuning 데이터와 Biasing Code를 관리하여 학습을 진행하세요</text>
      
      <!-- Buttons -->
      <g transform="translate(500, -5)">
        <rect x="0" y="0" width="80" height="25" rx="4" fill="#2196f3"/>
        <text x="20" y="16" font-family="Arial, sans-serif" font-size="10" fill="#ffffff">📝 새로 등록</text>
        
        <rect x="90" y="0" width="60" height="25" rx="4" fill="#6c757d"/>
        <text x="110" y="16" font-family="Arial, sans-serif" font-size="10" fill="#ffffff">📊 학습 시작</text>
      </g>
    </g>
    
    <!-- Tabs -->
    <g transform="translate(30, 70)">
      <text x="0" y="20" font-family="Arial, sans-serif" font-size="12" fill="#666">모니터링</text>
      <text x="100" y="20" font-family="Arial, sans-serif" font-size="12" font-weight="600" fill="#333">Fine Tuning 데이터</text>
      <rect x="95" y="25" width="120" height="2" fill="#e91e63"/>
      <text x="250" y="20" font-family="Arial, sans-serif" font-size="12" fill="#666">Biasing Code 데이터</text>
    </g>
    
    <!-- Filter Section -->
    <g transform="translate(30, 120)">
      <text x="0" y="15" font-family="Arial, sans-serif" font-size="11" font-weight="500" fill="#666">모델타입</text>
      <rect x="0" y="20" width="80" height="25" rx="4" fill="#ffffff" stroke="#ddd"/>
      <text x="10" y="35" font-family="Arial, sans-serif" font-size="11" fill="#333">전체</text>
      
      <text x="100" y="15" font-family="Arial, sans-serif" font-size="11" font-weight="500" fill="#666">서비스 모델</text>
      <rect x="100" y="20" width="80" height="25" rx="4" fill="#ffffff" stroke="#ddd"/>
      <text x="110" y="35" font-family="Arial, sans-serif" font-size="11" fill="#333">전체</text>
      
      <text x="200" y="15" font-family="Arial, sans-serif" font-size="11" font-weight="500" fill="#666">정렬자 데이터셋</text>
      <rect x="200" y="20" width="150" height="25" rx="4" fill="#ffffff" stroke="#ddd"/>
      <text x="210" y="35" font-family="Arial, sans-serif" font-size="11" fill="#999">정렬자 데이터셋을 검색...</text>
      
      <text x="370" y="15" font-family="Arial, sans-serif" font-size="11" font-weight="500" fill="#666">작성자</text>
      <rect x="370" y="20" width="100" height="25" rx="4" fill="#ffffff" stroke="#ddd"/>
      <text x="380" y="35" font-family="Arial, sans-serif" font-size="11" fill="#999">작성자 검색...</text>
      
      <text x="490" y="15" font-family="Arial, sans-serif" font-size="11" font-weight="500" fill="#666">상태</text>
      <rect x="490" y="20" width="60" height="25" rx="4" fill="#ffffff" stroke="#ddd"/>
      <text x="500" y="35" font-family="Arial, sans-serif" font-size="11" fill="#333">선택</text>
      
      <text x="570" y="15" font-family="Arial, sans-serif" font-size="11" font-weight="500" fill="#666">등록일</text>
      <rect x="570" y="20" width="80" height="25" rx="4" fill="#ffffff" stroke="#ddd"/>
      <text x="580" y="35" font-family="Arial, sans-serif" font-size="11" fill="#333">전체 ▼</text>
      
      <rect x="670" y="20" width="40" height="25" rx="4" fill="#4caf50"/>
      <text x="685" y="35" font-family="Arial, sans-serif" font-size="11" fill="#ffffff">검색</text>
    </g>
    
    <!-- Action Buttons -->
    <g transform="translate(30, 170)">
      <rect x="0" y="0" width="60" height="25" rx="4" fill="#2196f3"/>
      <text x="20" y="16" font-family="Arial, sans-serif" font-size="10" fill="#ffffff">+ 등록</text>
      
      <rect x="70" y="0" width="70" height="25" rx="4" fill="#6c757d"/>
      <text x="90" y="16" font-family="Arial, sans-serif" font-size="10" fill="#ffffff">⚙️ 일괄 수정</text>
      
      <rect x="150" y="0" width="60" height="25" rx="4" fill="#6c757d"/>
      <text x="170" y="16" font-family="Arial, sans-serif" font-size="10" fill="#ffffff">🗑️ 삭제 선택</text>
    </g>
    
    <!-- Results Info -->
    <g transform="translate(30, 210)">
      <text x="0" y="15" font-family="Arial, sans-serif" font-size="11" fill="#666">총 15개 결과</text>
      <text x="100" y="15" font-family="Arial, sans-serif" font-size="11" fill="#666">선택한 항목: 0개</text>
      <text x="200" y="15" font-family="Arial, sans-serif" font-size="11" fill="#666">페이지 1 / 2</text>
      
      <text x="650" y="15" font-family="Arial, sans-serif" font-size="11" fill="#666">페이지당 표시:</text>
      <rect x="730" y="5" width="40" height="20" rx="4" fill="#ffffff" stroke="#ddd"/>
      <text x="742" y="17" font-family="Arial, sans-serif" font-size="10" fill="#333">10 ▼</text>
    </g>
    
    <!-- Data Table -->
    <g transform="translate(30, 240)">
      <!-- Table Header -->
      <rect x="0" y="0" width="880" height="35" fill="#f8f9fa"/>
      <text x="15" y="22" font-family="Arial, sans-serif" font-size="11" font-weight="600" fill="#333">□</text>
      <text x="50" y="22" font-family="Arial, sans-serif" font-size="11" font-weight="600" fill="#333">NO.</text>
      <text x="90" y="22" font-family="Arial, sans-serif" font-size="11" font-weight="600" fill="#333">서비스 모델</text>
      <text x="180" y="22" font-family="Arial, sans-serif" font-size="11" font-weight="600" fill="#333">모델명</text>
      <text x="300" y="22" font-family="Arial, sans-serif" font-size="11" font-weight="600" fill="#333">BIASING CODE</text>
      <text x="420" y="22" font-family="Arial, sans-serif" font-size="11" font-weight="600" fill="#333">모델 ID</text>
      <text x="520" y="22" font-family="Arial, sans-serif" font-size="11" font-weight="600" fill="#333">학습데이터 양</text>
      <text x="630" y="22" font-family="Arial, sans-serif" font-size="11" font-weight="600" fill="#333">상태</text>
      <text x="700" y="22" font-family="Arial, sans-serif" font-size="11" font-weight="600" fill="#333">작성일</text>
      <text x="780" y="22" font-family="Arial, sans-serif" font-size="11" font-weight="600" fill="#333">액션</text>
      
      <!-- Table Rows -->
      <g transform="translate(0, 35)">
        <!-- Row 1 -->
        <rect x="0" y="0" width="880" height="40" fill="#ffffff" stroke="#f0f0f0"/>
        <text x="15" y="25" font-family="Arial, sans-serif" font-size="11" fill="#333">☑</text>
        <text x="50" y="25" font-family="Arial, sans-serif" font-size="11" fill="#333">7</text>
        <text x="90" y="25" font-family="Arial, sans-serif" font-size="11" fill="#333">금융</text>
        <text x="180" y="25" font-family="Arial, sans-serif" font-size="11" fill="#333">키워드 보드 스캐닝</text>
        <text x="300" y="25" font-family="Arial, sans-serif" font-size="11" fill="#333">100</text>
        <text x="420" y="25" font-family="Arial, sans-serif" font-size="11" fill="#333">중국복합넥일대브 브랜드</text>
        <text x="520" y="25" font-family="Arial, sans-serif" font-size="11" fill="#333">공급 2025-08-13 10:46:46.320</text>
        <rect x="630" y="8" width="50" height="20" rx="10" fill="#4caf50"/>
        <text x="645" y="20" font-family="Arial, sans-serif" font-size="9" fill="#ffffff">TRAINING</text>
        <text x="700" y="25" font-family="Arial, sans-serif" font-size="11" fill="#333">2025-08-13 10:46:19</text>
        <circle cx="750" cy="20" r="8" fill="none" stroke="#666" stroke-width="1"/>
        <path d="M746 16 L750 20 L754 16" stroke="#666" stroke-width="1" fill="none"/>
        <rect x="770" y="10" width="30" height="18" rx="3" fill="#2196f3"/>
        <text x="780" y="21" font-family="Arial, sans-serif" font-size="8" fill="#ffffff">저장</text>
        <rect x="810" y="10" width="30" height="18" rx="3" fill="#6c757d"/>
        <text x="820" y="21" font-family="Arial, sans-serif" font-size="8" fill="#ffffff">상세</text>
        
        <!-- Row 2 -->
        <rect x="0" y="40" width="880" height="40" fill="#f9f9f9" stroke="#f0f0f0"/>
        <text x="15" y="65" font-family="Arial, sans-serif" font-size="11" fill="#333">☐</text>
        <text x="50" y="65" font-family="Arial, sans-serif" font-size="11" fill="#333">6</text>
        <text x="90" y="65" font-family="Arial, sans-serif" font-size="11" fill="#333">금융</text>
        <text x="180" y="65" font-family="Arial, sans-serif" font-size="11" fill="#333">음성 모델</text>
        <text x="300" y="65" font-family="Arial, sans-serif" font-size="11" fill="#333">해악버전</text>
        <text x="420" y="65" font-family="Arial, sans-serif" font-size="11" fill="#333">vdfdafdfaid</text>
        <text x="520" y="65" font-family="Arial, sans-serif" font-size="11" fill="#333">공급 2025-08-13 10:41:24.202</text>
        <rect x="630" y="48" width="50" height="20" rx="10" fill="#4caf50"/>
        <text x="645" y="60" font-family="Arial, sans-serif" font-size="9" fill="#ffffff">TRAINING</text>
        <text x="700" y="65" font-family="Arial, sans-serif" font-size="11" fill="#333">2025-08-13 13:19:09</text>
        <circle cx="750" cy="60" r="8" fill="none" stroke="#666" stroke-width="1"/>
        <path d="M746 56 L750 60 L754 56" stroke="#666" stroke-width="1" fill="none"/>
        <rect x="770" y="50" width="30" height="18" rx="3" fill="#2196f3"/>
        <text x="780" y="61" font-family="Arial, sans-serif" font-size="8" fill="#ffffff">저장</text>
        <rect x="810" y="50" width="30" height="18" rx="3" fill="#6c757d"/>
        <text x="820" y="61" font-family="Arial, sans-serif" font-size="8" fill="#ffffff">상세</text>
        
        <!-- Additional rows with similar pattern... -->
        <rect x="0" y="80" width="880" height="40" fill="#ffffff" stroke="#f0f0f0"/>
        <text x="15" y="105" font-family="Arial, sans-serif" font-size="11" fill="#333">☐</text>
        <text x="50" y="105" font-family="Arial, sans-serif" font-size="11" fill="#333">5</text>
        <text x="90" y="105" font-family="Arial, sans-serif" font-size="11" fill="#333">금융</text>
        <text x="180" y="105" font-family="Arial, sans-serif" font-size="11" fill="#333">음성 모델</text>
        <text x="300" y="105" font-family="Arial, sans-serif" font-size="11" fill="#333">해악버전</text>
        <text x="420" y="105" font-family="Arial, sans-serif" font-size="11" fill="#333">음성학습001</text>
        <text x="520" y="105" font-family="Arial, sans-serif" font-size="11" fill="#333">공급 2025-08-13 10:05:38.906</text>
        <rect x="630" y="88" width="50" height="20" rx="10" fill="#6c757d"/>
        <text x="640" y="100" font-family="Arial, sans-serif" font-size="9" fill="#ffffff">COMPLETE</text>
        <text x="700" y="105" font-family="Arial, sans-serif" font-size="11" fill="#333">2025-08-13 10:05:11</text>
        <circle cx="750" cy="100" r="8" fill="none" stroke="#666" stroke-width="1"/>
        <path d="M746 96 L750 100 L754 96" stroke="#666" stroke-width="1" fill="none"/>
        <rect x="770" y="90" width="30" height="18" rx="3" fill="#2196f3"/>
        <text x="780" y="101" font-family="Arial, sans-serif" font-size="8" fill="#ffffff">저장</text>
        <rect x="810" y="90" width="30" height="18" rx="3" fill="#6c757d"/>
        <text x="820" y="101" font-family="Arial, sans-serif" font-size="8" fill="#ffffff">상세</text>
      </g>
    </g>
    
    <!-- Pagination -->
    <g transform="translate(30, 500)">
      <rect x="700" y="0" width="25" height="25" rx="4" fill="#f0f0f0"/>
      <text x="710" y="16" font-family="Arial, sans-serif" font-size="11" fill="#666">◀</text>
      
      <rect x="730" y="0" width="25" height="25" rx="4" fill="#2196f3"/>
      <text x="740" y="16" font-family="Arial, sans-serif" font-size="11" fill="#ffffff">1</text>
      
      <rect x="760" y="0" width="25" height="25" rx="4" fill="#f0f0f0"/>
      <text x="770" y="16" font-family="Arial, sans-serif" font-size="11" fill="#666">2</text>
      
      <rect x="790" y="0" width="25" height="25" rx="4" fill="#f0f0f0"/>
      <text x="800" y="16" font-family="Arial, sans-serif" font-size="11" fill="#666">3</text>
      
      <rect x="820" y="0" width="25" height="25" rx="4" fill="#f0f0f0"/>
      <text x="830" y="16" font-family="Arial, sans-serif" font-size="11" fill="#666">▶</text>
    </g>
  </g>
  
  <!-- Arrow Marker Definition -->
  <defs>
    <marker id="arrowhead" markerWidth="10" markerHeight="7" 
     refX="9" refY="3.5" orient="auto">
      <polygon points="0 0, 10 3.5, 0 7" fill="#ddd"/>
    </marker>
  </defs>
</svg>
