<?xml version="1.0" encoding="UTF-8"?>
<svg width="1600" height="1200" viewBox="0 0 1600 1200" xmlns="http://www.w3.org/2000/svg">
  <defs>
    <!-- 그라데이션 정의 -->
    <linearGradient id="backgroundGradient" x1="0%" y1="0%" x2="100%" y2="100%">
      <stop offset="0%" style="stop-color:#667eea;stop-opacity:1" />
      <stop offset="100%" style="stop-color:#764ba2;stop-opacity:1" />
    </linearGradient>
    
    <linearGradient id="cardHeaderGradient" x1="0%" y1="0%" x2="100%" y2="100%">
      <stop offset="0%" style="stop-color:#6b7280;stop-opacity:1" />
      <stop offset="100%" style="stop-color:#4b5563;stop-opacity:1" />
    </linearGradient>
    
    <!-- 그림자 필터 -->
    <filter id="cardShadow" x="-20%" y="-20%" width="140%" height="140%">
      <feDropShadow dx="0" dy="4" stdDeviation="6" flood-opacity="0.1"/>
    </filter>
    
    <filter id="headerShadow" x="-20%" y="-20%" width="140%" height="140%">
      <feDropShadow dx="0" dy="10" stdDeviation="15" flood-opacity="0.1"/>
    </filter>
  </defs>
  
  <!-- 배경 -->
  <rect width="1600" height="1200" fill="url(#backgroundGradient)"/>
  
  <!-- 헤더 -->
  <g id="header" filter="url(#headerShadow)">
    <rect x="20" y="20" width="1560" height="80" rx="12" fill="rgba(255,255,255,0.95)" stroke="rgba(255,255,255,0.2)"/>
    <text x="40" y="50" font-family="Pretendard, sans-serif" font-size="24" font-weight="700" fill="#1e293b">공통 설정</text>
    <text x="40" y="75" font-family="Pretendard, sans-serif" font-size="12" fill="#64748b">rapeech-cpod KT-STT 4.0 › 설정 › 공통 설정</text>
  </g>
  
  <!-- 왼쪽 컬럼 -->
  <g id="leftColumn">
    <!-- Agent 관련 설정 -->
    <g id="agentSettings" filter="url(#cardShadow)">
      <rect x="20" y="120" width="770" height="200" rx="12" fill="rgba(255,255,255,0.95)" stroke="rgba(255,255,255,0.2)"/>
      <rect x="20" y="120" width="770" height="50" rx="12" fill="url(#cardHeaderGradient)"/>
      <rect x="20" y="158" width="770" height="12" fill="url(#cardHeaderGradient)"/>
      <text x="40" y="145" font-family="Pretendard, sans-serif" font-size="16" font-weight="600" fill="white">🖥️ Agent 관련 설정</text>
      
      <!-- 되돌리기 버튼 -->
      <rect x="620" y="130" width="70" height="30" rx="4" fill="rgba(255,255,255,0.2)" stroke="rgba(255,255,255,0.3)"/>
      <text x="635" y="148" font-family="Pretendard, sans-serif" font-size="11" font-weight="500" fill="#374151">↶ 되돌리기</text>
      
      <!-- 저장 버튼 -->
      <rect x="700" y="130" width="70" height="30" rx="4" fill="rgba(255,255,255,0.2)" stroke="rgba(255,255,255,0.3)"/>
      <text x="720" y="148" font-family="Pretendard, sans-serif" font-size="11" font-weight="500" fill="#374151">💾 저장</text>
      
      <!-- 개발 서버 섹션 -->
      <text x="40" y="190" font-family="Pretendard, sans-serif" font-size="14" font-weight="600" fill="#1e293b">🔧 개발 서버</text>
      <rect x="40" y="200" width="120" height="30" rx="4" fill="#f8fafc" stroke="#e2e8f0"/>
      <text x="45" y="218" font-family="Pretendard, sans-serif" font-size="12" fill="#64748b">구분: 개발</text>
      <rect x="170" y="200" width="120" height="30" rx="4" fill="#ffffff" stroke="#e2e8f0"/>
      <text x="175" y="218" font-family="Pretendard, sans-serif" font-size="12" fill="#1e293b">HTTP</text>
      <rect x="300" y="200" width="180" height="30" rx="4" fill="#ffffff" stroke="#e2e8f0"/>
      <text x="305" y="218" font-family="Pretendard, sans-serif" font-size="12" fill="#94a3b8">192.168.1.100:8080</text>
      <rect x="490" y="200" width="150" height="30" rx="4" fill="#ffffff" stroke="#e2e8f0"/>
      <text x="495" y="218" font-family="Pretendard, sans-serif" font-size="12" fill="#94a3b8">서버명을 입력하세요</text>
      
      <!-- 운영 서버 섹션 -->
      <text x="40" y="260" font-family="Pretendard, sans-serif" font-size="14" font-weight="600" fill="#1e293b">☁️ 운영 서버</text>
      <rect x="40" y="270" width="120" height="30" rx="4" fill="#f8fafc" stroke="#e2e8f0"/>
      <text x="45" y="288" font-family="Pretendard, sans-serif" font-size="12" fill="#64748b">구분: 운영</text>
      <rect x="170" y="270" width="120" height="30" rx="4" fill="#ffffff" stroke="#e2e8f0"/>
      <text x="175" y="288" font-family="Pretendard, sans-serif" font-size="12" fill="#1e293b">HTTP</text>
      <rect x="300" y="270" width="180" height="30" rx="4" fill="#ffffff" stroke="#e2e8f0"/>
      <text x="305" y="288" font-family="Pretendard, sans-serif" font-size="12" fill="#94a3b8">192.168.1.200:8080</text>
      <rect x="490" y="270" width="150" height="30" rx="4" fill="#ffffff" stroke="#e2e8f0"/>
      <text x="495" y="288" font-family="Pretendard, sans-serif" font-size="12" fill="#94a3b8">서버명을 입력하세요</text>
    </g>
    
    <!-- 암호화 설정 -->
    <g id="encryptionSettings" filter="url(#cardShadow)">
      <rect x="20" y="350" width="770" height="120" rx="12" fill="rgba(255,255,255,0.95)" stroke="rgba(255,255,255,0.2)"/>
      <rect x="20" y="350" width="770" height="50" rx="12" fill="url(#cardHeaderGradient)"/>
      <rect x="20" y="388" width="770" height="12" fill="url(#cardHeaderGradient)"/>
      <text x="40" y="375" font-family="Pretendard, sans-serif" font-size="16" font-weight="600" fill="white">🔒 암호화 설정</text>
      
      <!-- 되돌리기 버튼 -->
      <rect x="620" y="360" width="70" height="30" rx="4" fill="rgba(255,255,255,0.2)" stroke="rgba(255,255,255,0.3)"/>
      <text x="635" y="378" font-family="Pretendard, sans-serif" font-size="11" font-weight="500" fill="#374151">↶ 되돌리기</text>
      
      <!-- 저장 버튼 -->
      <rect x="700" y="360" width="70" height="30" rx="4" fill="rgba(255,255,255,0.2)" stroke="rgba(255,255,255,0.3)"/>
      <text x="720" y="378" font-family="Pretendard, sans-serif" font-size="11" font-weight="500" fill="#374151">💾 저장</text>
      
      <text x="40" y="420" font-family="Pretendard, sans-serif" font-size="12" fill="#1e293b">텍스트 데이터 암호화 (STT결과, 전사, 검증)</text>
      <circle cx="50" cy="440" r="8" fill="#ffffff" stroke="#e2e8f0"/>
      <text x="70" y="445" font-family="Pretendard, sans-serif" font-size="12" fill="#1e293b">암호화</text>
      <circle cx="150" cy="440" r="8" fill="#14BBB3" stroke="#14BBB3"/>
      <circle cx="150" cy="440" r="4" fill="#ffffff"/>
      <text x="170" y="445" font-family="Pretendard, sans-serif" font-size="12" fill="#1e293b">안 함</text>
    </g>
    
    <!-- HW 리소스 임계치 설정 -->
    <g id="hwResourceSettings" filter="url(#cardShadow)">
      <rect x="20" y="500" width="770" height="140" rx="12" fill="rgba(255,255,255,0.95)" stroke="rgba(255,255,255,0.2)"/>
      <rect x="20" y="500" width="770" height="50" rx="12" fill="url(#cardHeaderGradient)"/>
      <rect x="20" y="538" width="770" height="12" fill="url(#cardHeaderGradient)"/>
      <text x="40" y="525" font-family="Pretendard, sans-serif" font-size="16" font-weight="600" fill="white">💾 HW 리소스 임계치 설정</text>
      
      <!-- 되돌리기 버튼 -->
      <rect x="620" y="510" width="70" height="30" rx="4" fill="rgba(255,255,255,0.2)" stroke="rgba(255,255,255,0.3)"/>
      <text x="635" y="528" font-family="Pretendard, sans-serif" font-size="11" font-weight="500" fill="#374151">↶ 되돌리기</text>
      
      <!-- 저장 버튼 -->
      <rect x="700" y="510" width="70" height="30" rx="4" fill="rgba(255,255,255,0.2)" stroke="rgba(255,255,255,0.3)"/>
      <text x="720" y="528" font-family="Pretendard, sans-serif" font-size="11" font-weight="500" fill="#374151">💾 저장</text>
      
      <text x="40" y="570" font-family="Pretendard, sans-serif" font-size="12" font-weight="500" fill="#1e293b">CPU 사용률 *</text>
      <rect x="40" y="580" width="100" height="30" rx="4" fill="#ffffff" stroke="#e2e8f0"/>
      <text x="45" y="598" font-family="Pretendard, sans-serif" font-size="12" fill="#94a3b8">0-100</text>
      <text x="150" y="598" font-family="Pretendard, sans-serif" font-size="12" fill="#64748b">%</text>
      
      <text x="200" y="570" font-family="Pretendard, sans-serif" font-size="12" font-weight="500" fill="#1e293b">메모리 사용률 *</text>
      <rect x="200" y="580" width="100" height="30" rx="4" fill="#ffffff" stroke="#e2e8f0"/>
      <text x="205" y="598" font-family="Pretendard, sans-serif" font-size="12" fill="#94a3b8">0-100</text>
      <text x="310" y="598" font-family="Pretendard, sans-serif" font-size="12" fill="#64748b">%</text>
      
      <text x="360" y="570" font-family="Pretendard, sans-serif" font-size="12" font-weight="500" fill="#1e293b">디스크 사용률 *</text>
      <rect x="360" y="580" width="100" height="30" rx="4" fill="#ffffff" stroke="#e2e8f0"/>
      <text x="365" y="598" font-family="Pretendard, sans-serif" font-size="12" fill="#94a3b8">0-100</text>
      <text x="470" y="598" font-family="Pretendard, sans-serif" font-size="12" fill="#64748b">%</text>
    </g>
    
    <!-- 연결 설정 -->
    <g id="connectionSettings" filter="url(#cardShadow)">
      <rect x="20" y="670" width="770" height="160" rx="12" fill="rgba(255,255,255,0.95)" stroke="rgba(255,255,255,0.2)"/>
      <rect x="20" y="670" width="770" height="50" rx="12" fill="url(#cardHeaderGradient)"/>
      <rect x="20" y="708" width="770" height="12" fill="url(#cardHeaderGradient)"/>
      <text x="40" y="695" font-family="Pretendard, sans-serif" font-size="16" font-weight="600" fill="white">🔗 연결 설정</text>
      
      <!-- 되돌리기 버튼 -->
      <rect x="620" y="680" width="70" height="30" rx="4" fill="rgba(255,255,255,0.2)" stroke="rgba(255,255,255,0.3)"/>
      <text x="635" y="698" font-family="Pretendard, sans-serif" font-size="11" font-weight="500" fill="#374151">↶ 되돌리기</text>
      
      <!-- 저장 버튼 -->
      <rect x="700" y="680" width="70" height="30" rx="4" fill="rgba(255,255,255,0.2)" stroke="rgba(255,255,255,0.3)"/>
      <text x="720" y="698" font-family="Pretendard, sans-serif" font-size="11" font-weight="500" fill="#374151">💾 저장</text>
      
      <text x="40" y="740" font-family="Pretendard, sans-serif" font-size="12" font-weight="500" fill="#1e293b">연결 타임아웃 *</text>
      <rect x="40" y="750" width="80" height="30" rx="4" fill="#ffffff" stroke="#e2e8f0"/>
      <text x="45" y="768" font-family="Pretendard, sans-serif" font-size="12" fill="#94a3b8">30</text>
      <text x="130" y="768" font-family="Pretendard, sans-serif" font-size="12" fill="#64748b">초</text>
      
      <text x="180" y="740" font-family="Pretendard, sans-serif" font-size="12" font-weight="500" fill="#1e293b">읽기 타임아웃 *</text>
      <rect x="180" y="750" width="80" height="30" rx="4" fill="#ffffff" stroke="#e2e8f0"/>
      <text x="185" y="768" font-family="Pretendard, sans-serif" font-size="12" fill="#94a3b8">60</text>
      <text x="270" y="768" font-family="Pretendard, sans-serif" font-size="12" fill="#64748b">초</text>
      
      <text x="320" y="740" font-family="Pretendard, sans-serif" font-size="12" font-weight="500" fill="#1e293b">최대 연결 수 *</text>
      <rect x="320" y="750" width="100" height="30" rx="4" fill="#ffffff" stroke="#e2e8f0"/>
      <text x="325" y="768" font-family="Pretendard, sans-serif" font-size="12" fill="#94a3b8">100</text>
      
      <text x="40" y="800" font-family="Pretendard, sans-serif" font-size="12" font-weight="500" fill="#1e293b">Keep-Alive 사용</text>
      <circle cx="50" cy="810" r="8" fill="#14BBB3" stroke="#14BBB3"/>
      <circle cx="50" cy="810" r="4" fill="#ffffff"/>
      <text x="70" y="815" font-family="Pretendard, sans-serif" font-size="12" fill="#1e293b">예</text>
      <circle cx="120" cy="810" r="8" fill="#ffffff" stroke="#e2e8f0"/>
      <text x="140" y="815" font-family="Pretendard, sans-serif" font-size="12" fill="#1e293b">아니오</text>
    </g>
  </g>
  
  <!-- 오른쪽 컬럼 -->
  <g id="rightColumn">
    <!-- 신뢰도 설정 -->
    <g id="confidenceSettings" filter="url(#cardShadow)">
      <rect x="810" y="120" width="770" height="400" rx="12" fill="rgba(255,255,255,0.95)" stroke="rgba(255,255,255,0.2)"/>
      <rect x="810" y="120" width="770" height="50" rx="12" fill="url(#cardHeaderGradient)"/>
      <rect x="810" y="158" width="770" height="12" fill="url(#cardHeaderGradient)"/>
      <text x="830" y="145" font-family="Pretendard, sans-serif" font-size="16" font-weight="600" fill="white">🧠 신뢰도 설정</text>
      <text x="1200" y="145" font-family="Pretendard, sans-serif" font-size="12" fill="rgba(255,255,255,0.8)">⚠️ 설정된 신뢰도 값을 가져오는 데에 실패했습니다.</text>
      
      <!-- 콜봇 섹션 -->
      <rect x="830" y="180" width="730" height="80" rx="6" fill="#f8fafc" stroke="#e2e8f0"/>
      <rect x="830" y="180" width="60" height="20" rx="3" fill="#14BBB3"/>
      <text x="835" y="193" font-family="Pretendard, sans-serif" font-size="12" font-weight="600" fill="white">콜봇</text>
      
      <text x="840" y="215" font-family="Pretendard, sans-serif" font-size="12" fill="#64748b">서비스 모델</text>
      <rect x="840" y="220" width="100" height="25" rx="4" fill="#f1f5f9" stroke="#e2e8f0"/>
      <text x="845" y="235" font-family="Pretendard, sans-serif" font-size="11" fill="#94a3b8">콜봇</text>
      
      <text x="960" y="215" font-family="Pretendard, sans-serif" font-size="12" fill="#1e293b">신뢰도 값 *</text>
      <rect x="960" y="220" width="100" height="25" rx="4" fill="#ffffff" stroke="#e2e8f0"/>
      <text x="965" y="235" font-family="Pretendard, sans-serif" font-size="11" fill="#94a3b8">0.0 ~ 1.0</text>
      
      <text x="1080" y="215" font-family="Pretendard, sans-serif" font-size="12" fill="#1e293b">암호화 유무</text>
      <circle cx="1090" cy="235" r="6" fill="#14BBB3" stroke="#14BBB3"/>
      <circle cx="1090" cy="235" r="3" fill="#ffffff"/>
      <text x="1105" y="238" font-family="Pretendard, sans-serif" font-size="11" fill="#1e293b">예</text>
      
      <rect x="1300" y="220" width="80" height="25" rx="3" fill="#2e7d32"/>
      <text x="1320" y="235" font-family="Pretendard, sans-serif" font-size="10" font-weight="500" fill="white">▶ 시작</text>
      <rect x="1390" y="220" width="80" height="25" rx="3" fill="#d32f2f"/>
      <text x="1410" y="235" font-family="Pretendard, sans-serif" font-size="10" font-weight="500" fill="white">⏸ 중지</text>
      <rect x="1480" y="220" width="80" height="25" rx="3" fill="#14BBB3"/>
      <text x="1500" y="235" font-family="Pretendard, sans-serif" font-size="10" font-weight="500" fill="white">💾 변경</text>
      
      <!-- 챗봇 섹션 -->
      <rect x="830" y="270" width="730" height="80" rx="6" fill="#f8fafc" stroke="#e2e8f0"/>
      <rect x="830" y="270" width="60" height="20" rx="3" fill="#14BBB3"/>
      <text x="835" y="283" font-family="Pretendard, sans-serif" font-size="12" font-weight="600" fill="white">챗봇</text>
      
      <text x="840" y="305" font-family="Pretendard, sans-serif" font-size="12" fill="#64748b">서비스 모델</text>
      <rect x="840" y="310" width="100" height="25" rx="4" fill="#f1f5f9" stroke="#e2e8f0"/>
      <text x="845" y="325" font-family="Pretendard, sans-serif" font-size="11" fill="#94a3b8">챗봇</text>
      
      <text x="960" y="305" font-family="Pretendard, sans-serif" font-size="12" fill="#1e293b">신뢰도 값 *</text>
      <rect x="960" y="310" width="100" height="25" rx="4" fill="#ffffff" stroke="#e2e8f0"/>
      <text x="965" y="325" font-family="Pretendard, sans-serif" font-size="11" fill="#94a3b8">0.0 ~ 1.0</text>
      
      <text x="1080" y="305" font-family="Pretendard, sans-serif" font-size="12" fill="#1e293b">암호화 유무</text>
      <circle cx="1090" cy="325" r="6" fill="#14BBB3" stroke="#14BBB3"/>
      <circle cx="1090" cy="325" r="3" fill="#ffffff"/>
      <text x="1105" y="328" font-family="Pretendard, sans-serif" font-size="11" fill="#1e293b">예</text>
      
      <rect x="1300" y="310" width="80" height="25" rx="3" fill="#2e7d32"/>
      <text x="1320" y="325" font-family="Pretendard, sans-serif" font-size="10" font-weight="500" fill="white">▶ 시작</text>
      <rect x="1390" y="310" width="80" height="25" rx="3" fill="#d32f2f"/>
      <text x="1410" y="325" font-family="Pretendard, sans-serif" font-size="10" font-weight="500" fill="white">⏸ 중지</text>
      <rect x="1480" y="310" width="80" height="25" rx="3" fill="#14BBB3"/>
      <text x="1500" y="325" font-family="Pretendard, sans-serif" font-size="10" font-weight="500" fill="white">💾 변경</text>
      
      <!-- 상담 모델 섹션 -->
      <rect x="830" y="360" width="730" height="80" rx="6" fill="#f8fafc" stroke="#e2e8f0"/>
      <rect x="830" y="360" width="80" height="20" rx="3" fill="#14BBB3"/>
      <text x="835" y="373" font-family="Pretendard, sans-serif" font-size="12" font-weight="600" fill="white">상담 모델</text>
      
      <text x="840" y="395" font-family="Pretendard, sans-serif" font-size="12" fill="#64748b">서비스 모델</text>
      <rect x="840" y="400" width="100" height="25" rx="4" fill="#f1f5f9" stroke="#e2e8f0"/>
      <text x="845" y="415" font-family="Pretendard, sans-serif" font-size="11" fill="#94a3b8">상담 모델</text>
      
      <text x="960" y="395" font-family="Pretendard, sans-serif" font-size="12" fill="#1e293b">신뢰도 값 *</text>
      <rect x="960" y="400" width="100" height="25" rx="4" fill="#ffffff" stroke="#e2e8f0"/>
      <text x="965" y="415" font-family="Pretendard, sans-serif" font-size="11" fill="#94a3b8">0.0 ~ 1.0</text>
      
      <text x="1080" y="395" font-family="Pretendard, sans-serif" font-size="12" fill="#1e293b">암호화 유무</text>
      <circle cx="1090" cy="415" r="6" fill="#14BBB3" stroke="#14BBB3"/>
      <circle cx="1090" cy="415" r="3" fill="#ffffff"/>
      <text x="1105" y="418" font-family="Pretendard, sans-serif" font-size="11" fill="#1e293b">예</text>
      
      <rect x="1300" y="400" width="80" height="25" rx="3" fill="#9e9e9e"/>
      <text x="1320" y="415" font-family="Pretendard, sans-serif" font-size="10" font-weight="500" fill="white">▶ 시작</text>
      <rect x="1390" y="400" width="80" height="25" rx="3" fill="#9e9e9e"/>
      <text x="1410" y="415" font-family="Pretendard, sans-serif" font-size="10" font-weight="500" fill="white">⏸ 중지</text>
      <rect x="1480" y="400" width="80" height="25" rx="3" fill="#9e9e9e"/>
      <text x="1500" y="415" font-family="Pretendard, sans-serif" font-size="10" font-weight="500" fill="white">💾 변경</text>
    </g>
    
    <!-- 스크립트 설정 -->
    <g id="scriptSettings" filter="url(#cardShadow)">
      <rect x="810" y="550" width="770" height="200" rx="12" fill="rgba(255,255,255,0.95)" stroke="rgba(255,255,255,0.2)"/>
      <rect x="810" y="550" width="770" height="50" rx="12" fill="url(#cardHeaderGradient)"/>
      <rect x="810" y="588" width="770" height="12" fill="url(#cardHeaderGradient)"/>
      <text x="830" y="575" font-family="Pretendard, sans-serif" font-size="16" font-weight="600" fill="white">📝 스크립트 설정</text>
      
      <!-- 되돌리기 버튼 -->
      <rect x="1410" y="560" width="70" height="30" rx="4" fill="rgba(255,255,255,0.2)" stroke="rgba(255,255,255,0.3)"/>
      <text x="1425" y="578" font-family="Pretendard, sans-serif" font-size="11" font-weight="500" fill="#374151">↶ 되돌리기</text>
      
      <!-- 저장 버튼 -->
      <rect x="1490" y="560" width="70" height="30" rx="4" fill="rgba(255,255,255,0.2)" stroke="rgba(255,255,255,0.3)"/>
      <text x="1510" y="578" font-family="Pretendard, sans-serif" font-size="11" font-weight="500" fill="#374151">💾 저장</text>
      
      <text x="830" y="620" font-family="Pretendard, sans-serif" font-size="12" font-weight="500" fill="#1e293b">스크립트 경로 *</text>
      <rect x="830" y="630" width="200" height="30" rx="4" fill="#ffffff" stroke="#e2e8f0"/>
      <text x="835" y="648" font-family="Pretendard, sans-serif" font-size="12" fill="#94a3b8">/scripts/</text>
      
      <text x="1050" y="620" font-family="Pretendard, sans-serif" font-size="12" font-weight="500" fill="#1e293b">실행 권한</text>
      <rect x="1050" y="630" width="150" height="30" rx="4" fill="#ffffff" stroke="#e2e8f0"/>
      <text x="1055" y="648" font-family="Pretendard, sans-serif" font-size="12" fill="#1e293b">755 (rwxr-xr-x)</text>
      
      <text x="830" y="680" font-family="Pretendard, sans-serif" font-size="14" font-weight="600" fill="#1e293b">📋 스크립트 목록</text>
      <rect x="830" y="690" width="80" height="20" rx="3" fill="#f8fafc" stroke="#e2e8f0"/>
      <rect x="825" y="695" width="10" height="10" rx="2" fill="#14BBB3"/>
      <text x="840" y="703" font-family="Pretendard, sans-serif" font-size="11" fill="#1e293b">init.sh</text>
      
      <rect x="920" y="690" width="100" height="20" rx="3" fill="#f8fafc" stroke="#e2e8f0"/>
      <rect x="915" y="695" width="10" height="10" rx="2" fill="#ffffff" stroke="#e2e8f0"/>
      <text x="930" y="703" font-family="Pretendard, sans-serif" font-size="11" fill="#1e293b">cleanup.sh</text>
      
      <rect x="1030" y="690" width="90" height="20" rx="3" fill="#f8fafc" stroke="#e2e8f0"/>
      <rect x="1025" y="695" width="10" height="10" rx="2" fill="#14BBB3"/>
      <text x="1040" y="703" font-family="Pretendard, sans-serif" font-size="11" fill="#1e293b">backup.sh</text>
      
      <rect x="1130" y="690" width="100" height="20" rx="3" fill="#f8fafc" stroke="#e2e8f0"/>
      <rect x="1125" y="695" width="10" height="10" rx="2" fill="#ffffff" stroke="#e2e8f0"/>
      <text x="1140" y="703" font-family="Pretendard, sans-serif" font-size="11" fill="#1e293b">monitor.sh</text>
      
      <rect x="1240" y="690" width="90" height="20" rx="3" fill="#f8fafc" stroke="#e2e8f0"/>
      <rect x="1235" y="695" width="10" height="10" rx="2" fill="#14BBB3"/>
      <text x="1250" y="703" font-family="Pretendard, sans-serif" font-size="11" fill="#1e293b">deploy.sh</text>
      
      <rect x="1340" y="690" width="90" height="20" rx="3" fill="#f8fafc" stroke="#e2e8f0"/>
      <rect x="1335" y="695" width="10" height="10" rx="2" fill="#ffffff" stroke="#e2e8f0"/>
      <text x="1350" y="703" font-family="Pretendard, sans-serif" font-size="11" fill="#1e293b">restart.sh</text>
    </g>
    
    <!-- 기타 설정 -->
    <g id="otherSettings" filter="url(#cardShadow)">
      <rect x="810" y="780" width="770" height="180" rx="12" fill="rgba(255,255,255,0.95)" stroke="rgba(255,255,255,0.2)"/>
      <rect x="810" y="780" width="770" height="50" rx="12" fill="url(#cardHeaderGradient)"/>
      <rect x="810" y="818" width="770" height="12" fill="url(#cardHeaderGradient)"/>
      <text x="830" y="805" font-family="Pretendard, sans-serif" font-size="16" font-weight="600" fill="white">⚙️ 기타 설정</text>
      
      <!-- 되돌리기 버튼 -->
      <rect x="1410" y="790" width="70" height="30" rx="4" fill="rgba(255,255,255,0.2)" stroke="rgba(255,255,255,0.3)"/>
      <text x="1425" y="808" font-family="Pretendard, sans-serif" font-size="11" font-weight="500" fill="#374151">↶ 되돌리기</text>
      
      <!-- 저장 버튼 -->
      <rect x="1490" y="790" width="70" height="30" rx="4" fill="rgba(255,255,255,0.2)" stroke="rgba(255,255,255,0.3)"/>
      <text x="1510" y="808" font-family="Pretendard, sans-serif" font-size="11" font-weight="500" fill="#374151">💾 저장</text>
      
      <text x="830" y="850" font-family="Pretendard, sans-serif" font-size="12" font-weight="500" fill="#1e293b">디버그 모드</text>
      <circle cx="840" cy="860" r="8" fill="#ffffff" stroke="#e2e8f0"/>
      <text x="860" y="865" font-family="Pretendard, sans-serif" font-size="12" fill="#1e293b">예</text>
      <circle cx="920" cy="860" r="8" fill="#14BBB3" stroke="#14BBB3"/>
      <circle cx="920" cy="860" r="4" fill="#ffffff"/>
      <text x="940" y="865" font-family="Pretendard, sans-serif" font-size="12" fill="#1e293b">아니오</text>
      
      <text x="1050" y="850" font-family="Pretendard, sans-serif" font-size="12" font-weight="500" fill="#1e293b">로그 보관 기간</text>
      <rect x="1050" y="870" width="80" height="25" rx="4" fill="#ffffff" stroke="#e2e8f0"/>
      <text x="1055" y="885" font-family="Pretendard, sans-serif" font-size="11" fill="#94a3b8">90</text>
      <text x="1140" y="885" font-family="Pretendard, sans-serif" font-size="11" fill="#64748b">일</text>
      
      <text x="1200" y="850" font-family="Pretendard, sans-serif" font-size="12" font-weight="500" fill="#1e293b">백업 주기</text>
      <rect x="1200" y="870" width="100" height="25" rx="4" fill="#ffffff" stroke="#e2e8f0"/>
      <text x="1205" y="885" font-family="Pretendard, sans-serif" font-size="11" fill="#1e293b">매주</text>
      
      <text x="830" y="920" font-family="Pretendard, sans-serif" font-size="14" font-weight="600" fill="#1e293b">🔔 알림 유형</text>
      <rect x="830" y="930" width="100" height="20" rx="3" fill="#f8fafc" stroke="#e2e8f0"/>
      <rect x="825" y="935" width="10" height="10" rx="2" fill="#14BBB3"/>
      <text x="840" y="943" font-family="Pretendard, sans-serif" font-size="11" fill="#1e293b">시스템 오류</text>
      
      <rect x="940" y="930" width="90" height="20" rx="3" fill="#f8fafc" stroke="#e2e8f0"/>
      <rect x="935" y="935" width="10" height="10" rx="2" fill="#14BBB3"/>
      <text x="950" y="943" font-family="Pretendard, sans-serif" font-size="11" fill="#1e293b">성능 경고</text>
      
      <rect x="1040" y="930" width="100" height="20" rx="3" fill="#f8fafc" stroke="#e2e8f0"/>
      <rect x="1035" y="935" width="10" height="10" rx="2" fill="#ffffff" stroke="#e2e8f0"/>
      <text x="1050" y="943" font-family="Pretendard, sans-serif" font-size="11" fill="#1e293b">업데이트 알림</text>
      
      <rect x="1150" y="930" width="80" height="20" rx="3" fill="#f8fafc" stroke="#e2e8f0"/>
      <rect x="1145" y="935" width="10" height="10" rx="2" fill="#14BBB3"/>
      <text x="1160" y="943" font-family="Pretendard, sans-serif" font-size="11" fill="#1e293b">보안 알림</text>
    </g>
  </g>
</svg>
