<?xml version="1.0" encoding="UTF-8"?>
<svg width="1920" height="1080" viewBox="0 0 1920 1080" xmlns="http://www.w3.org/2000/svg">
  <!-- 배경 그라디언트 정의 -->
  <defs>
    <!-- 메인 배경 그라디언트 -->
    <linearGradient id="mainBg" x1="0%" y1="0%" x2="100%" y2="100%">
      <stop offset="0%" style="stop-color:#f8fafc;stop-opacity:1" />
      <stop offset="100%" style="stop-color:#f1f5f9;stop-opacity:1" />
    </linearGradient>
    
    <!-- 헤더 그라디언트 -->
    <linearGradient id="headerBg" x1="0%" y1="0%" x2="100%" y2="100%">
      <stop offset="0%" style="stop-color:#e31e24;stop-opacity:1" />
      <stop offset="100%" style="stop-color:#c41e3a;stop-opacity:1" />
    </linearGradient>
    
    <!-- CPU 그라디언트 -->
    <linearGradient id="cpuGrad" x1="0%" y1="0%" x2="100%" y2="100%">
      <stop offset="0%" style="stop-color:#3b82f6;stop-opacity:1" />
      <stop offset="100%" style="stop-color:#60a5fa;stop-opacity:1" />
    </linearGradient>
    
    <!-- Memory 그라디언트 -->
    <linearGradient id="memoryGrad" x1="0%" y1="0%" x2="100%" y2="100%">
      <stop offset="0%" style="stop-color:#10b981;stop-opacity:1" />
      <stop offset="100%" style="stop-color:#34d399;stop-opacity:1" />
    </linearGradient>
    
    <!-- Storage 그라디언트 -->
    <linearGradient id="storageGrad" x1="0%" y1="0%" x2="100%" y2="100%">
      <stop offset="0%" style="stop-color:#8b5cf6;stop-opacity:1" />
      <stop offset="100%" style="stop-color:#a78bfa;stop-opacity:1" />
    </linearGradient>
    
    <!-- Network 그라디언트 -->
    <linearGradient id="networkGrad" x1="0%" y1="0%" x2="100%" y2="100%">
      <stop offset="0%" style="stop-color:#f59e0b;stop-opacity:1" />
      <stop offset="100%" style="stop-color:#fbbf24;stop-opacity:1" />
    </linearGradient>
    
    <!-- 네비게이션 활성 그라디언트 -->
    <linearGradient id="navActiveGrad" x1="0%" y1="0%" x2="100%" y2="100%">
      <stop offset="0%" style="stop-color:#e31e24;stop-opacity:1" />
      <stop offset="100%" style="stop-color:#ff4449;stop-opacity:1" />
    </linearGradient>
    
    <!-- 그림자 필터 -->
    <filter id="shadowSm" x="-20%" y="-20%" width="140%" height="140%">
      <feDropShadow dx="0" dy="1" stdDeviation="2" flood-color="rgba(0,0,0,0.05)"/>
    </filter>
    
    <filter id="shadowBase" x="-20%" y="-20%" width="140%" height="140%">
      <feDropShadow dx="0" dy="1" stdDeviation="3" flood-color="rgba(0,0,0,0.1)"/>
    </filter>
    
    <filter id="shadowLg" x="-30%" y="-30%" width="160%" height="160%">
      <feDropShadow dx="0" dy="10" stdDeviation="15" flood-color="rgba(0,0,0,0.1)"/>
    </filter>
  </defs>
  
  <!-- 메인 배경 -->
  <rect width="1920" height="1080" fill="url(#mainBg)"/>
  
  <!-- 사이드바 -->
  <g id="sidebar">
    <!-- 사이드바 배경 -->
    <rect x="0" y="0" width="280" height="1080" fill="#ffffff" filter="url(#shadowLg)"/>
    
    <!-- 사이드바 헤더 -->
    <g id="sidebar-header" transform="translate(24, 24)">
      <!-- 메인 타이틀 -->
      <text x="0" y="18" font-family="Noto Sans KR, Arial, sans-serif" font-size="14" font-weight="bold" fill="#0f172a" letter-spacing="0.5">
        AICP MANAGEMENT PORTAL
      </text>
      <!-- 서브 타이틀 -->
      <text x="0" y="40" font-family="Noto Sans KR, Arial, sans-serif" font-size="12" fill="#64748b">
        HW 리소스 현황
      </text>
    </g>
    
    <!-- 네비게이션 섹션들 -->
    <g id="navigation" transform="translate(24, 88)">
      <!-- PROJECT 섹션 -->
      <g id="project-section">
        <text x="0" y="15" font-family="Noto Sans KR, Arial, sans-serif" font-size="10" font-weight="600" fill="#9ca3af" text-transform="uppercase" letter-spacing="0.8">
          PROJECT
        </text>
        
        <!-- 네비게이션 아이템들 -->
        <g id="nav-items" transform="translate(0, 28)">
          <!-- 홈 현황 -->
          <g id="nav-home">
            <rect x="0" y="0" width="232" height="40" rx="8" fill="transparent"/>
            <g transform="translate(12, 12)">
              <!-- 홈 아이콘 -->
              <path d="M8.707 1.5a1 1 0 0 0-1.414 0L.646 8.146a.5.5 0 0 0 .708.708L2 8.207V13.5A1.5 1.5 0 0 0 3.5 15h9a1.5 1.5 0 0 0 1.5-1.5V8.207l.646.647a.5.5 0 0 0 .708-.708L8.707 1.5Z" fill="#475569" transform="scale(0.8)"/>
            </g>
            <text x="36" y="26" font-family="Noto Sans KR, Arial, sans-serif" font-size="14" fill="#475569">홈 현황</text>
          </g>
          
          <!-- HW 리소스 현황 (활성화) -->
          <g id="nav-hw-active" transform="translate(0, 48)">
            <rect x="0" y="0" width="232" height="40" rx="8" fill="url(#navActiveGrad)"/>
            <g transform="translate(12, 12)">
              <!-- 서버 아이콘 -->
              <path d="M1.5 4A1.5 1.5 0 0 1 3 2.5h10A1.5 1.5 0 0 1 14.5 4v2A1.5 1.5 0 0 1 13 7.5H3A1.5 1.5 0 0 1 1.5 6V4zm0 5A1.5 1.5 0 0 1 3 7.5h10A1.5 1.5 0 0 1 14.5 9v2a1.5 1.5 0 0 1-1.5 1.5H3A1.5 1.5 0 0 1 1.5 11V9z" fill="#ffffff" transform="scale(0.8)"/>
            </g>
            <text x="36" y="26" font-family="Noto Sans KR, Arial, sans-serif" font-size="14" font-weight="600" fill="#ffffff">HW 리소스 현황</text>
          </g>
          
          <!-- 성능 분석 -->
          <g id="nav-performance" transform="translate(0, 96)">
            <rect x="0" y="0" width="232" height="40" rx="8" fill="transparent"/>
            <g transform="translate(12, 12)">
              <!-- 차트 아이콘 -->
              <path d="M13.5 3a.5.5 0 0 1 .5.5V13a.5.5 0 0 1-.5.5h-11a.5.5 0 0 1-.5-.5V3.5a.5.5 0 0 1 .5-.5h11z" fill="#475569" transform="scale(0.8)"/>
            </g>
            <text x="36" y="26" font-family="Noto Sans KR, Arial, sans-serif" font-size="14" fill="#475569">성능 분석</text>
          </g>
        </g>
      </g>
      
      <!-- 온디맨드 현황 섹션 -->
      <g id="ondemand-section" transform="translate(0, 200)">
        <text x="0" y="15" font-family="Noto Sans KR, Arial, sans-serif" font-size="10" font-weight="600" fill="#9ca3af" text-transform="uppercase" letter-spacing="0.8">
          온디맨드 현황
        </text>
        
        <g transform="translate(0, 28)">
          <rect x="0" y="0" width="232" height="40" rx="8" fill="transparent"/>
          <g transform="translate(12, 12)">
            <!-- 마이크 아이콘 -->
            <path d="M3.5 6.5A.5.5 0 0 1 4 7v1a4 4 0 0 0 8 0V7a.5.5 0 0 1 1 0v1a5 5 0 0 1-4.5 4.975V15h3a.5.5 0 0 1 0 1h-7a.5.5 0 0 1 0-1h3v-2.025A5 5 0 0 1 3 8V7a.5.5 0 0 1 .5-.5z" fill="#475569" transform="scale(0.8)"/>
          </g>
          <text x="36" y="26" font-family="Noto Sans KR, Arial, sans-serif" font-size="14" fill="#475569">음성인식 현황</text>
        </g>
      </g>
      
      <!-- 라이선스 관리 섹션 -->
      <g id="license-section" transform="translate(0, 300)">
        <text x="0" y="15" font-family="Noto Sans KR, Arial, sans-serif" font-size="10" font-weight="600" fill="#9ca3af" text-transform="uppercase" letter-spacing="0.8">
          라이선스 관리
        </text>
        
        <g transform="translate(0, 28)">
          <rect x="0" y="0" width="232" height="40" rx="8" fill="transparent"/>
          <g transform="translate(12, 12)">
            <!-- 키 아이콘 -->
            <path d="M0 8a4 4 0 0 1 7.465-2H14a.5.5 0 0 1 .354.146l1.5 1.5a.5.5 0 0 1 0 .708l-1.5 1.5a.5.5 0 0 1-.708 0L13 9.207l-.646.647a.5.5 0 0 1-.708 0L11 9.207l-.646.647a.5.5 0 0 1-.708 0L9 9.207l-.646.647A.5.5 0 0 1 8 10h-.535A4 4 0 0 1 0 8z" fill="#475569" transform="scale(0.8)"/>
          </g>
          <text x="36" y="26" font-family="Noto Sans KR, Arial, sans-serif" font-size="14" fill="#475569">라이선스 현황</text>
        </g>
      </g>
      
      <!-- RAPEECH-CPOD 섹션 -->
      <g id="rapeech-section" transform="translate(0, 400)">
        <text x="0" y="15" font-family="Noto Sans KR, Arial, sans-serif" font-size="10" font-weight="600" fill="#9ca3af" text-transform="uppercase" letter-spacing="0.8">
          RAPEECH-CPOD
        </text>
        
        <g transform="translate(0, 28)">
          <rect x="0" y="0" width="232" height="40" rx="8" fill="transparent"/>
          <g transform="translate(12, 12)">
            <!-- 설정 아이콘 -->
            <path d="M8 4.754a3.246 3.246 0 1 0 0 6.492 3.246 3.246 0 0 0 0-6.492z" fill="#475569" transform="scale(0.8)"/>
          </g>
          <text x="36" y="26" font-family="Noto Sans KR, Arial, sans-serif" font-size="14" fill="#475569">rapeech-cpod KT-STT 4.0</text>
        </g>
      </g>
    </g>
  </g>
  
  <!-- 메인 컨텐츠 -->
  <g id="main-content" transform="translate(280, 0)">
    
    <!-- 헤더 -->
    <g id="header" transform="translate(24, 24)">
      <rect x="0" y="0" width="1592" height="120" rx="12" fill="url(#headerBg)" filter="url(#shadowLg)"/>
      
      <!-- 헤더 장식 원 -->
      <circle cx="1492" cy="20" r="100" fill="rgba(255,255,255,0.1)" opacity="0.5"/>
      
      <!-- 헤더 좌측 -->
      <g id="header-left" transform="translate(24, 24)">
        <g transform="translate(0, 8)">
          <!-- 서버 아이콘 -->
          <g transform="translate(0, 8)">
            <path d="M1.5 4A1.5 1.5 0 0 1 3 2.5h10A1.5 1.5 0 0 1 14.5 4v2A1.5 1.5 0 0 1 13 7.5H3A1.5 1.5 0 0 1 1.5 6V4zm0 5A1.5 1.5 0 0 1 3 7.5h10A1.5 1.5 0 0 1 14.5 9v2a1.5 1.5 0 0 1-1.5 1.5H3A1.5 1.5 0 0 1 1.5 11V9z" fill="#ffffff" transform="scale(1.8)"/>
          </g>
          <text x="40" y="24" font-family="Noto Sans KR, Arial, sans-serif" font-size="32" font-weight="700" fill="#ffffff">
            KT-STT 시스템 모니터링
          </text>
        </g>
        <text x="0" y="64" font-family="Noto Sans KR, Arial, sans-serif" font-size="16" font-weight="300" fill="rgba(255,255,255,0.9)">
          실시간 하드웨어 리소스 및 성능 현황
        </text>
      </g>
      
      <!-- 헤더 우측 -->
      <g id="header-right" transform="translate(1350, 36)">
        <!-- 서비스 상태 컨테이너 -->
        <rect x="0" y="0" width="220" height="48" rx="12" fill="rgba(255,255,255,0.1)" stroke="rgba(255,255,255,0.2)" stroke-width="1"/>
        
        <!-- 상태 인디케이터 -->
        <circle cx="20" cy="24" r="6" fill="#059669">
          <animate attributeName="opacity" values="1;0.5;1" dur="2s" repeatCount="indefinite"/>
        </circle>
        
        <!-- 상태 텍스트 -->
        <text x="36" y="29" font-family="Noto Sans KR, Arial, sans-serif" font-size="14" font-weight="600" fill="#ffffff">
          KT-STT 서비스 정상
        </text>
      </g>
    </g>
    
    <!-- 메트릭 그리드 -->
    <g id="metrics-grid" transform="translate(24, 168)">
      
      <!-- CPU 메트릭 카드 -->
      <g id="cpu-metric">
        <rect x="0" y="0" width="379" height="180" rx="12" fill="#ffffff" filter="url(#shadowBase)"/>
        
        <!-- 헤더 -->
        <g transform="translate(24, 20)">
          <!-- 아이콘 컨테이너 -->
          <rect x="307" y="0" width="48" height="48" rx="12" fill="url(#cpuGrad)"/>
          <!-- CPU 아이콘 (마이크로칩) -->
          <g transform="translate(319, 12)">
            <path d="M3 5a2 2 0 0 1 2-2h6a2 2 0 0 1 2 2v6a2 2 0 0 1-2 2H5a2 2 0 0 1-2-2V5z" fill="#ffffff" transform="scale(1.5)"/>
            <rect x="7" y="7" width="10" height="10" rx="1" fill="#3b82f6" transform="scale(1.2)"/>
          </g>
          
          <!-- 정보 -->
          <text x="0" y="20" font-family="Noto Sans KR, Arial, sans-serif" font-size="18" font-weight="600" fill="#0f172a">CPU 사용률</text>
          <text x="0" y="38" font-family="Noto Sans KR, Arial, sans-serif" font-size="13" fill="#64748b">전체 서버 평균 CPU 사용량</text>
        </g>
        
        <!-- 값 -->
        <text x="24" y="110" font-family="Noto Sans KR, Arial, sans-serif" font-size="32" font-weight="700" fill="#3b82f6">45.2%</text>
        
        <!-- 상세 정보 -->
        <g transform="translate(24, 125)">
          <!-- 변화량 -->
          <g>
            <path d="M8 1.5a.5.5 0 0 0-.5.5v6a.5.5 0 0 0 .5.5h6a.5.5 0 0 0 0-1H8.5V2a.5.5 0 0 0-.5-.5z" fill="#059669" transform="scale(0.8) translate(0, 4) rotate(315)"/>
            <text x="16" y="15" font-family="Noto Sans KR, Arial, sans-serif" font-size="12" font-weight="500" fill="#059669">2.3% 감소</text>
          </g>
          <!-- 상태 배지 -->
          <rect x="260" y="0" width="95" height="24" rx="12" fill="#059669"/>
          <text x="285" y="16" font-family="Noto Sans KR, Arial, sans-serif" font-size="10" font-weight="700" fill="#ffffff">EXCELLENT</text>
        </g>
        
        <!-- 프로그레스 바 -->
        <g transform="translate(24, 152)">
          <rect x="0" y="0" width="331" height="8" rx="4" fill="#e2e8f0"/>
          <rect x="0" y="0" width="150" height="8" rx="4" fill="url(#cpuGrad)"/>
        </g>
      </g>
      
      <!-- Memory 메트릭 카드 -->
      <g id="memory-metric" transform="translate(403, 0)">
        <rect x="0" y="0" width="379" height="180" rx="12" fill="#ffffff" filter="url(#shadowBase)"/>
        
        <!-- 헤더 -->
        <g transform="translate(24, 20)">
          <!-- 아이콘 컨테이너 -->
          <rect x="307" y="0" width="48" height="48" rx="12" fill="url(#memoryGrad)"/>
          <!-- Memory 아이콘 (RAM) -->
          <g transform="translate(319, 14)">
            <rect x="0" y="0" width="24" height="16" rx="2" fill="#ffffff" transform="scale(1)"/>
            <rect x="3" y="3" width="3" height="10" fill="#10b981"/>
            <rect x="8" y="3" width="3" height="10" fill="#10b981"/>
            <rect x="13" y="3" width="3" height="10" fill="#10b981"/>
            <rect x="18" y="3" width="3" height="10" fill="#10b981"/>
          </g>
          
          <!-- 정보 -->
          <text x="0" y="20" font-family="Noto Sans KR, Arial, sans-serif" font-size="18" font-weight="600" fill="#0f172a">메모리 사용률</text>
          <text x="0" y="38" font-family="Noto Sans KR, Arial, sans-serif" font-size="13" fill="#64748b">전체 서버 평균 메모리 사용량</text>
        </g>
        
        <!-- 값 -->
        <text x="24" y="110" font-family="Noto Sans KR, Arial, sans-serif" font-size="32" font-weight="700" fill="#10b981">68.7%</text>
        
        <!-- 상세 정보 -->
        <g transform="translate(24, 125)">
          <!-- 변화량 -->
          <g>
            <path d="M8 1.5a.5.5 0 0 1 .5.5v6a.5.5 0 0 1-.5.5H2a.5.5 0 0 1 0-1h5.5V2a.5.5 0 0 1 .5-.5z" fill="#dc2626" transform="scale(0.8) translate(0, 4) rotate(45)"/>
            <text x="16" y="15" font-family="Noto Sans KR, Arial, sans-serif" font-size="12" font-weight="500" fill="#dc2626">5.1% 증가</text>
          </g>
          <!-- 상태 배지 -->
          <rect x="280" y="0" width="75" height="24" rx="12" fill="#65a30d"/>
          <text x="305" y="16" font-family="Noto Sans KR, Arial, sans-serif" font-size="10" font-weight="700" fill="#ffffff">GOOD</text>
        </g>
        
        <!-- 프로그레스 바 -->
        <g transform="translate(24, 152)">
          <rect x="0" y="0" width="331" height="8" rx="4" fill="#e2e8f0"/>
          <rect x="0" y="0" width="227" height="8" rx="4" fill="url(#memoryGrad)"/>
        </g>
      </g>
      
      <!-- Storage 메트릭 카드 -->
      <g id="storage-metric" transform="translate(806, 0)">
        <rect x="0" y="0" width="379" height="180" rx="12" fill="#ffffff" filter="url(#shadowBase)"/>
        
        <!-- 헤더 -->
        <g transform="translate(24, 20)">
          <!-- 아이콘 컨테이너 -->
          <rect x="307" y="0" width="48" height="48" rx="12" fill="url(#storageGrad)"/>
          <!-- Storage 아이콘 (HDD) -->
          <g transform="translate(315, 16)">
            <rect x="0" y="0" width="32" height="20" rx="2" fill="#ffffff"/>
            <rect x="3" y="3" width="26" height="3" fill="#8b5cf6"/>
            <rect x="3" y="8" width="26" height="3" fill="#8b5cf6"/>
            <rect x="3" y="13" width="26" height="3" fill="#8b5cf6"/>
          </g>
          
          <!-- 정보 -->
          <text x="0" y="20" font-family="Noto Sans KR, Arial, sans-serif" font-size="18" font-weight="600" fill="#0f172a">스토리지 사용률</text>
          <text x="0" y="38" font-family="Noto Sans KR, Arial, sans-serif" font-size="13" fill="#64748b">전체 디스크 평균 사용량</text>
        </g>
        
        <!-- 값 -->
        <text x="24" y="110" font-family="Noto Sans KR, Arial, sans-serif" font-size="32" font-weight="700" fill="#8b5cf6">34.8%</text>
        
        <!-- 상세 정보 -->
        <g transform="translate(24, 125)">
          <!-- 변화량 -->
          <g>
            <path d="M8 1.5a.5.5 0 0 0-.5.5v6a.5.5 0 0 0 .5.5h6a.5.5 0 0 0 0-1H8.5V2a.5.5 0 0 0-.5-.5z" fill="#059669" transform="scale(0.8) translate(0, 4) rotate(315)"/>
            <text x="16" y="15" font-family="Noto Sans KR, Arial, sans-serif" font-size="12" font-weight="500" fill="#059669">1.2% 감소</text>
          </g>
          <!-- 상태 배지 -->
          <rect x="260" y="0" width="95" height="24" rx="12" fill="#059669"/>
          <text x="285" y="16" font-family="Noto Sans KR, Arial, sans-serif" font-size="10" font-weight="700" fill="#ffffff">EXCELLENT</text>
        </g>
        
        <!-- 프로그레스 바 -->
        <g transform="translate(24, 152)">
          <rect x="0" y="0" width="331" height="8" rx="4" fill="#e2e8f0"/>
          <rect x="0" y="0" width="115" height="8" rx="4" fill="url(#storageGrad)"/>
        </g>
      </g>
      
      <!-- Network 메트릭 카드 -->
      <g id="network-metric" transform="translate(1209, 0)">
        <rect x="0" y="0" width="379" height="180" rx="12" fill="#ffffff" filter="url(#shadowBase)"/>
        
        <!-- 헤더 -->
        <g transform="translate(24, 20)">
          <!-- 아이콘 컨테이너 -->
          <rect x="307" y="0" width="48" height="48" rx="12" fill="url(#networkGrad)"/>
          <!-- Network 아이콘 (신호) -->
          <g transform="translate(319, 18)">
            <rect x="2" y="14" width="4" height="8" fill="#ffffff"/>
            <rect x="8" y="10" width="4" height="12" fill="#ffffff"/>
            <rect x="14" y="6" width="4" height="16" fill="#ffffff"/>
            <rect x="20" y="2" width="4" height="20" fill="#ffffff"/>
          </g>
          
          <!-- 정보 -->
          <text x="0" y="20" font-family="Noto Sans KR, Arial, sans-serif" font-size="18" font-weight="600" fill="#0f172a">네트워크 사용률</text>
          <text x="0" y="38" font-family="Noto Sans KR, Arial, sans-serif" font-size="13" fill="#64748b">전체 네트워크 트래픽</text>
        </g>
        
        <!-- 값 -->
        <text x="24" y="110" font-family="Noto Sans KR, Arial, sans-serif" font-size="32" font-weight="700" fill="#f59e0b">23.1%</text>
        
        <!-- 상세 정보 -->
        <g transform="translate(24, 125)">
          <!-- 변화량 -->
          <g>
            <path d="M8 1.5a.5.5 0 0 1 .5.5v6a.5.5 0 0 1-.5.5H2a.5.5 0 0 1 0-1h5.5V2a.5.5 0 0 1 .5-.5z" fill="#059669" transform="scale(0.8) translate(0, 4) rotate(45)"/>
            <text x="16" y="15" font-family="Noto Sans KR, Arial, sans-serif" font-size="12" font-weight="500" fill="#059669">7.4% 증가</text>
          </g>
          <!-- 상태 배지 -->
          <rect x="260" y="0" width="95" height="24" rx="12" fill="#059669"/>
          <text x="285" y="16" font-family="Noto Sans KR, Arial, sans-serif" font-size="10" font-weight="700" fill="#ffffff">EXCELLENT</text>
        </g>
        
        <!-- 프로그레스 바 -->
        <g transform="translate(24, 152)">
          <rect x="0" y="0" width="331" height="8" rx="4" fill="#e2e8f0"/>
          <rect x="0" y="0" width="76" height="8" rx="4" fill="url(#networkGrad)"/>
        </g>
      </g>
      
    </g>
    
    <!-- 차트 섹션 (시스템 리소스 추이만) -->
    <g id="charts-section" transform="translate(24, 372)">
      
      <!-- 메인 차트 -->
      <g id="main-chart">
        <rect x="0" y="0" width="1592" height="420" rx="12" fill="#ffffff" filter="url(#shadowBase)"/>
        
        <!-- 차트 헤더 -->
        <g transform="translate(24, 24)">
          <!-- 차트 아이콘과 제목 -->
          <g>
            <g transform="translate(0, 4)">
              <path d="M2 2a2 2 0 0 0-2 2v8a2 2 0 0 0 2 2h12a2 2 0 0 0 2-2V4a2 2 0 0 0-2-2H2z" fill="#059669" transform="scale(1.2)"/>
              <path d="M3 7l3 3 3-3 3 3" stroke="#ffffff" stroke-width="2" fill="none" transform="scale(1.2) translate(1, 1)"/>
            </g>
            <text x="32" y="20" font-family="Noto Sans KR, Arial, sans-serif" font-size="20" font-weight="700" fill="#0f172a">시스템 리소스 추이</text>
          </g>
          
          <!-- 차트 컨트롤 -->
          <g id="chart-controls" transform="translate(1380, 0)">
            <rect x="0" y="0" width="60" height="32" rx="8" fill="#f3f4f6"/>
            <text x="30" y="20" font-family="Noto Sans KR, Arial, sans-serif" font-size="12" font-weight="500" fill="#6b7280" text-anchor="middle">1시간</text>
            
            <rect x="68" y="0" width="60" height="32" rx="8" fill="#e31e24"/>
            <text x="98" y="20" font-family="Noto Sans KR, Arial, sans-serif" font-size="12" font-weight="500" fill="#ffffff" text-anchor="middle">6시간</text>
            
            <rect x="136" y="0" width="60" height="32" rx="8" fill="#f3f4f6"/>
            <text x="166" y="20" font-family="Noto Sans KR, Arial, sans-serif" font-size="12" font-weight="500" fill="#6b7280" text-anchor="middle">24시간</text>
            
            <rect x="204" y="0" width="40" height="32" rx="8" fill="#f3f4f6"/>
            <text x="224" y="20" font-family="Noto Sans KR, Arial, sans-serif" font-size="12" font-weight="500" fill="#6b7280" text-anchor="middle">7일</text>
          </g>
        </g>
        
        <!-- 차트 영역 -->
        <g transform="translate(24, 56)">
          <rect x="0" y="0" width="1544" height="340" rx="8" fill="#f9fafb"/>
          
          <!-- 라인 차트 시뮬레이션 -->
          <g transform="translate(80, 40)">
            <!-- Y축 라벨 -->
            <text x="-60" y="50" font-family="Noto Sans KR, Arial, sans-serif" font-size="11" fill="#9ca3af" text-anchor="end">100%</text>
            <text x="-60" y="110" font-family="Noto Sans KR, Arial, sans-serif" font-size="11" fill="#9ca3af" text-anchor="end">75%</text>
            <text x="-60" y="170" font-family="Noto Sans KR, Arial, sans-serif" font-size="11" fill="#9ca3af" text-anchor="end">50%</text>
            <text x="-60" y="230" font-family="Noto Sans KR, Arial, sans-serif" font-size="11" fill="#9ca3af" text-anchor="end">25%</text>
            <text x="-60" y="290" font-family="Noto Sans KR, Arial, sans-serif" font-size="11" fill="#9ca3af" text-anchor="end">0%</text>
            
            <!-- 격자 -->
            <line x1="0" y1="50" x2="1384" y2="50" stroke="#e5e7eb" stroke-width="1"/>
            <line x1="0" y1="110" x2="1384" y2="110" stroke="#e5e7eb" stroke-width="1"/>
            <line x1="0" y1="170" x2="1384" y2="170" stroke="#e5e7eb" stroke-width="1"/>
            <line x1="0" y1="230" x2="1384" y2="230" stroke="#e5e7eb" stroke-width="1"/>
            <line x1="0" y1="290" x2="1384" y2="290" stroke="#e5e7eb" stroke-width="1"/>
            
            <!-- CPU 라인 (45.2% = 약 158px 위치) -->
            <polyline points="0,158 230,148 461,155 692,145 923,150 1154,140 1384,138" 
                      fill="none" stroke="#3b82f6" stroke-width="3" opacity="0.9"/>
            
            <!-- Memory 라인 (68.7% = 약 115px 위치) -->
            <polyline points="0,115 230,110 461,120 692,105 923,115 1154,100 1384,95" 
                      fill="none" stroke="#10b981" stroke-width="3" opacity="0.9"/>
            
            <!-- Storage 라인 (34.8% = 약 206px 위치) -->
            <polyline points="0,206 230,201 461,196 692,191 923,186 1154,181 1384,176" 
                      fill="none" stroke="#8b5cf6" stroke-width="3" opacity="0.9"/>
            
            <!-- Network 라인 (23.1% = 약 235px 위치) -->
            <polyline points="0,235 230,230 461,240 692,225 923,245 1154,220 1384,215" 
                      fill="none" stroke="#f59e0b" stroke-width="3" opacity="0.9"/>
          </g>
          
          <!-- 범례 -->
          <g transform="translate(80, 300)">
            <g>
              <circle cx="0" cy="0" r="5" fill="#3b82f6"/>
              <text x="15" y="5" font-family="Noto Sans KR, Arial, sans-serif" font-size="13" fill="#64748b">CPU (45.2%)</text>
            </g>
            
            <g transform="translate(120, 0)">
              <circle cx="0" cy="0" r="5" fill="#10b981"/>
              <text x="15" y="5" font-family="Noto Sans KR, Arial, sans-serif" font-size="13" fill="#64748b">Memory (68.7%)</text>
            </g>
            
            <g transform="translate(260, 0)">
              <circle cx="0" cy="0" r="5" fill="#8b5cf6"/>
              <text x="15" y="5" font-family="Noto Sans KR, Arial, sans-serif" font-size="13" fill="#64748b">Storage (34.8%)</text>
            </g>
            
            <g transform="translate(400, 0)">
              <circle cx="0" cy="0" r="5" fill="#f59e0b"/>
              <text x="15" y="5" font-family="Noto Sans KR, Arial, sans-serif" font-size="13" fill="#64748b">Network (23.1%)</text>
            </g>
          </g>
        </g>
      </g>
      
    </g>
    
    <!-- 서버 현황만 (실시간 알림 제거) -->
    <g id="server-section" transform="translate(24, 816)">
      
      <!-- 서버 현황 카드 -->
      <g id="server-status">
        <rect x="0" y="0" width="1592" height="240" rx="12" fill="#ffffff" filter="url(#shadowBase)"/>
        
        <!-- 헤더 -->
        <rect x="0" y="0" width="1592" height="60" rx="12" fill="#f3f4f6"/>
        <g transform="translate(24, 16)">
          <g transform="translate(0, 8)">
            <path d="M1.5 4A1.5 1.5 0 0 1 3 2.5h10A1.5 1.5 0 0 1 14.5 4v2A1.5 1.5 0 0 1 13 7.5H3A1.5 1.5 0 0 1 1.5 6V4z" fill="#059669" transform="scale(1.5)"/>
          </g>
          <text x="32" y="22" font-family="Noto Sans KR, Arial, sans-serif" font-size="18" font-weight="600" fill="#0f172a">서버 현황</text>
        </g>
        
        <!-- 서버 목록 -->
        <g transform="translate(24, 80)">
          <!-- 서버 1 - c-pod-487 -->
          <g>
            <circle cx="12" cy="16" r="6" fill="#059669"/>
            <text x="32" y="20" font-family="Noto Sans KR, Arial, sans-serif" font-size="16" font-weight="600" fill="#0f172a">c-pod-487</text>
            <text x="32" y="36" font-family="Noto Sans KR, Arial, sans-serif" font-size="14" fill="#64748b">CPU: 42% | MEM: 65% | DISK: 28%</text>
          </g>
          
          <!-- 서버 2 - c-pod-49 -->
          <g transform="translate(0, 60)">
            <circle cx="12" cy="16" r="6" fill="#059669"/>
            <text x="32" y="20" font-family="Noto Sans KR, Arial, sans-serif" font-size="16" font-weight="600" fill="#0f172a">c-pod-49</text>
            <text x="32" y="36" font-family="Noto Sans KR, Arial, sans-serif" font-size="14" fill="#64748b">CPU: 48% | MEM: 72% | DISK: 41%</text>
          </g>
          
          <!-- 서버 3 - c-pod-50 (경고) -->
          <g transform="translate(0, 120)">
            <circle cx="12" cy="16" r="6" fill="#d97706"/>
            <text x="32" y="20" font-family="Noto Sans KR, Arial, sans-serif" font-size="16" font-weight="600" fill="#0f172a">c-pod-50</text>
            <text x="32" y="36" font-family="Noto Sans KR, Arial, sans-serif" font-size="14" fill="#64748b">CPU: 76% | MEM: 89% | DISK: 33%</text>
          </g>
        </g>
      </g>
      
    </g>
    
  </g>
  
</svg>
