<?xml version="1.0" encoding="UTF-8"?>
<svg width="1920" height="1080" viewBox="0 0 1920 1080" xmlns="http://www.w3.org/2000/svg">
  <!-- 배경 그라디언트 정의 -->
  <defs>
    <!-- 메인 배경 그라디언트 (AMP 스타일) -->
    <linearGradient id="mainBg" x1="0%" y1="0%" x2="100%" y2="100%">
      <stop offset="0%" style="stop-color:#6b7280;stop-opacity:1" />
      <stop offset="100%" style="stop-color:#4b5563;stop-opacity:1" />
    </linearGradient>
    
    <!-- 사이드바 배경 -->
    <linearGradient id="sidebarBg" x1="0%" y1="0%" x2="100%" y2="100%">
      <stop offset="0%" style="stop-color:rgba(255,255,255,0.95);stop-opacity:1" />
      <stop offset="100%" style="stop-color:rgba(255,255,255,0.9);stop-opacity:1" />
    </linearGradient>
    
    <!-- 헤더 배경 -->
    <linearGradient id="headerBg" x1="0%" y1="0%" x2="100%" y2="100%">
      <stop offset="0%" style="stop-color:rgba(255,255,255,0.8);stop-opacity:1" />
      <stop offset="100%" style="stop-color:rgba(255,255,255,0.7);stop-opacity:1" />
    </linearGradient>
    
    <!-- 네비게이션 활성 그라디언트 -->
    <linearGradient id="navActiveGrad" x1="0%" y1="0%" x2="100%" y2="100%">
      <stop offset="0%" style="stop-color:#6b7280;stop-opacity:1" />
      <stop offset="100%" style="stop-color:#4b5563;stop-opacity:1" />
    </linearGradient>
    
    <!-- CPU 그라디언트 -->
    <linearGradient id="cpuGrad" x1="0%" y1="0%" x2="100%" y2="100%">
      <stop offset="0%" style="stop-color:#3b82f6;stop-opacity:1" />
      <stop offset="100%" style="stop-color:#60a5fa;stop-opacity:1" />
    </linearGradient>
    
    <!-- Memory 그라디언트 -->
    <linearGradient id="memoryGrad" x1="0%" y1="0%" x2="100%" y2="100%">
      <stop offset="0%" style="stop-color:#10b981;stop-opacity:1" />
      <stop offset="100%" style="stop-color:#34d399;stop-opacity:1" />
    </linearGradient>
    
    <!-- Storage 그라디언트 -->
    <linearGradient id="storageGrad" x1="0%" y1="0%" x2="100%" y2="100%">
      <stop offset="0%" style="stop-color:#8b5cf6;stop-opacity:1" />
      <stop offset="100%" style="stop-color:#a78bfa;stop-opacity:1" />
    </linearGradient>
    
    <!-- Network 그라디언트 -->
    <linearGradient id="networkGrad" x1="0%" y1="0%" x2="100%" y2="100%">
      <stop offset="0%" style="stop-color:#f59e0b;stop-opacity:1" />
      <stop offset="100%" style="stop-color:#fbbf24;stop-opacity:1" />
    </linearGradient>
    
    <!-- 그림자 필터 -->
    <filter id="shadowSm" x="-50%" y="-50%" width="200%" height="200%">
      <feDropShadow dx="0" dy="1" stdDeviation="2" flood-color="rgba(0,0,0,0.05)"/>
    </filter>
    
    <filter id="shadowMd" x="-50%" y="-50%" width="200%" height="200%">
      <feDropShadow dx="0" dy="4" stdDeviation="6" flood-color="rgba(0,0,0,0.07)"/>
    </filter>
    
    <filter id="shadowLg" x="-50%" y="-50%" width="200%" height="200%">
      <feDropShadow dx="0" dy="10" stdDeviation="15" flood-color="rgba(0,0,0,0.1)"/>
    </filter>
    
    <filter id="shadowXl" x="-50%" y="-50%" width="200%" height="200%">
      <feDropShadow dx="0" dy="20" stdDeviation="25" flood-color="rgba(0,0,0,0.1)"/>
    </filter>
    
    <!-- 블러 필터 -->
    <filter id="blur20">
      <feGaussianBlur stdDeviation="10"/>
    </filter>
  </defs>
  
  <!-- 메인 배경 -->
  <rect width="1920" height="1080" fill="url(#mainBg)"/>
  
  <!-- 사이드바 -->
  <g id="sidebar">
    <!-- 사이드바 배경 -->
    <rect x="0" y="0" width="280" height="1080" fill="url(#sidebarBg)" filter="url(#shadowXl)"/>
    
    <!-- 사이드바 헤더 -->
    <g id="sidebar-header" transform="translate(24, 24)">
      <!-- 로고 -->
      <g id="logo">
        <!-- 로고 아이콘 -->
        <rect x="0" y="0" width="40" height="40" rx="12" fill="url(#navActiveGrad)"/>
        <text x="20" y="28" font-family="Inter, Arial, sans-serif" font-size="16" font-weight="700" fill="#ffffff" text-anchor="middle">KT</text>
        
        <!-- 로고 텍스트 -->
        <text x="52" y="28" font-family="Inter, Arial, sans-serif" font-size="20" font-weight="700" fill="#1a202c">AMP</text>
      </g>
    </g>
    
    <!-- 구분선 -->
    <line x1="0" y1="88" x2="280" y2="88" stroke="#e5e7eb" stroke-width="1"/>
    
    <!-- 네비게이션 -->
    <g id="navigation" transform="translate(0, 104)">
      <!-- 공통메뉴 섹션 -->
      <g id="common-section" transform="translate(0, 16)">
        <text x="24" y="15" font-family="Inter, Arial, sans-serif" font-size="12" font-weight="600" fill="#6b7280" text-transform="uppercase" letter-spacing="0.5">
          공통메뉴
        </text>
        
        <g transform="translate(16, 28)">
          <rect x="0" y="0" width="248" height="44" rx="12" fill="transparent"/>
          <g transform="translate(12, 12)">
            <!-- 홈 아이콘 -->
            <path d="M3 12l2-2m0 0l7-7 7 7M5 10v10a1 1 0 001 1h3m0 0a1 1 0 001-1v-4a1 1 0 011-1h2a1 1 0 011 1v4a1 1 0 001 1h3a1 1 0 001-1V10" stroke="rgba(26,32,44,0.7)" stroke-width="2" fill="none" transform="scale(0.8)"/>
          </g>
          <text x="36" y="26" font-family="Inter, Arial, sans-serif" font-size="14" font-weight="500" fill="rgba(26,32,44,0.7)">홈</text>
        </g>
      </g>
      
      <!-- 프로젝트 관리자메뉴 섹션 -->
      <g id="project-section" transform="translate(0, 120)">
        <text x="24" y="15" font-family="Inter, Arial, sans-serif" font-size="12" font-weight="600" fill="#6b7280" text-transform="uppercase" letter-spacing="0.5">
          프로젝트 관리자메뉴
        </text>
        
        <!-- 라이선스 관리 -->
        <g transform="translate(16, 28)">
          <rect x="0" y="0" width="248" height="44" rx="12" fill="transparent"/>
          <g transform="translate(12, 12)">
            <!-- 키 아이콘 -->
            <path d="M15 7a8 8 0 11-16 0 8 8 0 0116 0zM9 7a2 2 0 11-4 0 2 2 0 014 0z" fill="rgba(26,32,44,0.7)" transform="scale(0.8)"/>
            <path d="M15 7h4a2 2 0 012 2v6a2 2 0 01-2 2h-4m-6-4h6m-6-4h6m-6 8h6" stroke="rgba(26,32,44,0.7)" stroke-width="2" fill="none" transform="scale(0.8)"/>
          </g>
          <text x="36" y="26" font-family="Inter, Arial, sans-serif" font-size="14" font-weight="500" fill="rgba(26,32,44,0.7)">라이선스 관리</text>
        </g>
        
        <!-- AI학습 관리 -->
        <g transform="translate(16, 80)">
          <rect x="0" y="0" width="248" height="44" rx="12" fill="transparent"/>
          <g transform="translate(12, 12)">
            <!-- 뇌 아이콘 -->
            <path d="M12 2C6.48 2 2 6.48 2 12s4.48 10 10 10c1.18 0 2.34-.21 3.41-.6.24-.09.49-.04.68.15.81.81 1.91 1.3 3.12 1.3 2.42 0 4.38-1.96 4.38-4.38 0-1.21-.49-2.31-1.3-3.12-.19-.19-.24-.44-.15-.68.39-1.07.6-2.23.6-3.41 0-5.52-4.48-10-10-10z" fill="rgba(26,32,44,0.7)" transform="scale(0.8)"/>
          </g>
          <text x="36" y="26" font-family="Inter, Arial, sans-serif" font-size="14" font-weight="500" fill="rgba(26,32,44,0.7)">AI학습 관리</text>
        </g>
        
        <!-- 시스템 모니터링 (활성화) -->
        <g transform="translate(16, 132)">
          <rect x="0" y="0" width="248" height="44" rx="12" fill="url(#navActiveGrad)" filter="url(#shadowLg)"/>
          <g transform="translate(12, 12)">
            <!-- 서버 아이콘 -->
            <path d="M5 12V7a1 1 0 011-1h12a1 1 0 011 1v5M5 12l0 5a1 1 0 001 1h12a1 1 0 001-1v-5M5 12h14m-9-3v.01M8 9v.01M7 15v.01M10 15v.01" stroke="#ffffff" stroke-width="2" fill="none" transform="scale(0.8)"/>
          </g>
          <text x="36" y="26" font-family="Inter, Arial, sans-serif" font-size="14" font-weight="500" fill="#ffffff">시스템 모니터링</text>
        </g>
        
        <!-- 운영관리 -->
        <g transform="translate(16, 184)">
          <rect x="0" y="0" width="248" height="44" rx="12" fill="transparent"/>
          <g transform="translate(12, 12)">
            <!-- 설정 아이콘 -->
            <path d="M10.325 4.317c.426-1.756 2.924-1.756 3.35 0a1.724 1.724 0 002.573 1.066c1.543-.94 3.31.826 2.37 2.37a1.724 1.724 0 001.065 2.572c1.756.426 1.756 2.924 0 3.35a1.724 1.724 0 00-1.066 2.573c.94 1.543-.826 3.31-2.37 2.37a1.724 1.724 0 00-2.572 1.065c-.426 1.756-2.924 1.756-3.35 0a1.724 1.724 0 00-2.573-1.066c-1.543.94-3.31-.826-2.37-2.37a1.724 1.724 0 00-1.065-2.572c-1.756-.426-1.756-2.924 0-3.35a1.724 1.724 0 001.066-2.573c-.94-1.543.826-3.31 2.37-2.37.996.608 2.296.07 2.572-1.065z" fill="rgba(26,32,44,0.7)" transform="scale(0.8)"/>
            <circle cx="12" cy="12" r="3" stroke="#ffffff" stroke-width="2" fill="none" transform="scale(0.8)"/>
          </g>
          <text x="36" y="26" font-family="Inter, Arial, sans-serif" font-size="14" font-weight="500" fill="rgba(26,32,44,0.7)">운영관리</text>
        </g>
      </g>
    </g>
  </g>
  
  <!-- 메인 컨텐츠 -->
  <g id="main-content" transform="translate(280, 0)">
    
    <!-- 헤더 -->
    <g id="header">
      <rect x="0" y="0" width="1640" height="72" fill="url(#headerBg)" filter="url(#blur20)"/>
      <line x1="0" y1="72" x2="1640" y2="72" stroke="rgba(255,255,255,0.2)" stroke-width="1"/>
      
      <!-- 헤더 좌측 -->
      <g id="header-left" transform="translate(32, 24)">
        <!-- 브레드크럼 -->
        <g id="breadcrumb">
          <text x="0" y="12" font-family="Inter, Arial, sans-serif" font-size="14" fill="rgba(26,32,44,0.7)">홈</text>
          <text x="24" y="12" font-family="Inter, Arial, sans-serif" font-size="14" fill="#9ca3af">/</text>
          <text x="36" y="12" font-family="Inter, Arial, sans-serif" font-size="14" fill="rgba(26,32,44,0.7)">프로젝트 관리자메뉴</text>
          <text x="148" y="12" font-family="Inter, Arial, sans-serif" font-size="14" fill="#9ca3af">/</text>
          <text x="160" y="12" font-family="Inter, Arial, sans-serif" font-size="14" fill="rgba(26,32,44,0.7)">시스템 모니터링</text>
        </g>
      </g>
      
      <!-- 헤더 우측 -->
      <g id="header-right" transform="translate(1400, 18)">
        <!-- 상태 인디케이터 -->
        <rect x="0" y="0" width="170" height="36" rx="12" fill="rgba(72,187,120,0.1)"/>
        <circle cx="16" cy="18" r="4" fill="#48bb78">
          <animate attributeName="opacity" values="1;0.5;1" dur="2s" repeatCount="indefinite"/>
        </circle>
        <text x="28" y="22" font-family="Inter, Arial, sans-serif" font-size="14" font-weight="500" fill="#48bb78">KT-STT 서비스 정상</text>
        
        <!-- 사용자 아바타 -->
        <circle cx="198" cy="18" r="18" fill="url(#navActiveGrad)"/>
        <text x="198" y="24" font-family="Inter, Arial, sans-serif" font-size="14" font-weight="600" fill="#ffffff" text-anchor="middle">홍</text>
      </g>
    </g>
    
    <!-- 페이지 헤더 -->
    <g id="page-header" transform="translate(32, 104)">
      <!-- 서버 아이콘 -->
      <g transform="translate(0, 8)">
        <circle cx="16" cy="16" r="16" fill="rgba(107, 114, 128, 0.1)"/>
        <path d="M5 12V7a1 1 0 011-1h12a1 1 0 011 1v5M5 12l0 5a1 1 0 001 1h12a1 1 0 001-1v-5M5 12h14m-9-3v.01M8 9v.01M7 15v.01M10 15v.01" stroke="#6b7280" stroke-width="1.5" fill="none" transform="scale(0.8) translate(4, 4)"/>
      </g>
      
      <text x="48" y="28" font-family="Inter, Arial, sans-serif" font-size="28" font-weight="700" fill="#1a202c">시스템 모니터링 대시보드</text>
      <text x="0" y="56" font-family="Inter, Arial, sans-serif" font-size="16" fill="rgba(26,32,44,0.7)">실시간 하드웨어 리소스 및 성능 현황을 모니터링합니다</text>
    </g>
    
    <!-- 메트릭 그리드 -->
    <g id="metrics-grid" transform="translate(32, 192)">
      
      <!-- CPU 메트릭 카드 -->
      <g id="cpu-metric">
        <rect x="0" y="0" width="379" height="200" rx="16" fill="#ffffff" filter="url(#shadowLg)"/>
        <!-- 상단 컬러 바 -->
        <rect x="0" y="0" width="379" height="4" rx="16" fill="#3b82f6"/>
        
        <!-- 헤더 -->
        <g transform="translate(24, 24)">
          <!-- 아이콘 컨테이너 -->
          <rect x="283" y="0" width="48" height="48" rx="12" fill="url(#cpuGrad)"/>
          <!-- CPU 아이콘 -->
          <g transform="translate(299, 12)">
            <rect x="0" y="0" width="16" height="12" rx="2" fill="#ffffff"/>
            <rect x="2" y="2" width="4" height="2" fill="#3b82f6"/>
            <rect x="8" y="2" width="4" height="2" fill="#3b82f6"/>
            <rect x="2" y="6" width="4" height="2" fill="#3b82f6"/>
            <rect x="8" y="6" width="4" height="2" fill="#3b82f6"/>
          </g>
          
          <!-- 정보 -->
          <text x="0" y="20" font-family="Inter, Arial, sans-serif" font-size="16" font-weight="600" fill="#1a202c">CPU 사용률</text>
          <text x="0" y="36" font-family="Inter, Arial, sans-serif" font-size="13" fill="rgba(26,32,44,0.7)">전체 서버 평균 CPU 사용량</text>
        </g>
        
        <!-- 값 -->
        <text x="24" y="120" font-family="Inter, Arial, sans-serif" font-size="32" font-weight="700" fill="#3b82f6">45.2%</text>
        
        <!-- 상세 정보 -->
        <g transform="translate(24, 140)">
          <!-- 변화량 -->
          <g>
            <path d="M7 14l-4-4m0 0l4-4m-4 4h18" stroke="#48bb78" stroke-width="1.5" fill="none" transform="scale(0.6) rotate(270) translate(-8, 0)"/>
            <text x="20" y="15" font-family="Inter, Arial, sans-serif" font-size="13" font-weight="500" fill="#48bb78">2.3% 감소</text>
          </g>
          <!-- 상태 배지 -->
          <rect x="250" y="0" width="105" height="24" rx="8" fill="rgba(72,187,120,0.1)"/>
          <text x="280" y="16" font-family="Inter, Arial, sans-serif" font-size="11" font-weight="600" fill="#48bb78" text-transform="uppercase" letter-spacing="0.5">EXCELLENT</text>
        </g>
        
        <!-- 프로그레스 바 -->
        <g transform="translate(24, 168)">
          <rect x="0" y="0" width="331" height="8" rx="4" fill="#f3f4f6"/>
          <rect x="0" y="0" width="150" height="8" rx="4" fill="url(#cpuGrad)"/>
        </g>
      </g>
      
      <!-- Memory 메트릭 카드 -->
      <g id="memory-metric" transform="translate(411, 0)">
        <rect x="0" y="0" width="379" height="200" rx="16" fill="#ffffff" filter="url(#shadowLg)"/>
        <!-- 상단 컬러 바 -->
        <rect x="0" y="0" width="379" height="4" rx="16" fill="#10b981"/>
        
        <!-- 헤더 -->
        <g transform="translate(24, 24)">
          <!-- 아이콘 컨테이너 -->
          <rect x="283" y="0" width="48" height="48" rx="12" fill="url(#memoryGrad)"/>
          <!-- Memory 아이콘 -->
          <g transform="translate(295, 14)">
            <rect x="0" y="0" width="20" height="12" rx="2" fill="#ffffff"/>
            <rect x="2" y="2" width="2" height="8" fill="#10b981"/>
            <rect x="6" y="2" width="2" height="8" fill="#10b981"/>
            <rect x="10" y="2" width="2" height="8" fill="#10b981"/>
            <rect x="14" y="2" width="2" height="8" fill="#10b981"/>
          </g>
          
          <!-- 정보 -->
          <text x="0" y="20" font-family="Inter, Arial, sans-serif" font-size="16" font-weight="600" fill="#1a202c">메모리 사용률</text>
          <text x="0" y="36" font-family="Inter, Arial, sans-serif" font-size="13" fill="rgba(26,32,44,0.7)">전체 서버 평균 메모리 사용량</text>
        </g>
        
        <!-- 값 -->
        <text x="24" y="120" font-family="Inter, Arial, sans-serif" font-size="32" font-weight="700" fill="#10b981">68.7%</text>
        
        <!-- 상세 정보 -->
        <g transform="translate(24, 140)">
          <!-- 변화량 -->
          <g>
            <path d="M7 14l-4-4m0 0l4-4m-4 4h18" stroke="#f56565" stroke-width="1.5" fill="none" transform="scale(0.6) rotate(90) translate(-8, 0)"/>
            <text x="20" y="15" font-family="Inter, Arial, sans-serif" font-size="13" font-weight="500" fill="#f56565">5.1% 증가</text>
          </g>
          <!-- 상태 배지 -->
          <rect x="280" y="0" width="75" height="24" rx="8" fill="rgba(72,187,120,0.1)"/>
          <text x="300" y="16" font-family="Inter, Arial, sans-serif" font-size="11" font-weight="600" fill="#48bb78" text-transform="uppercase" letter-spacing="0.5">GOOD</text>
        </g>
        
        <!-- 프로그레스 바 -->
        <g transform="translate(24, 168)">
          <rect x="0" y="0" width="331" height="8" rx="4" fill="#f3f4f6"/>
          <rect x="0" y="0" width="227" height="8" rx="4" fill="url(#memoryGrad)"/>
        </g>
      </g>
      
      <!-- Storage 메트릭 카드 -->
      <g id="storage-metric" transform="translate(822, 0)">
        <rect x="0" y="0" width="379" height="200" rx="16" fill="#ffffff" filter="url(#shadowLg)"/>
        <!-- 상단 컬러 바 -->
        <rect x="0" y="0" width="379" height="4" rx="16" fill="#8b5cf6"/>
        
        <!-- 헤더 -->
        <g transform="translate(24, 24)">
          <!-- 아이콘 컨테이너 -->
          <rect x="283" y="0" width="48" height="48" rx="12" fill="url(#storageGrad)"/>
          <!-- Storage 아이콘 -->
          <g transform="translate(295, 16)">
            <rect x="0" y="0" width="20" height="16" rx="2" fill="#ffffff"/>
            <rect x="2" y="2" width="16" height="2" fill="#8b5cf6"/>
            <rect x="2" y="6" width="16" height="2" fill="#8b5cf6"/>
            <rect x="2" y="10" width="16" height="2" fill="#8b5cf6"/>
          </g>
          
          <!-- 정보 -->
          <text x="0" y="20" font-family="Inter, Arial, sans-serif" font-size="16" font-weight="600" fill="#1a202c">스토리지 사용률</text>
          <text x="0" y="36" font-family="Inter, Arial, sans-serif" font-size="13" fill="rgba(26,32,44,0.7)">전체 디스크 평균 사용량</text>
        </g>
        
        <!-- 값 -->
        <text x="24" y="120" font-family="Inter, Arial, sans-serif" font-size="32" font-weight="700" fill="#8b5cf6">34.8%</text>
        
        <!-- 상세 정보 -->
        <g transform="translate(24, 140)">
          <!-- 변화량 -->
          <g>
            <path d="M7 14l-4-4m0 0l4-4m-4 4h18" stroke="#48bb78" stroke-width="1.5" fill="none" transform="scale(0.6) rotate(270) translate(-8, 0)"/>
            <text x="20" y="15" font-family="Inter, Arial, sans-serif" font-size="13" font-weight="500" fill="#48bb78">1.2% 감소</text>
          </g>
          <!-- 상태 배지 -->
          <rect x="250" y="0" width="105" height="24" rx="8" fill="rgba(72,187,120,0.1)"/>
          <text x="280" y="16" font-family="Inter, Arial, sans-serif" font-size="11" font-weight="600" fill="#48bb78" text-transform="uppercase" letter-spacing="0.5">EXCELLENT</text>
        </g>
        
        <!-- 프로그레스 바 -->
        <g transform="translate(24, 168)">
          <rect x="0" y="0" width="331" height="8" rx="4" fill="#f3f4f6"/>
          <rect x="0" y="0" width="115" height="8" rx="4" fill="url(#storageGrad)"/>
        </g>
      </g>
      
      <!-- Network 메트릭 카드 -->
      <g id="network-metric" transform="translate(1233, 0)">
        <rect x="0" y="0" width="375" height="200" rx="16" fill="#ffffff" filter="url(#shadowLg)"/>
        <!-- 상단 컬러 바 -->
        <rect x="0" y="0" width="375" height="4" rx="16" fill="#f59e0b"/>
        
        <!-- 헤더 -->
        <g transform="translate(24, 24)">
          <!-- 아이콘 컨테이너 -->
          <rect x="279" y="0" width="48" height="48" rx="12" fill="url(#networkGrad)"/>
          <!-- Network 아이콘 -->
          <g transform="translate(295, 16)">
            <rect x="2" y="8" width="2" height="8" fill="#ffffff"/>
            <rect x="6" y="4" width="2" height="12" fill="#ffffff"/>
            <rect x="10" y="0" width="2" height="16" fill="#ffffff"/>
            <rect x="14" y="2" width="2" height="14" fill="#ffffff"/>
          </g>
          
          <!-- 정보 -->
          <text x="0" y="20" font-family="Inter, Arial, sans-serif" font-size="16" font-weight="600" fill="#1a202c">네트워크 사용률</text>
          <text x="0" y="36" font-family="Inter, Arial, sans-serif" font-size="13" fill="rgba(26,32,44,0.7)">전체 네트워크 트래픽</text>
        </g>
        
        <!-- 값 -->
        <text x="24" y="120" font-family="Inter, Arial, sans-serif" font-size="32" font-weight="700" fill="#f59e0b">23.1%</text>
        
        <!-- 상세 정보 -->
        <g transform="translate(24, 140)">
          <!-- 변화량 -->
          <g>
            <path d="M7 14l-4-4m0 0l4-4m-4 4h18" stroke="#48bb78" stroke-width="1.5" fill="none" transform="scale(0.6) rotate(90) translate(-8, 0)"/>
            <text x="20" y="15" font-family="Inter, Arial, sans-serif" font-size="13" font-weight="500" fill="#48bb78">7.4% 증가</text>
          </g>
          <!-- 상태 배지 -->
          <rect x="246" y="0" width="105" height="24" rx="8" fill="rgba(72,187,120,0.1)"/>
          <text x="276" y="16" font-family="Inter, Arial, sans-serif" font-size="11" font-weight="600" fill="#48bb78" text-transform="uppercase" letter-spacing="0.5">EXCELLENT</text>
        </g>
        
        <!-- 프로그레스 바 -->
        <g transform="translate(24, 168)">
          <rect x="0" y="0" width="327" height="8" rx="4" fill="#f3f4f6"/>
          <rect x="0" y="0" width="76" height="8" rx="4" fill="url(#networkGrad)"/>
        </g>
      </g>
      
    </g>
    
    <!-- 차트 섹션 -->
    <g id="charts-section" transform="translate(32, 424)">
      
      <!-- 차트 카드 -->
      <g id="chart-card">
        <rect x="0" y="0" width="1576" height="444" rx="16" fill="#ffffff" filter="url(#shadowLg)"/>
        
        <!-- 차트 헤더 -->
        <g transform="translate(24, 24)">
          <!-- 차트 아이콘과 제목 -->
          <g>
            <g transform="translate(0, 4)">
              <rect x="0" y="0" width="20" height="16" rx="2" fill="#6b7280"/>
              <path d="M3 8l3 3 3-3 3 3" stroke="#ffffff" stroke-width="2" fill="none" transform="translate(2, -1)"/>
            </g>
            <text x="32" y="20" font-family="Inter, Arial, sans-serif" font-size="20" font-weight="700" fill="#1a202c">시스템 리소스 추이</text>
          </g>
          
          <!-- 차트 컨트롤 -->
          <g id="chart-controls" transform="translate(1368, 0)">
            <rect x="0" y="0" width="50" height="32" rx="8" fill="#ffffff" stroke="#e5e7eb"/>
            <text x="25" y="20" font-family="Inter, Arial, sans-serif" font-size="13" font-weight="500" fill="rgba(26,32,44,0.7)" text-anchor="middle">1시간</text>
            
            <rect x="58" y="0" width="50" height="32" rx="8" fill="url(#navActiveGrad)"/>
            <text x="83" y="20" font-family="Inter, Arial, sans-serif" font-size="13" font-weight="500" fill="#ffffff" text-anchor="middle">6시간</text>
            
            <rect x="116" y="0" width="60" height="32" rx="8" fill="#ffffff" stroke="#e5e7eb"/>
            <text x="146" y="20" font-family="Inter, Arial, sans-serif" font-size="13" font-weight="500" fill="rgba(26,32,44,0.7)" text-anchor="middle">24시간</text>
            
            <rect x="184" y="0" width="40" height="32" rx="8" fill="#ffffff" stroke="#e5e7eb"/>
            <text x="204" y="20" font-family="Inter, Arial, sans-serif" font-size="13" font-weight="500" fill="rgba(26,32,44,0.7)" text-anchor="middle">7일</text>
          </g>
        </g>
        
        <!-- 차트 영역 -->
        <g transform="translate(24, 64)">
          <rect x="0" y="0" width="1528" height="356" rx="8" fill="#f9fafb"/>
          
          <!-- 라인 차트 시뮬레이션 -->
          <g transform="translate(60, 40)">
            <!-- Y축 라벨 -->
            <text x="-40" y="50" font-family="Inter, Arial, sans-serif" font-size="11" fill="#9ca3af" text-anchor="end">100%</text>
            <text x="-40" y="120" font-family="Inter, Arial, sans-serif" font-size="11" fill="#9ca3af" text-anchor="end">75%</text>
            <text x="-40" y="190" font-family="Inter, Arial, sans-serif" font-size="11" fill="#9ca3af" text-anchor="end">50%</text>
            <text x="-40" y="260" font-family="Inter, Arial, sans-serif" font-size="11" fill="#9ca3af" text-anchor="end">25%</text>
            <text x="-40" y="296" font-family="Inter, Arial, sans-serif" font-size="11" fill="#9ca3af" text-anchor="end">0%</text>
            
            <!-- 격자 -->
            <line x1="0" y1="50" x2="1408" y2="50" stroke="rgba(0,0,0,0.05)" stroke-width="1"/>
            <line x1="0" y1="120" x2="1408" y2="120" stroke="rgba(0,0,0,0.05)" stroke-width="1"/>
            <line x1="0" y1="190" x2="1408" y2="190" stroke="rgba(0,0,0,0.05)" stroke-width="1"/>
            <line x1="0" y1="260" x2="1408" y2="260" stroke="rgba(0,0,0,0.05)" stroke-width="1"/>
            <line x1="0" y1="296" x2="1408" y2="296" stroke="rgba(0,0,0,0.05)" stroke-width="1"/>
            
            <!-- CPU 라인 (45.2% = 약 180px 위치) -->
            <polyline points="0,180 176,170 352,178 528,168 704,175 880,165 1056,162 1232,158 1408,160" 
                      fill="none" stroke="#3b82f6" stroke-width="3" opacity="0.9"/>
            
            <!-- Memory 라인 (68.7% = 약 128px 위치) -->
            <polyline points="0,128 176,123 352,133 528,118 704,128 880,113 1056,108 1232,103 1408,105" 
                      fill="none" stroke="#10b981" stroke-width="3" opacity="0.9"/>
            
            <!-- Storage 라인 (34.8% = 약 210px 위치) -->
            <polyline points="0,210 176,205 352,200 528,195 704,190 880,185 1056,180 1232,175 1408,178" 
                      fill="none" stroke="#8b5cf6" stroke-width="3" opacity="0.9"/>
            
            <!-- Network 라인 (23.1% = 약 238px 위치) -->
            <polyline points="0,238 176,233 352,243 528,228 704,248 880,223 1056,218 1232,213 1408,220" 
                      fill="none" stroke="#f59e0b" stroke-width="3" opacity="0.9"/>
          </g>
          
          <!-- 범례 -->
          <g transform="translate(60, 320)">
            <g>
              <circle cx="0" cy="0" r="5" fill="#3b82f6"/>
              <text x="15" y="5" font-family="Inter, Arial, sans-serif" font-size="12" font-weight="500" fill="rgba(26,32,44,0.7)">CPU (45.2%)</text>
            </g>
            
            <g transform="translate(120, 0)">
              <circle cx="0" cy="0" r="5" fill="#10b981"/>
              <text x="15" y="5" font-family="Inter, Arial, sans-serif" font-size="12" font-weight="500" fill="rgba(26,32,44,0.7)">Memory (68.7%)</text>
            </g>
            
            <g transform="translate(260, 0)">
              <circle cx="0" cy="0" r="5" fill="#8b5cf6"/>
              <text x="15" y="5" font-family="Inter, Arial, sans-serif" font-size="12" font-weight="500" fill="rgba(26,32,44,0.7)">Storage (34.8%)</text>
            </g>
            
            <g transform="translate(400, 0)">
              <circle cx="0" cy="0" r="5" fill="#f59e0b"/>
              <text x="15" y="5" font-family="Inter, Arial, sans-serif" font-size="12" font-weight="500" fill="rgba(26,32,44,0.7)">Network (23.1%)</text>
            </g>
          </g>
        </g>
      </g>
      
    </g>
    
    <!-- 서버 현황 섹션 -->
    <g id="server-section" transform="translate(32, 900)">
      
      <!-- 서버 현황 카드 -->
      <g id="server-status">
        <rect x="0" y="0" width="1576" height="164" rx="16" fill="#ffffff" filter="url(#shadowLg)"/>
        
        <!-- 헤더 -->
        <rect x="0" y="0" width="1576" height="64" rx="16" fill="#f9fafb"/>
        <g transform="translate(24, 20)">
          <g transform="translate(0, 4)">
            <path d="M5 12V7a1 1 0 011-1h12a1 1 0 011 1v5M5 12l0 5a1 1 0 001 1h12a1 1 0 001-1v-5M5 12h14m-9-3v.01M8 9v.01M7 15v.01M10 15v.01" stroke="#6b7280" stroke-width="1.5" fill="none" transform="scale(1.2)"/>
          </g>
          <text x="32" y="22" font-family="Inter, Arial, sans-serif" font-size="18" font-weight="600" fill="#1a202c">서버 현황</text>
        </g>
        
        <!-- 서버 목록 -->
        <g transform="translate(24, 80)">
          <!-- 서버 1 - c-pod-487 -->
          <g>
            <rect x="0" y="0" width="500" height="20" rx="12" fill="#f9fafb"/>
            <circle cx="16" cy="10" r="6" fill="#48bb78"/>
            <circle cx="16" cy="10" r="10" fill="none" stroke="rgba(72,187,120,0.2)" stroke-width="2"/>
            <text x="36" y="8" font-family="Inter, Arial, sans-serif" font-size="14" font-weight="600" fill="#1a202c">c-pod-487</text>
            <g transform="translate(150, 0)">
              <text x="0" y="8" font-family="Inter, Arial, sans-serif" font-size="13" fill="rgba(26,32,44,0.7)">CPU: 42%</text>
              <text x="80" y="8" font-family="Inter, Arial, sans-serif" font-size="13" fill="rgba(26,32,44,0.7)">MEM: 65%</text>
              <text x="160" y="8" font-family="Inter, Arial, sans-serif" font-size="13" fill="rgba(26,32,44,0.7)">DISK: 28%</text>
            </g>
          </g>
          
          <!-- 서버 2 - c-pod-49 -->
          <g transform="translate(520, 0)">
            <rect x="0" y="0" width="500" height="20" rx="12" fill="#f9fafb"/>
            <circle cx="16" cy="10" r="6" fill="#48bb78"/>
            <circle cx="16" cy="10" r="10" fill="none" stroke="rgba(72,187,120,0.2)" stroke-width="2"/>
            <text x="36" y="8" font-family="Inter, Arial, sans-serif" font-size="14" font-weight="600" fill="#1a202c">c-pod-49</text>
            <g transform="translate(150, 0)">
              <text x="0" y="8" font-family="Inter, Arial, sans-serif" font-size="13" fill="rgba(26,32,44,0.7)">CPU: 48%</text>
              <text x="80" y="8" font-family="Inter, Arial, sans-serif" font-size="13" fill="rgba(26,32,44,0.7)">MEM: 72%</text>
              <text x="160" y="8" font-family="Inter, Arial, sans-serif" font-size="13" fill="rgba(26,32,44,0.7)">DISK: 41%</text>
            </g>
          </g>
          
          <!-- 서버 3 - c-pod-50 (경고) -->
          <g transform="translate(1040, 0)">
            <rect x="0" y="0" width="500" height="20" rx="12" fill="#fffbeb"/>
            <circle cx="16" cy="10" r="6" fill="#ed8936"/>
            <circle cx="16" cy="10" r="10" fill="none" stroke="rgba(237,137,54,0.2)" stroke-width="2"/>
            <text x="36" y="8" font-family="Inter, Arial, sans-serif" font-size="14" font-weight="600" fill="#1a202c">c-pod-50</text>
            <g transform="translate(150, 0)">
              <text x="0" y="8" font-family="Inter, Arial, sans-serif" font-size="13" fill="rgba(26,32,44,0.7)">CPU: 76%</text>
              <text x="80" y="8" font-family="Inter, Arial, sans-serif" font-size="13" fill="rgba(26,32,44,0.7)">MEM: 89%</text>
              <text x="160" y="8" font-family="Inter, Arial, sans-serif" font-size="13" fill="rgba(26,32,44,0.7)">DISK: 33%</text>
            </g>
          </g>
        </g>
      </g>
      
    </g>
    
  </g>
  
</svg>
