<?xml version="1.0" encoding="UTF-8"?>
<svg width="650" height="75vh" viewBox="0 0 650 600" xmlns="http://www.w3.org/2000/svg">
  <!-- Background -->
  <rect width="650" height="600" fill="white" rx="12" ry="12"/>
  
  <!-- Header -->
  <rect x="0" y="0" width="650" height="60" fill="white" rx="12" ry="12"/>
  <text x="325" y="35" text-anchor="middle" font-family="Arial, sans-serif" font-size="18" font-weight="600" fill="#1f2937">서비스-모델 연결관계</text>
  <circle cx="620" cy="30" r="15" fill="#f3f4f6"/>
  <text x="620" y="35" text-anchor="middle" font-family="Arial, sans-serif" font-size="16" fill="#374151">×</text>
  
  <!-- Legend -->
  <rect x="20" y="80" width="610" height="50" fill="#f8f9fa" rx="8" ry="8"/>
  <circle cx="50" cy="105" r="8" fill="#f59e0b"/>
  <text x="70" y="110" font-family="Arial, sans-serif" font-size="14" font-weight="500" fill="#374151">서비스 <tspan font-weight="700" fill="#3b82f6">8</tspan>개</text>
  <circle cx="350" cy="105" r="8" fill="#10b981"/>
  <text x="370" y="110" font-family="Arial, sans-serif" font-size="14" font-weight="500" fill="#374151">모델 <tspan font-weight="700" fill="#3b82f6">12</tspan>개</text>
  
  <!-- Filter Controls -->
  <rect x="20" y="150" width="610" height="80" fill="#f8f9fa" rx="8" ry="8"/>
  
  <!-- Service Filters -->
  <text x="30" y="170" font-family="Arial, sans-serif" font-size="14" font-weight="600" fill="#374151">서비스 필터</text>
  <rect x="30" y="180" width="60" height="25" fill="#3b82f6" rx="15" ry="15"/>
  <rect x="35" y="185" width="12" height="12" fill="white" rx="2" ry="2"/>
  <text x="50" y="195" font-family="Arial, sans-serif" font-size="10" fill="white">서비스1</text>
  
  <rect x="100" y="180" width="60" height="25" fill="#3b82f6" rx="15" ry="15"/>
  <rect x="105" y="185" width="12" height="12" fill="white" rx="2" ry="2"/>
  <text x="120" y="195" font-family="Arial, sans-serif" font-size="10" fill="white">서비스2</text>
  
  <rect x="170" y="180" width="60" height="25" fill="#3b82f6" rx="15" ry="15"/>
  <rect x="175" y="185" width="12" height="12" fill="white" rx="2" ry="2"/>
  <text x="190" y="195" font-family="Arial, sans-serif" font-size="10" fill="white">서비스3</text>
  
  <rect x="240" y="180" width="60" height="25" fill="#3b82f6" rx="15" ry="15"/>
  <rect x="245" y="185" width="12" height="12" fill="white" rx="2" ry="2"/>
  <text x="260" y="195" font-family="Arial, sans-serif" font-size="10" fill="white">서비스4</text>
  
  <!-- Model Filters -->
  <text x="350" y="170" font-family="Arial, sans-serif" font-size="14" font-weight="600" fill="#374151">모델 필터</text>
  <rect x="350" y="180" width="60" height="25" fill="#3b82f6" rx="15" ry="15"/>
  <rect x="355" y="185" width="12" height="12" fill="white" rx="2" ry="2"/>
  <text x="370" y="195" font-family="Arial, sans-serif" font-size="10" fill="white">통합1</text>
  
  <rect x="420" y="180" width="60" height="25" fill="#3b82f6" rx="15" ry="15"/>
  <rect x="425" y="185" width="12" height="12" fill="white" rx="2" ry="2"/>
  <text x="440" y="195" font-family="Arial, sans-serif" font-size="10" fill="white">주소2</text>
  
  <rect x="490" y="180" width="60" height="25" fill="#3b82f6" rx="15" ry="15"/>
  <rect x="495" y="185" width="12" height="12" fill="white" rx="2" ry="2"/>
  <text x="510" y="195" font-family="Arial, sans-serif" font-size="10" fill="white">실시간3</text>
  
  <!-- Diagram Area -->
  <rect x="20" y="250" width="610" height="300" fill="#fafafa" stroke="#e5e7eb" stroke-width="1" rx="0" ry="0"/>
  
  <!-- Sample Nodes -->
  <!-- Service Nodes -->
  <circle cx="150" cy="350" r="22" fill="#f59e0b"/>
  <text x="150" y="355" text-anchor="middle" font-family="Arial, sans-serif" font-size="8" font-weight="600" fill="white">서비스1</text>
  
  <circle cx="300" cy="320" r="22" fill="#f59e0b"/>
  <text x="300" y="325" text-anchor="middle" font-family="Arial, sans-serif" font-size="8" font-weight="600" fill="white">서비스2</text>
  
  <circle cx="450" cy="380" r="22" fill="#f59e0b"/>
  <text x="450" y="385" text-anchor="middle" font-family="Arial, sans-serif" font-size="8" font-weight="600" fill="white">서비스3</text>
  
  <!-- Model Nodes -->
  <circle cx="200" cy="280" r="22" fill="#10b981"/>
  <text x="200" y="285" text-anchor="middle" font-family="Arial, sans-serif" font-size="8" font-weight="600" fill="white">통합1</text>
  
  <circle cx="350" cy="250" r="22" fill="#10b981"/>
  <text x="350" y="255" text-anchor="middle" font-family="Arial, sans-serif" font-size="8" font-weight="600" fill="white">주소2</text>
  
  <circle cx="500" cy="320" r="22" fill="#10b981"/>
  <text x="500" y="325" text-anchor="middle" font-family="Arial, sans-serif" font-size="8" font-weight="600" fill="white">실시간3</text>
  
  <circle cx="250" cy="420" r="22" fill="#10b981"/>
  <text x="250" y="425" text-anchor="middle" font-family="Arial, sans-serif" font-size="8" font-weight="600" fill="white">자연어4</text>
  
  <!-- Connection Lines -->
  <line x1="150" y1="350" x2="200" y2="280" stroke="#3b82f6" stroke-width="2" marker-end="url(#arrowhead)"/>
  <line x1="150" y1="350" x2="350" y2="250" stroke="#3b82f6" stroke-width="2" marker-end="url(#arrowhead)"/>
  <line x1="300" y1="320" x2="200" y2="280" stroke="#3b82f6" stroke-width="2" marker-end="url(#arrowhead)"/>
  <line x1="300" y1="320" x2="500" y2="320" stroke="#3b82f6" stroke-width="2" marker-end="url(#arrowhead)"/>
  <line x1="450" y1="380" x2="500" y2="320" stroke="#3b82f6" stroke-width="2" marker-end="url(#arrowhead)"/>
  <line x1="450" y1="380" x2="250" y2="420" stroke="#3b82f6" stroke-width="2" marker-end="url(#arrowhead)"/>
  
  <!-- Arrow Marker Definition -->
  <defs>
    <marker id="arrowhead" markerWidth="10" markerHeight="7" refX="9" refY="3.5" orient="auto">
      <polygon points="0 0, 10 3.5, 0 7" fill="#3b82f6"/>
    </marker>
  </defs>
  
  <!-- Footer -->
  <rect x="0" y="570" width="650" height="30" fill="#f8f9fa" rx="0" ry="0"/>
  <rect x="290" y="580" width="70" height="30" fill="#6b7280" rx="6" ry="6"/>
  <text x="325" y="600" text-anchor="middle" font-family="Arial, sans-serif" font-size="14" font-weight="500" fill="white">닫기</text>
</svg>
