<?xml version="1.0" encoding="UTF-8"?>
<svg width="1400" height="1600" viewBox="0 0 1400 1600" fill="none" xmlns="http://www.w3.org/2000/svg">
  <!-- Background -->
  <rect width="1400" height="1600" fill="#f8f9fa"/>
  
  <!-- Header -->
  <rect x="20" y="20" width="1360" height="100" rx="8" fill="white" stroke="#e9ecef" stroke-width="1"/>
  <text x="40" y="50" font-family="Arial, sans-serif" font-size="24" font-weight="600" fill="#00d4aa">🖥️ RAPEECH-CPOD 서버 모니터링</text>
  <text x="40" y="75" font-family="Arial, sans-serif" font-size="14" fill="#6c757d">실시간 하드웨어 사용량 모니터링 대시보드</text>
  
  <!-- Controls -->
  <rect x="20" y="140" width="1360" height="80" rx="8" fill="white" stroke="#e9ecef" stroke-width="1"/>
  
  <!-- Status Summary -->
  <g id="status-summary">
    <!-- Total -->
    <rect x="40" y="155" width="100" height="30" rx="15" fill="#e9ecef"/>
    <circle cx="55" cy="170" r="4" fill="#6c757d"/>
    <text x="65" y="175" font-family="Arial, sans-serif" font-size="14" font-weight="500" fill="#495057">전체: 32</text>
    
    <!-- Normal -->
    <rect x="160" y="155" width="110" height="30" rx="15" fill="rgba(46, 213, 115, 0.1)"/>
    <circle cx="175" cy="170" r="4" fill="#2ed573"/>
    <text x="185" y="175" font-family="Arial, sans-serif" font-size="14" font-weight="500" fill="#2ed573">정상: 26</text>
    
    <!-- Warning -->
    <rect x="290" y="155" width="100" height="30" rx="15" fill="rgba(255, 165, 2, 0.1)"/>
    <circle cx="305" cy="170" r="4" fill="#ffa502"/>
    <text x="315" y="175" font-family="Arial, sans-serif" font-size="14" font-weight="500" fill="#ffa502">주의: 5</text>
    
    <!-- Danger -->
    <rect x="410" y="155" width="100" height="30" rx="15" fill="rgba(255, 71, 87, 0.1)"/>
    <circle cx="425" cy="170" r="4" fill="#ff4757"/>
    <text x="435" y="175" font-family="Arial, sans-serif" font-size="14" font-weight="500" fill="#ff4757">위험: 1</text>
  </g>
  
  <!-- Search Box -->
  <rect x="620" y="155" width="250" height="30" rx="4" fill="white" stroke="#dee2e6" stroke-width="2"/>
  <text x="630" y="175" font-family="Arial, sans-serif" font-size="14" fill="#6c757d">서버명 검색...</text>
  <text x="850" y="175" font-family="Arial, sans-serif" font-size="14" fill="#6c757d">🔍</text>
  
  <!-- View Toggle -->
  <rect x="890" y="155" width="120" height="30" rx="4" fill="#e9ecef"/>
  <rect x="895" y="160" width="50" height="20" rx="2" fill="white"/>
  <text x="910" y="173" font-family="Arial, sans-serif" font-size="12" fill="#00d4aa">카드</text>
  <text x="960" y="173" font-family="Arial, sans-serif" font-size="12" fill="#6c757d">히트맵</text>
  
  <!-- Auto Refresh -->
  <circle cx="1050" cy="170" r="6" fill="none" stroke="#00d4aa" stroke-width="2"/>
  <path d="M1045 170 L1050 165 L1055 170 L1050 175 Z" fill="#00d4aa">
    <animateTransform attributeName="transform" type="rotate" values="0 1050 170;360 1050 170" dur="1s" repeatCount="indefinite"/>
  </path>
  <text x="1070" y="175" font-family="Arial, sans-serif" font-size="12" fill="#6c757d">30초마다 자동 새로고침</text>
  
  <!-- Main Content Area -->
  <g id="main-content">
    <!-- Sidebar -->
    <rect x="20" y="240" width="250" height="1340" rx="8" fill="white" stroke="#e9ecef" stroke-width="1"/>
    <text x="40" y="270" font-family="Arial, sans-serif" font-size="16" font-weight="600" fill="#495057">🔍 필터</text>
    
    <!-- Server Status Filter -->
    <text x="40" y="300" font-family="Arial, sans-serif" font-size="14" font-weight="600" fill="#6c757d">서버 상태</text>
    <rect x="40" y="310" width="16" height="16" rx="2" fill="#00d4aa" stroke="#00d4aa" stroke-width="1"/>
    <text x="65" y="322" font-family="Arial, sans-serif" font-size="14" fill="#495057">정상 (26)</text>
    <rect x="40" y="335" width="16" height="16" rx="2" fill="#00d4aa" stroke="#00d4aa" stroke-width="1"/>
    <text x="65" y="347" font-family="Arial, sans-serif" font-size="14" fill="#495057">주의 (5)</text>
    <rect x="40" y="360" width="16" height="16" rx="2" fill="#00d4aa" stroke="#00d4aa" stroke-width="1"/>
    <text x="65" y="372" font-family="Arial, sans-serif" font-size="14" fill="#495057">위험 (1)</text>
    
    <!-- Server Group Filter -->
    <text x="40" y="400" font-family="Arial, sans-serif" font-size="14" font-weight="600" fill="#6c757d">서버 그룹</text>
    <rect x="40" y="410" width="16" height="16" rx="2" fill="#00d4aa" stroke="#00d4aa" stroke-width="1"/>
    <text x="65" y="422" font-family="Arial, sans-serif" font-size="14" fill="#495057">웹서버 (12)</text>
    <rect x="40" y="435" width="16" height="16" rx="2" fill="#00d4aa" stroke="#00d4aa" stroke-width="1"/>
    <text x="65" y="447" font-family="Arial, sans-serif" font-size="14" fill="#495057">DB서버 (8)</text>
    <rect x="40" y="460" width="16" height="16" rx="2" fill="#00d4aa" stroke="#00d4aa" stroke-width="1"/>
    <text x="65" y="472" font-family="Arial, sans-serif" font-size="14" fill="#495057">AI서버 (12)</text>
    
    <!-- Resource Threshold Filter -->
    <text x="40" y="500" font-family="Arial, sans-serif" font-size="14" font-weight="600" fill="#6c757d">리소스 임계값</text>
    <rect x="40" y="510" width="16" height="16" rx="2" fill="white" stroke="#dee2e6" stroke-width="1"/>
    <text x="65" y="522" font-family="Arial, sans-serif" font-size="14" fill="#495057">CPU > 80%</text>
    <rect x="40" y="535" width="16" height="16" rx="2" fill="white" stroke="#dee2e6" stroke-width="1"/>
    <text x="65" y="547" font-family="Arial, sans-serif" font-size="14" fill="#495057">Memory > 90%</text>
    <rect x="40" y="560" width="16" height="16" rx="2" fill="white" stroke="#dee2e6" stroke-width="1"/>
    <text x="65" y="572" font-family="Arial, sans-serif" font-size="14" fill="#495057">Storage > 85%</text>
  </g>
  
  <!-- Server Grid Area -->
  <rect x="290" y="240" width="1090" height="1340" rx="8" fill="white" stroke="#e9ecef" stroke-width="1"/>
  
  <!-- Danger Servers Section -->
  <g id="danger-section">
    <circle cx="310" cy="270" r="4" fill="#ff4757"/>
    <text x="325" y="275" font-family="Arial, sans-serif" font-size="18" font-weight="600" fill="#495057">🔴 위험 서버 (1대)</text>
    <text x="1350" y="275" font-family="Arial, sans-serif" font-size="16" fill="#6c757d">▼</text>
    
    <!-- Danger Server Card: c-pod-15 -->
    <g id="danger-card-1">
      <rect x="310" y="290" width="280" height="180" rx="8" fill="rgba(255, 71, 87, 0.02)" stroke="#ff4757" stroke-width="2"/>
      
      <!-- Action Buttons -->
      <text x="570" y="305" font-family="Arial, sans-serif" font-size="12" fill="#6c757d" opacity="0.7">📊 ⚙️</text>
      
      <!-- Server Header -->
      <text x="330" y="315" font-family="Arial, sans-serif" font-size="16" font-weight="600" fill="#343a40">c-pod-15</text>
      <circle cx="570" cy="310" r="6" fill="#ff4757">
        <animate attributeName="opacity" values="1;0.3;1" dur="2s" repeatCount="indefinite"/>
      </circle>
      
      <!-- Metrics in one line -->
      <text x="430" y="340" font-family="Arial, sans-serif" font-size="13" font-weight="600" text-anchor="middle" fill="#6c757d">C</text>
      <text x="450" y="340" font-family="Arial, sans-serif" font-size="13" font-weight="600" text-anchor="middle" fill="#ff4757">95%</text>
      
      <text x="490" y="340" font-family="Arial, sans-serif" font-size="13" font-weight="600" text-anchor="middle" fill="#6c757d">M</text>
      <text x="510" y="340" font-family="Arial, sans-serif" font-size="13" font-weight="600" text-anchor="middle" fill="#ff4757">88%</text>
      
      <text x="550" y="340" font-family="Arial, sans-serif" font-size="13" font-weight="600" text-anchor="middle" fill="#6c757d">S</text>
      <text x="570" y="340" font-family="Arial, sans-serif" font-size="13" font-weight="600" text-anchor="middle" fill="#2ed573">45%</text>
      
      <!-- Mini Chart -->
      <rect x="330" y="360" width="240" height="90" rx="4" fill="#f8f9fa" stroke="#e9ecef" stroke-width="1"/>
      
      <!-- Y축 값 (%) -->
      <text x="325" y="365" font-family="Arial, sans-serif" font-size="8" fill="#6c757d" text-anchor="end">100%</text>
      <text x="325" y="385" font-family="Arial, sans-serif" font-size="8" fill="#6c757d" text-anchor="end">75%</text>
      <text x="325" y="405" font-family="Arial, sans-serif" font-size="8" fill="#6c757d" text-anchor="end">50%</text>
      <text x="325" y="425" font-family="Arial, sans-serif" font-size="8" fill="#6c757d" text-anchor="end">25%</text>
      <text x="325" y="445" font-family="Arial, sans-serif" font-size="8" fill="#6c757d" text-anchor="end">0%</text>
      
      <!-- X축 값 (시간) -->
      <text x="340" y="460" font-family="Arial, sans-serif" font-size="8" fill="#6c757d" text-anchor="middle">14:30</text>
      <text x="410" y="460" font-family="Arial, sans-serif" font-size="8" fill="#6c757d" text-anchor="middle">14:31</text>
      <text x="480" y="460" font-family="Arial, sans-serif" font-size="8" fill="#6c757d" text-anchor="middle">14:32</text>
      <text x="550" y="460" font-family="Arial, sans-serif" font-size="8" fill="#6c757d" text-anchor="middle">14:33</text>
      <text x="570" y="460" font-family="Arial, sans-serif" font-size="8" fill="#6c757d" text-anchor="middle">14:34</text>
      
      <polyline points="340,380 360,390 380,385 400,395 420,390 440,400 460,395 480,405 500,400 520,410 540,405 560,415 570,410" 
                fill="none" stroke="#3742fa" stroke-width="2"/>
      <polyline points="340,400 360,410 380,405 400,415 420,410 440,420 460,415 480,425 500,420 520,430 540,425 560,435 570,430" 
                fill="none" stroke="#2ed573" stroke-width="2"/>
      <polyline points="340,420 360,430 380,425 400,435 420,430 440,440 460,435 480,445 500,440 520,450 540,445 560,455 570,450" 
                fill="none" stroke="#6c757d" stroke-width="2"/>
    </g>
  </g>
  
  <!-- Warning Servers Section -->
  <g id="warning-section">
    <circle cx="310" cy="500" r="4" fill="#ffa502"/>
    <text x="325" y="505" font-family="Arial, sans-serif" font-size="18" font-weight="600" fill="#495057">🟡 주의 서버 (5대)</text>
    <text x="1350" y="505" font-family="Arial, sans-serif" font-size="16" fill="#6c757d">▼</text>
    
    <!-- Warning Server Cards Row 1 -->
    <g id="warning-cards-row1">
      <!-- Card 1: c-pod-2 -->
      <g id="warning-card-1">
        <rect x="310" y="520" width="280" height="180" rx="8" fill="rgba(255, 165, 2, 0.02)" stroke="#ffa502" stroke-width="2"/>
        <text x="330" y="545" font-family="Arial, sans-serif" font-size="16" font-weight="600" fill="#343a40">c-pod-2</text>
        <circle cx="570" cy="540" r="6" fill="#ffa502"/>
        
        <!-- Metrics -->
        <text x="430" y="570" font-family="Arial, sans-serif" font-size="13" font-weight="600" text-anchor="middle" fill="#6c757d">C</text>
        <text x="450" y="570" font-family="Arial, sans-serif" font-size="13" font-weight="600" text-anchor="middle" fill="#ff4757">85%</text>
        
        <text x="490" y="570" font-family="Arial, sans-serif" font-size="13" font-weight="600" text-anchor="middle" fill="#6c757d">M</text>
        <text x="510" y="570" font-family="Arial, sans-serif" font-size="13" font-weight="600" text-anchor="middle" fill="#2ed573">65%</text>
        
        <text x="550" y="570" font-family="Arial, sans-serif" font-size="13" font-weight="600" text-anchor="middle" fill="#6c757d">S</text>
        <text x="570" y="570" font-family="Arial, sans-serif" font-size="13" font-weight="600" text-anchor="middle" fill="#2ed573">42%</text>
        
        <!-- Mini Chart -->
        <rect x="330" y="590" width="240" height="90" rx="4" fill="#f8f9fa" stroke="#e9ecef" stroke-width="1"/>
        
        <!-- Y축 값 (%) -->
        <text x="325" y="595" font-family="Arial, sans-serif" font-size="8" fill="#6c757d" text-anchor="end">100%</text>
        <text x="325" y="615" font-family="Arial, sans-serif" font-size="8" fill="#6c757d" text-anchor="end">75%</text>
        <text x="325" y="635" font-family="Arial, sans-serif" font-size="8" fill="#6c757d" text-anchor="end">50%</text>
        <text x="325" y="655" font-family="Arial, sans-serif" font-size="8" fill="#6c757d" text-anchor="end">25%</text>
        <text x="325" y="675" font-family="Arial, sans-serif" font-size="8" fill="#6c757d" text-anchor="end">0%</text>
        
        <!-- X축 값 (시간) -->
        <text x="340" y="690" font-family="Arial, sans-serif" font-size="8" fill="#6c757d" text-anchor="middle">14:30</text>
        <text x="410" y="690" font-family="Arial, sans-serif" font-size="8" fill="#6c757d" text-anchor="middle">14:31</text>
        <text x="480" y="690" font-family="Arial, sans-serif" font-size="8" fill="#6c757d" text-anchor="middle">14:32</text>
        <text x="550" y="690" font-family="Arial, sans-serif" font-size="8" fill="#6c757d" text-anchor="middle">14:33</text>
        <text x="570" y="690" font-family="Arial, sans-serif" font-size="8" fill="#6c757d" text-anchor="middle">14:34</text>
        
        <polyline points="340,610 360,620 380,615 400,625 420,620 440,630 460,625 480,635 500,630 520,640 540,635 560,645 570,640" 
                  fill="none" stroke="#3742fa" stroke-width="2"/>
        <polyline points="340,630 360,640 380,635 400,645 420,640 440,650 460,645 480,655 500,650 520,660 540,655 560,665 570,660" 
                  fill="none" stroke="#2ed573" stroke-width="2"/>
        <polyline points="340,650 360,660 380,655 400,665 420,660 440,670 460,665 480,675 500,670 520,680 540,675 560,685 570,680" 
                  fill="none" stroke="#6c757d" stroke-width="2"/>
      </g>
      
      <!-- Card 2: c-pod-7 -->
      <g id="warning-card-2">
        <rect x="610" y="520" width="280" height="180" rx="8" fill="rgba(255, 165, 2, 0.02)" stroke="#ffa502" stroke-width="2"/>
        <text x="630" y="545" font-family="Arial, sans-serif" font-size="16" font-weight="600" fill="#343a40">c-pod-7</text>
        <circle cx="870" cy="540" r="6" fill="#ffa502"/>
        
        <!-- Metrics -->
        <text x="730" y="570" font-family="Arial, sans-serif" font-size="13" font-weight="600" text-anchor="middle" fill="#6c757d">C</text>
        <text x="750" y="570" font-family="Arial, sans-serif" font-size="13" font-weight="600" text-anchor="middle" fill="#ffa502">78%</text>
        
        <text x="790" y="570" font-family="Arial, sans-serif" font-size="13" font-weight="600" text-anchor="middle" fill="#6c757d">M</text>
        <text x="810" y="570" font-family="Arial, sans-serif" font-size="13" font-weight="600" text-anchor="middle" fill="#ff4757">85%</text>
        
        <text x="850" y="570" font-family="Arial, sans-serif" font-size="13" font-weight="600" text-anchor="middle" fill="#6c757d">S</text>
        <text x="870" y="570" font-family="Arial, sans-serif" font-size="13" font-weight="600" text-anchor="middle" fill="#2ed573">38%</text>
        
        <!-- Mini Chart -->
        <rect x="630" y="590" width="240" height="90" rx="4" fill="#f8f9fa" stroke="#e9ecef" stroke-width="1"/>
        
        <!-- Y축 값 (%) -->
        <text x="625" y="595" font-family="Arial, sans-serif" font-size="8" fill="#6c757d" text-anchor="end">100%</text>
        <text x="625" y="615" font-family="Arial, sans-serif" font-size="8" fill="#6c757d" text-anchor="end">75%</text>
        <text x="625" y="635" font-family="Arial, sans-serif" font-size="8" fill="#6c757d" text-anchor="end">50%</text>
        <text x="625" y="655" font-family="Arial, sans-serif" font-size="8" fill="#6c757d" text-anchor="end">25%</text>
        <text x="625" y="675" font-family="Arial, sans-serif" font-size="8" fill="#6c757d" text-anchor="end">0%</text>
        
        <!-- X축 값 (시간) -->
        <text x="640" y="690" font-family="Arial, sans-serif" font-size="8" fill="#6c757d" text-anchor="middle">14:30</text>
        <text x="710" y="690" font-family="Arial, sans-serif" font-size="8" fill="#6c757d" text-anchor="middle">14:31</text>
        <text x="780" y="690" font-family="Arial, sans-serif" font-size="8" fill="#6c757d" text-anchor="middle">14:32</text>
        <text x="850" y="690" font-family="Arial, sans-serif" font-size="8" fill="#6c757d" text-anchor="middle">14:33</text>
        <text x="870" y="690" font-family="Arial, sans-serif" font-size="8" fill="#6c757d" text-anchor="middle">14:34</text>
        
        <polyline points="640,630 660,620 680,625 700,615 720,620 740,610 760,615 780,605 800,610 820,600 840,605 860,595 870,600" 
                  fill="none" stroke="#3742fa" stroke-width="2"/>
        <polyline points="640,610 660,620 680,615 700,625 720,620 740,630 760,625 780,635 800,630 820,640 840,635 860,645 870,640" 
                  fill="none" stroke="#2ed573" stroke-width="2"/>
        <polyline points="640,660 660,670 680,665 700,675 720,670 740,680 760,675 780,685 800,680 820,690 840,685 860,695 870,690" 
                  fill="none" stroke="#6c757d" stroke-width="2"/>
      </g>
      
      <!-- Card 3: c-pod-12 -->
      <g id="warning-card-3">
        <rect x="910" y="520" width="280" height="180" rx="8" fill="rgba(255, 165, 2, 0.02)" stroke="#ffa502" stroke-width="2"/>
        <text x="930" y="545" font-family="Arial, sans-serif" font-size="16" font-weight="600" fill="#343a40">c-pod-12</text>
        <circle cx="1170" cy="540" r="6" fill="#ffa502"/>
        
        <!-- Metrics -->
        <text x="1030" y="570" font-family="Arial, sans-serif" font-size="13" font-weight="600" text-anchor="middle" fill="#6c757d">C</text>
        <text x="1050" y="570" font-family="Arial, sans-serif" font-size="13" font-weight="600" text-anchor="middle" fill="#2ed573">72%</text>
        
        <text x="1090" y="570" font-family="Arial, sans-serif" font-size="13" font-weight="600" text-anchor="middle" fill="#6c757d">M</text>
        <text x="1110" y="570" font-family="Arial, sans-serif" font-size="13" font-weight="600" text-anchor="middle" fill="#ff4757">88%</text>
        
        <text x="1150" y="570" font-family="Arial, sans-serif" font-size="13" font-weight="600" text-anchor="middle" fill="#6c757d">S</text>
        <text x="1170" y="570" font-family="Arial, sans-serif" font-size="13" font-weight="600" text-anchor="middle" fill="#2ed573">55%</text>
        
        <!-- Mini Chart -->
        <rect x="930" y="590" width="240" height="90" rx="4" fill="#f8f9fa" stroke="#e9ecef" stroke-width="1"/>
        
        <!-- Y축 값 (%) -->
        <text x="925" y="595" font-family="Arial, sans-serif" font-size="8" fill="#6c757d" text-anchor="end">100%</text>
        <text x="925" y="615" font-family="Arial, sans-serif" font-size="8" fill="#6c757d" text-anchor="end">75%</text>
        <text x="925" y="635" font-family="Arial, sans-serif" font-size="8" fill="#6c757d" text-anchor="end">50%</text>
        <text x="925" y="655" font-family="Arial, sans-serif" font-size="8" fill="#6c757d" text-anchor="end">25%</text>
        <text x="925" y="675" font-family="Arial, sans-serif" font-size="8" fill="#6c757d" text-anchor="end">0%</text>
        
        <!-- X축 값 (시간) -->
        <text x="940" y="690" font-family="Arial, sans-serif" font-size="8" fill="#6c757d" text-anchor="middle">14:30</text>
        <text x="1010" y="690" font-family="Arial, sans-serif" font-size="8" fill="#6c757d" text-anchor="middle">14:31</text>
        <text x="1080" y="690" font-family="Arial, sans-serif" font-size="8" fill="#6c757d" text-anchor="middle">14:32</text>
        <text x="1150" y="690" font-family="Arial, sans-serif" font-size="8" fill="#6c757d" text-anchor="middle">14:33</text>
        <text x="1170" y="690" font-family="Arial, sans-serif" font-size="8" fill="#6c757d" text-anchor="middle">14:34</text>
        
        <polyline points="940,630 960,620 980,625 1000,615 1020,620 1040,610 1060,615 1080,605 1100,610 1120,600 1140,605 1160,595 1170,600" 
                  fill="none" stroke="#3742fa" stroke-width="2"/>
        <polyline points="940,610 960,620 980,615 1000,625 1020,620 1040,630 1060,625 1080,635 1100,630 1120,640 1140,635 1160,645 1170,640" 
                  fill="none" stroke="#2ed573" stroke-width="2"/>
        <polyline points="940,660 960,670 980,665 1000,675 1020,670 1040,680 1060,675 1080,685 1100,680 1120,690 1140,685 1160,695 1170,690" 
                  fill="none" stroke="#6c757d" stroke-width="2"/>
      </g>
    </g>
    
    <!-- Warning Server Cards Row 2 -->
    <g id="warning-cards-row2">
      <!-- Card 4: c-pod-18 -->
      <g id="warning-card-4">
        <rect x="310" y="720" width="280" height="180" rx="8" fill="rgba(255, 165, 2, 0.02)" stroke="#ffa502" stroke-width="2"/>
        <text x="330" y="745" font-family="Arial, sans-serif" font-size="16" font-weight="600" fill="#343a40">c-pod-18</text>
        <circle cx="570" cy="740" r="6" fill="#ffa502"/>
        
        <!-- Metrics -->
        <text x="430" y="770" font-family="Arial, sans-serif" font-size="13" font-weight="600" text-anchor="middle" fill="#6c757d">C</text>
        <text x="450" y="770" font-family="Arial, sans-serif" font-size="13" font-weight="600" text-anchor="middle" fill="#ff4757">82%</text>
        
        <text x="490" y="770" font-family="Arial, sans-serif" font-size="13" font-weight="600" text-anchor="middle" fill="#6c757d">M</text>
        <text x="510" y="770" font-family="Arial, sans-serif" font-size="13" font-weight="600" text-anchor="middle" fill="#ffa502">75%</text>
        
        <text x="550" y="770" font-family="Arial, sans-serif" font-size="13" font-weight="600" text-anchor="middle" fill="#6c757d">S</text>
        <text x="570" y="770" font-family="Arial, sans-serif" font-size="13" font-weight="600" text-anchor="middle" fill="#2ed573">48%</text>
        
        <!-- Mini Chart -->
        <rect x="330" y="790" width="240" height="90" rx="4" fill="#f8f9fa" stroke="#e9ecef" stroke-width="1"/>
        
        <!-- Y축 값 (%) -->
        <text x="325" y="795" font-family="Arial, sans-serif" font-size="8" fill="#6c757d" text-anchor="end">100%</text>
        <text x="325" y="815" font-family="Arial, sans-serif" font-size="8" fill="#6c757d" text-anchor="end">75%</text>
        <text x="325" y="835" font-family="Arial, sans-serif" font-size="8" fill="#6c757d" text-anchor="end">50%</text>
        <text x="325" y="855" font-family="Arial, sans-serif" font-size="8" fill="#6c757d" text-anchor="end">25%</text>
        <text x="325" y="875" font-family="Arial, sans-serif" font-size="8" fill="#6c757d" text-anchor="end">0%</text>
        
        <!-- X축 값 (시간) -->
        <text x="340" y="890" font-family="Arial, sans-serif" font-size="8" fill="#6c757d" text-anchor="middle">14:30</text>
        <text x="410" y="890" font-family="Arial, sans-serif" font-size="8" fill="#6c757d" text-anchor="middle">14:31</text>
        <text x="480" y="890" font-family="Arial, sans-serif" font-size="8" fill="#6c757d" text-anchor="middle">14:32</text>
        <text x="550" y="890" font-family="Arial, sans-serif" font-size="8" fill="#6c757d" text-anchor="middle">14:33</text>
        <text x="570" y="890" font-family="Arial, sans-serif" font-size="8" fill="#6c757d" text-anchor="middle">14:34</text>
        
        <polyline points="340,810 360,820 380,815 400,825 420,820 440,830 460,825 480,835 500,830 520,840 540,835 560,845 570,840" 
                  fill="none" stroke="#3742fa" stroke-width="2"/>
        <polyline points="340,830 360,840 380,835 400,845 420,840 440,850 460,845 480,855 500,850 520,860 540,855 560,865 570,860" 
                  fill="none" stroke="#2ed573" stroke-width="2"/>
        <polyline points="340,850 360,860 380,855 400,865 420,860 440,870 460,865 480,875 500,870 520,880 540,875 560,885 570,880" 
                  fill="none" stroke="#6c757d" stroke-width="2"/>
      </g>
      
      <!-- Card 5: c-pod-23 -->
      <g id="warning-card-5">
        <rect x="610" y="720" width="280" height="180" rx="8" fill="rgba(255, 165, 2, 0.02)" stroke="#ffa502" stroke-width="2"/>
        <text x="630" y="745" font-family="Arial, sans-serif" font-size="16" font-weight="600" fill="#343a40">c-pod-23</text>
        <circle cx="870" cy="740" r="6" fill="#ffa502"/>
        
        <!-- Metrics -->
        <text x="730" y="770" font-family="Arial, sans-serif" font-size="13" font-weight="600" text-anchor="middle" fill="#6c757d">C</text>
        <text x="750" y="770" font-family="Arial, sans-serif" font-size="13" font-weight="600" text-anchor="middle" fill="#ffa502">76%</text>
        
        <text x="790" y="770" font-family="Arial, sans-serif" font-size="13" font-weight="600" text-anchor="middle" fill="#6c757d">M</text>
        <text x="810" y="770" font-family="Arial, sans-serif" font-size="13" font-weight="600" text-anchor="middle" fill="#ff4757">82%</text>
        
        <text x="850" y="770" font-family="Arial, sans-serif" font-size="13" font-weight="600" text-anchor="middle" fill="#6c757d">S</text>
        <text x="870" y="770" font-family="Arial, sans-serif" font-size="13" font-weight="600" text-anchor="middle" fill="#2ed573">62%</text>
        
        <!-- Mini Chart -->
        <rect x="630" y="790" width="240" height="90" rx="4" fill="#f8f9fa" stroke="#e9ecef" stroke-width="1"/>
        
        <!-- Y축 값 (%) -->
        <text x="625" y="795" font-family="Arial, sans-serif" font-size="8" fill="#6c757d" text-anchor="end">100%</text>
        <text x="625" y="815" font-family="Arial, sans-serif" font-size="8" fill="#6c757d" text-anchor="end">75%</text>
        <text x="625" y="835" font-family="Arial, sans-serif" font-size="8" fill="#6c757d" text-anchor="end">50%</text>
        <text x="625" y="855" font-family="Arial, sans-serif" font-size="8" fill="#6c757d" text-anchor="end">25%</text>
        <text x="625" y="875" font-family="Arial, sans-serif" font-size="8" fill="#6c757d" text-anchor="end">0%</text>
        
        <!-- X축 값 (시간) -->
        <text x="640" y="890" font-family="Arial, sans-serif" font-size="8" fill="#6c757d" text-anchor="middle">14:30</text>
        <text x="710" y="890" font-family="Arial, sans-serif" font-size="8" fill="#6c757d" text-anchor="middle">14:31</text>
        <text x="780" y="890" font-family="Arial, sans-serif" font-size="8" fill="#6c757d" text-anchor="middle">14:32</text>
        <text x="850" y="890" font-family="Arial, sans-serif" font-size="8" fill="#6c757d" text-anchor="middle">14:33</text>
        <text x="870" y="890" font-family="Arial, sans-serif" font-size="8" fill="#6c757d" text-anchor="middle">14:34</text>
        
        <polyline points="640,830 660,820 680,825 700,815 720,820 740,810 760,815 780,805 800,810 820,800 840,805 860,795 870,800" 
                  fill="none" stroke="#3742fa" stroke-width="2"/>
        <polyline points="640,810 660,820 680,815 700,825 720,820 740,830 760,825 780,835 800,830 820,840 840,835 860,845 870,840" 
                  fill="none" stroke="#2ed573" stroke-width="2"/>
        <polyline points="640,860 660,870 680,865 700,875 720,870 740,880 760,875 780,885 800,880 820,890 840,885 860,895 870,890" 
                  fill="none" stroke="#6c757d" stroke-width="2"/>
      </g>
    </g>
  </g>
  
  <!-- Normal Servers Section -->
  <g id="normal-section">
    <circle cx="310" cy="930" r="4" fill="#2ed573"/>
    <text x="325" y="935" font-family="Arial, sans-serif" font-size="18" font-weight="600" fill="#495057">🟢 정상 서버 (26대)</text>
    <text x="1350" y="935" font-family="Arial, sans-serif" font-size="16" fill="#6c757d">▼</text>
    
    <!-- Normal Server Cards Row 1 -->
    <g id="normal-cards-row1">
      <!-- Card 1: c-pod-1 -->
      <g id="normal-card-1">
        <rect x="310" y="950" width="280" height="180" rx="8" fill="rgba(46, 213, 115, 0.02)" stroke="#2ed573" stroke-width="2"/>
        <text x="330" y="975" font-family="Arial, sans-serif" font-size="16" font-weight="600" fill="#343a40">c-pod-1</text>
        <circle cx="570" cy="970" r="6" fill="#2ed573"/>
        
        <!-- Metrics -->
        <text x="430" y="1000" font-family="Arial, sans-serif" font-size="13" font-weight="600" text-anchor="middle" fill="#6c757d">C</text>
        <text x="450" y="1000" font-family="Arial, sans-serif" font-size="13" font-weight="600" text-anchor="middle" fill="#2ed573">45%</text>
        
        <text x="490" y="1000" font-family="Arial, sans-serif" font-size="13" font-weight="600" text-anchor="middle" fill="#6c757d">M</text>
        <text x="510" y="1000" font-family="Arial, sans-serif" font-size="13" font-weight="600" text-anchor="middle" fill="#2ed573">62%</text>
        
        <text x="550" y="1000" font-family="Arial, sans-serif" font-size="13" font-weight="600" text-anchor="middle" fill="#6c757d">S</text>
        <text x="570" y="1000" font-family="Arial, sans-serif" font-size="13" font-weight="600" text-anchor="middle" fill="#2ed573">38%</text>
        
        <!-- Mini Chart -->
        <rect x="330" y="1020" width="240" height="90" rx="4" fill="#f8f9fa" stroke="#e9ecef" stroke-width="1"/>
        
        <!-- Y축 값 (%) -->
        <text x="325" y="1025" font-family="Arial, sans-serif" font-size="8" fill="#6c757d" text-anchor="end">100%</text>
        <text x="325" y="1045" font-family="Arial, sans-serif" font-size="8" fill="#6c757d" text-anchor="end">75%</text>
        <text x="325" y="1065" font-family="Arial, sans-serif" font-size="8" fill="#6c757d" text-anchor="end">50%</text>
        <text x="325" y="1085" font-family="Arial, sans-serif" font-size="8" fill="#6c757d" text-anchor="end">25%</text>
        <text x="325" y="1105" font-family="Arial, sans-serif" font-size="8" fill="#6c757d" text-anchor="end">0%</text>
        
        <!-- X축 값 (시간) -->
        <text x="340" y="1120" font-family="Arial, sans-serif" font-size="8" fill="#6c757d" text-anchor="middle">14:30</text>
        <text x="410" y="1120" font-family="Arial, sans-serif" font-size="8" fill="#6c757d" text-anchor="middle">14:31</text>
        <text x="480" y="1120" font-family="Arial, sans-serif" font-size="8" fill="#6c757d" text-anchor="middle">14:32</text>
        <text x="550" y="1120" font-family="Arial, sans-serif" font-size="8" fill="#6c757d" text-anchor="middle">14:33</text>
        <text x="570" y="1120" font-family="Arial, sans-serif" font-size="8" fill="#6c757d" text-anchor="middle">14:34</text>
        
        <polyline points="340,1040 360,1050 380,1045 400,1055 420,1050 440,1060 460,1055 480,1065 500,1060 520,1070 540,1065 560,1075 570,1070" 
                  fill="none" stroke="#3742fa" stroke-width="2"/>
        <polyline points="340,1060 360,1070 380,1065 400,1075 420,1070 440,1080 460,1075 480,1085 500,1080 520,1090 540,1085 560,1095 570,1090" 
                  fill="none" stroke="#2ed573" stroke-width="2"/>
        <polyline points="340,1080 360,1090 380,1085 400,1095 420,1090 440,1100 460,1095 480,1105 500,1100 520,1110 540,1105 560,1115 570,1110" 
                  fill="none" stroke="#6c757d" stroke-width="2"/>
      </g>
      
      <!-- Card 2: c-pod-3 -->
      <g id="normal-card-2">
        <rect x="610" y="950" width="280" height="180" rx="8" fill="rgba(46, 213, 115, 0.02)" stroke="#2ed573" stroke-width="2"/>
        <text x="630" y="975" font-family="Arial, sans-serif" font-size="16" font-weight="600" fill="#343a40">c-pod-3</text>
        <circle cx="870" cy="970" r="6" fill="#2ed573"/>
        
        <!-- Metrics -->
        <text x="730" y="1000" font-family="Arial, sans-serif" font-size="13" font-weight="600" text-anchor="middle" fill="#6c757d">C</text>
        <text x="750" y="1000" font-family="Arial, sans-serif" font-size="13" font-weight="600" text-anchor="middle" fill="#2ed573">32%</text>
        
        <text x="790" y="1000" font-family="Arial, sans-serif" font-size="13" font-weight="600" text-anchor="middle" fill="#6c757d">M</text>
        <text x="810" y="1000" font-family="Arial, sans-serif" font-size="13" font-weight="600" text-anchor="middle" fill="#2ed573">45%</text>
        
        <text x="850" y="1000" font-family="Arial, sans-serif" font-size="13" font-weight="600" text-anchor="middle" fill="#6c757d">S</text>
        <text x="870" y="1000" font-family="Arial, sans-serif" font-size="13" font-weight="600" text-anchor="middle" fill="#2ed573">28%</text>
        
        <!-- Mini Chart -->
        <rect x="630" y="1020" width="240" height="90" rx="4" fill="#f8f9fa" stroke="#e9ecef" stroke-width="1"/>
        
        <!-- Y축 값 (%) -->
        <text x="625" y="1025" font-family="Arial, sans-serif" font-size="8" fill="#6c757d" text-anchor="end">100%</text>
        <text x="625" y="1045" font-family="Arial, sans-serif" font-size="8" fill="#6c757d" text-anchor="end">75%</text>
        <text x="625" y="1065" font-family="Arial, sans-serif" font-size="8" fill="#6c757d" text-anchor="end">50%</text>
        <text x="625" y="1085" font-family="Arial, sans-serif" font-size="8" fill="#6c757d" text-anchor="end">25%</text>
        <text x="625" y="1105" font-family="Arial, sans-serif" font-size="8" fill="#6c757d" text-anchor="end">0%</text>
        
        <!-- X축 값 (시간) -->
        <text x="640" y="1120" font-family="Arial, sans-serif" font-size="8" fill="#6c757d" text-anchor="middle">14:30</text>
        <text x="710" y="1120" font-family="Arial, sans-serif" font-size="8" fill="#6c757d" text-anchor="middle">14:31</text>
        <text x="780" y="1120" font-family="Arial, sans-serif" font-size="8" fill="#6c757d" text-anchor="middle">14:32</text>
        <text x="850" y="1120" font-family="Arial, sans-serif" font-size="8" fill="#6c757d" text-anchor="middle">14:33</text>
        <text x="870" y="1120" font-family="Arial, sans-serif" font-size="8" fill="#6c757d" text-anchor="middle">14:34</text>
        
        <polyline points="640,1060 660,1050 680,1055 700,1045 720,1050 740,1040 760,1045 780,1035 800,1040 820,1030 840,1035 860,1025 870,1030" 
                  fill="none" stroke="#3742fa" stroke-width="2"/>
        <polyline points="640,1040 660,1050 680,1045 700,1055 720,1050 740,1060 760,1055 780,1065 800,1060 820,1070 840,1065 860,1075 870,1070" 
                  fill="none" stroke="#2ed573" stroke-width="2"/>
        <polyline points="640,1090 660,1100 680,1095 700,1105 720,1100 740,1110 760,1105 780,1115 800,1110 820,1120 840,1115 860,1125 870,1120" 
                  fill="none" stroke="#6c757d" stroke-width="2"/>
      </g>
      
      <!-- Card 3: c-pod-4 -->
      <g id="normal-card-3">
        <rect x="910" y="950" width="280" height="180" rx="8" fill="rgba(46, 213, 115, 0.02)" stroke="#2ed573" stroke-width="2"/>
        <text x="930" y="975" font-family="Arial, sans-serif" font-size="16" font-weight="600" fill="#343a40">c-pod-4</text>
        <circle cx="1170" cy="970" r="6" fill="#2ed573"/>
        
        <!-- Metrics -->
        <text x="1030" y="1000" font-family="Arial, sans-serif" font-size="13" font-weight="600" text-anchor="middle" fill="#6c757d">C</text>
        <text x="1050" y="1000" font-family="Arial, sans-serif" font-size="13" font-weight="600" text-anchor="middle" fill="#2ed573">58%</text>
        
        <text x="1090" y="1000" font-family="Arial, sans-serif" font-size="13" font-weight="600" text-anchor="middle" fill="#6c757d">M</text>
        <text x="1110" y="1000" font-family="Arial, sans-serif" font-size="13" font-weight="600" text-anchor="middle" fill="#2ed573">55%</text>
        
        <text x="1150" y="1000" font-family="Arial, sans-serif" font-size="13" font-weight="600" text-anchor="middle" fill="#6c757d">S</text>
        <text x="1170" y="1000" font-family="Arial, sans-serif" font-size="13" font-weight="600" text-anchor="middle" fill="#2ed573">42%</text>
        
        <!-- Mini Chart -->
        <rect x="930" y="1020" width="240" height="90" rx="4" fill="#f8f9fa" stroke="#e9ecef" stroke-width="1"/>
        
        <!-- Y축 값 (%) -->
        <text x="925" y="1025" font-family="Arial, sans-serif" font-size="8" fill="#6c757d" text-anchor="end">100%</text>
        <text x="925" y="1045" font-family="Arial, sans-serif" font-size="8" fill="#6c757d" text-anchor="end">75%</text>
        <text x="925" y="1065" font-family="Arial, sans-serif" font-size="8" fill="#6c757d" text-anchor="end">50%</text>
        <text x="925" y="1085" font-family="Arial, sans-serif" font-size="8" fill="#6c757d" text-anchor="end">25%</text>
        <text x="925" y="1105" font-family="Arial, sans-serif" font-size="8" fill="#6c757d" text-anchor="end">0%</text>
        
        <!-- X축 값 (시간) -->
        <text x="940" y="1120" font-family="Arial, sans-serif" font-size="8" fill="#6c757d" text-anchor="middle">14:30</text>
        <text x="1010" y="1120" font-family="Arial, sans-serif" font-size="8" fill="#6c757d" text-anchor="middle">14:31</text>
        <text x="1080" y="1120" font-family="Arial, sans-serif" font-size="8" fill="#6c757d" text-anchor="middle">14:32</text>
        <text x="1150" y="1120" font-family="Arial, sans-serif" font-size="8" fill="#6c757d" text-anchor="middle">14:33</text>
        <text x="1170" y="1120" font-family="Arial, sans-serif" font-size="8" fill="#6c757d" text-anchor="middle">14:34</text>
        
        <polyline points="940,1060 960,1050 980,1055 1000,1045 1020,1050 1040,1040 1060,1045 1080,1035 1100,1040 1120,1030 1140,1035 1160,1025 1170,1030" 
                  fill="none" stroke="#3742fa" stroke-width="2"/>
        <polyline points="940,1040 960,1050 980,1045 1000,1055 1020,1050 1040,1060 1060,1055 1080,1065 1100,1060 1120,1070 1140,1065 1160,1075 1170,1070" 
                  fill="none" stroke="#2ed573" stroke-width="2"/>
        <polyline points="940,1090 960,1100 980,1095 1000,1105 1020,1100 1040,1110 1060,1105 1080,1115 1100,1110 1120,1120 1140,1115 1160,1125 1170,1120" 
                  fill="none" stroke="#6c757d" stroke-width="2"/>
      </g>
    </g>
    
    <!-- Simplified remaining servers indicator -->
    <text x="310" y="1160" font-family="Arial, sans-serif" font-size="14" fill="#6c757d">... 나머지 23개 정상 서버 (c-pod-5 ~ c-pod-32)</text>
    <rect x="310" y="1170" width="280" height="100" rx="8" fill="rgba(46, 213, 115, 0.05)" stroke="#2ed573" stroke-width="1" opacity="0.5"/>
    <text x="430" y="1220" font-family="Arial, sans-serif" font-size="12" fill="#6c757d" text-anchor="middle">더 많은 정상 서버...</text>
  </g>
  
  <!-- Pagination -->
  <g id="pagination">
    <rect x="540" y="1520" width="320" height="40" rx="8" fill="white" stroke="#e9ecef" stroke-width="1"/>
    <text x="560" y="1545" font-family="Arial, sans-serif" font-size="14" fill="#6c757d">◀ 이전</text>
    <rect x="620" y="1530" width="30" height="20" rx="4" fill="#00d4aa"/>
    <text x="635" y="1543" font-family="Arial, sans-serif" font-size="14" fill="white" text-anchor="middle">1</text>
    <text x="670" y="1545" font-family="Arial, sans-serif" font-size="14" fill="#6c757d">2</text>
    <text x="690" y="1545" font-family="Arial, sans-serif" font-size="14" fill="#6c757d">3</text>
    <text x="750" y="1545" font-family="Arial, sans-serif" font-size="14" fill="#6c757d" text-anchor="middle">32개 서버 중 1-12개 표시</text>
    <text x="820" y="1545" font-family="Arial, sans-serif" font-size="14" fill="#6c757d">다음 ▶</text>
  </g>
  
  <!-- Footer Info -->
  <text x="700" y="1570" font-family="Arial, sans-serif" font-size="12" fill="#6c757d" text-anchor="middle">🖥️ 서버 모니터링 대시보드 - 실시간 업데이트</text>
</svg>
